<svg width="128" height="128" viewBox="0 0 128 128" fill="none" xmlns="http://www.w3.org/2000/svg">
<g clip-path="url(#clip0_56_238)">
<path d="M103.777 29.8553C97.6048 44.8543 85.6999 48.9378 70.7952 50.2727C61.5288 77.4907 71.769 107.551 91.2126 127.231C128.718 109.499 135.597 56.555 103.777 29.8553Z" fill="white"/>
<path d="M77.7531 38.1949C84.7346 35.264 90.565 30.1286 94.354 23.5729C90.2565 21.3476 85.9133 19.6082 81.4125 18.39L90.1448 7.71016C90.8937 6.73955 91.2348 5.51529 91.0956 4.2973C90.9565 3.0793 90.3481 1.96349 89.3997 1.18675C88.4513 0.410013 87.2374 0.0335111 86.0159 0.137182C84.7944 0.240854 83.6614 0.816535 82.8574 1.742L70.9996 16.2383C66.6938 15.6729 62.3325 15.6729 58.0267 16.2383L46.1689 1.742C45.7839 1.24299 45.3027 0.826285 44.7538 0.516569C44.2049 0.206852 43.5994 0.0104146 42.9732 -0.0611128C42.347 -0.13264 41.7128 -0.0778049 41.1081 0.100148C40.5035 0.2781 39.9407 0.575554 39.4531 0.974896C38.9655 1.37424 38.563 1.86735 38.2693 2.42505C37.9757 2.98274 37.7969 3.59368 37.7436 4.2217C37.6903 4.84972 37.7636 5.48204 37.959 6.08125C38.1545 6.68045 38.4681 7.23435 38.8815 7.71016L47.6138 18.39C43.1131 19.6082 38.7698 21.3476 34.6724 23.5729C38.8944 30.7836 45.5739 36.2309 53.4864 38.9165C61.3988 41.6021 70.0142 41.3459 77.7531 38.1949Z" fill="white"/>
<path d="M37.8137 45.561C32.2231 41.6209 27.866 36.1745 25.2491 29.8553C23.6786 31.2217 1.01528 50.8853 4.83176 81.6841C8.69536 112.86 36.0232 126.382 37.8137 127.231C57.2573 107.551 67.4974 77.4907 58.2311 50.2727C54.98 49.99 44.8655 50.4926 37.8137 45.561Z" fill="white"/>
</g>
<defs>
<clipPath id="clip0_56_238">
<rect width="128" height="128" fill="white"/>
</clipPath>
</defs>
</svg>
