<svg width="128" height="128" viewBox="0 0 128 128" fill="none" xmlns="http://www.w3.org/2000/svg">
<g clip-path="url(#clip0_56_244)">
<path d="M115.44 64C115.443 72.0296 113.527 79.9436 109.851 87.0825C106.176 94.2214 100.847 100.378 94.3095 105.041C87.772 109.703 80.2149 112.735 72.268 113.884C64.3211 115.033 56.2146 114.267 48.624 111.648C58.5412 108.229 67.1445 101.801 73.2345 93.2598C79.3244 84.7186 82.5976 74.49 82.5976 64C82.5976 53.51 79.3244 43.2814 73.2345 34.7402C67.1445 26.199 58.5412 19.7709 48.624 16.352C56.2146 13.7333 64.3211 12.9666 72.268 14.116C80.2149 15.2653 87.772 18.2974 94.3095 22.9595C100.847 27.6215 106.176 33.7786 109.851 40.9175C113.527 48.0564 115.443 55.9704 115.44 64ZM64 0C51.342 0 38.9683 3.75353 28.4435 10.7859C17.9188 17.8184 9.71575 27.8138 4.87174 39.5083C0.0277302 51.2027 -1.23968 64.071 1.22977 76.4858C3.69922 88.9006 9.79463 100.304 18.7452 109.255C27.6958 118.205 39.0995 124.301 51.5142 126.77C63.929 129.24 76.7973 127.972 88.4918 123.128C100.186 118.284 110.182 110.081 117.214 99.5565C124.246 89.0317 128 76.658 128 64C128 47.0261 121.257 30.7475 109.255 18.7452C97.2525 6.74284 80.9739 0 64 0Z" fill="white"/>
</g>
<defs>
<clipPath id="clip0_56_244">
<rect width="128" height="128" fill="white"/>
</clipPath>
</defs>
</svg>
