<svg width="128" height="128" viewBox="0 0 128 128" fill="none" xmlns="http://www.w3.org/2000/svg">
<g clip-path="url(#clip0_56_248)">
<path d="M117.287 62.9419C114.869 50.9117 108.48 40.0428 99.1439 32.0794C89.8082 24.116 78.0677 19.52 65.8068 19.0289C68.0433 12.8622 67.9287 6.08753 65.4848 0C62.6195 6.45833 58.3723 12.2095 53.0428 16.8479C50.7716 18.9916 48.1848 20.7737 45.3726 22.1321C42.5847 23.2062 39.858 24.4327 37.2048 25.8062C26.8742 31.5582 18.6642 40.4763 13.7846 51.2464C10.9733 57.4766 9.35947 64.1802 9.02734 71.0073C15.0725 69.1158 21.233 67.6148 27.4708 66.5135C33.0038 65.5474 38.61 65.0497 44.1723 64.3032C54.4187 62.8394 62.484 56.8966 68.1342 48.2018C75.2766 50.4993 81.2556 55.4667 84.8231 62.0671C88.3906 68.6675 89.2708 76.3907 87.2801 83.6246C85.2893 90.8585 80.5815 97.044 74.1392 100.89C67.697 104.736 60.0183 105.944 52.7061 104.264C55.5249 110.593 59.9754 116.059 65.6019 120.102C68.4661 122.155 71.5985 123.805 74.9114 125.006C76.3799 125.73 78.0024 126.087 79.6394 126.045C81.5322 125.586 83.3682 124.918 85.1139 124.054C96.6974 119.125 106.226 110.351 112.093 99.2124C117.959 88.0741 119.804 75.2532 117.317 62.9126L117.287 62.9419ZM29.3444 44.6595C30.9312 43.0788 32.8597 41.8833 34.9812 41.1652C37.1027 40.447 39.3608 40.2252 41.5815 40.517C41.8443 42.7288 41.6025 44.9713 40.8742 47.0762C40.1459 49.181 38.95 51.0935 37.3765 52.6698C35.803 54.2462 33.8927 55.4454 31.7891 56.1775C29.6855 56.9096 27.4434 57.1554 25.2312 56.8966C24.9357 54.6781 25.1528 52.4215 25.8659 50.3001C26.5789 48.1787 27.7689 46.249 29.3444 44.6595ZM58.0342 128.182C46.6136 126.999 35.8541 122.255 27.2775 114.622C18.7009 106.988 12.7415 96.8513 10.2423 85.6449C22.1502 79.1605 35.5497 75.9103 49.1052 76.2183C44.4816 83.2453 42.3005 91.5994 42.8989 99.9898C43.2648 105.497 44.8048 110.861 47.4153 115.724C50.0258 120.587 53.6465 124.834 58.0342 128.182Z" fill="white"/>
</g>
<defs>
<clipPath id="clip0_56_248">
<rect width="128" height="128" fill="white"/>
</clipPath>
</defs>
</svg>
