<svg width="128" height="128" viewBox="0 0 128 128" fill="none" xmlns="http://www.w3.org/2000/svg">
<g clip-path="url(#clip0_56_259)">
<path d="M2.23775 90.3344L10.241 109.846C10.8283 111.287 11.8984 112.479 13.268 113.218C14.6375 113.956 16.2213 114.196 17.7479 113.895C19.2746 113.594 20.6492 112.772 21.6362 111.569C22.6232 110.366 23.1612 108.857 23.1581 107.301V50.5104C23.1612 48.9544 22.6232 47.4457 21.6362 46.2428C20.6492 45.0399 19.2746 44.2177 17.7479 43.9169C16.2213 43.6161 14.6375 43.8555 13.268 44.5941C11.8984 45.3327 10.8283 46.5245 10.241 47.9654L2.23775 67.4772C-0.771958 74.7991 -0.771958 83.0126 2.23775 90.3344Z" fill="white"/>
<path d="M128.001 106.517V22.4831C128.001 20.2544 127.115 18.117 125.539 16.5411C123.963 14.9651 121.826 14.0798 119.597 14.0798H115.596C113.367 14.0798 111.229 14.9651 109.654 16.5411C108.078 18.117 107.192 20.2544 107.192 22.4831V49.8221C107.192 50.5311 106.911 51.211 106.409 51.7123C105.908 52.2136 105.228 52.4952 104.519 52.4952C104.169 52.4952 103.822 52.4259 103.499 52.2914C103.175 52.1569 102.882 51.9597 102.635 51.7113C102.388 51.4629 102.192 51.1681 102.06 50.8439C101.927 50.5196 101.86 50.1724 101.862 49.8221V22.4831C101.862 20.2544 100.977 18.117 99.4008 16.5411C97.8249 14.9651 95.6874 14.0798 93.4587 14.0798H89.4571C87.2284 14.0798 85.091 14.9651 83.515 16.5411C81.9391 18.117 81.0537 20.2544 81.0537 22.4831V49.8221C81.0537 50.5311 80.7721 51.211 80.2708 51.7123C79.7695 52.2136 79.0896 52.4952 78.3807 52.4952C77.6717 52.4952 76.9918 52.2136 76.4905 51.7123C75.9892 51.211 75.7076 50.5311 75.7076 49.8221V22.4831C75.7076 20.2544 74.8222 18.117 73.2463 16.5411C71.6704 14.9651 69.5329 14.0798 67.3042 14.0798H63.3026C61.0739 14.0798 58.9365 14.9651 57.3605 16.5411C55.7846 18.117 54.8992 20.2544 54.8992 22.4831V49.8221C54.9014 50.1724 54.8342 50.5196 54.7016 50.8439C54.569 51.1681 54.3736 51.4629 54.1267 51.7113C53.8797 51.9597 53.5861 52.1569 53.2627 52.2914C52.9393 52.4259 52.5924 52.4952 52.2422 52.4952C51.5332 52.4952 50.8533 52.2136 50.352 51.7123C49.8507 51.211 49.5691 50.5311 49.5691 49.8221V22.4831C49.5691 20.2544 48.6837 18.117 47.1078 16.5411C45.5319 14.9651 43.3944 14.0798 41.1657 14.0798H37.1641C34.9354 14.0798 32.798 14.9651 31.222 16.5411C29.6461 18.117 28.7607 20.2544 28.7607 22.4831V106.517C28.7607 108.746 29.6461 110.883 31.222 112.459C32.798 114.035 34.9354 114.92 37.1641 114.92H119.597C121.826 114.92 123.963 114.035 125.539 112.459C127.115 110.883 128.001 108.746 128.001 106.517Z" fill="white"/>
</g>
<defs>
<clipPath id="clip0_56_259">
<rect width="128" height="128" fill="white"/>
</clipPath>
</defs>
</svg>
