<svg width="128" height="128" viewBox="0 0 128 128" fill="none" xmlns="http://www.w3.org/2000/svg">
<g clip-path="url(#clip0_56_264)">
<path d="M94.5256 35.974C108.847 46.1498 117.18 64.9661 110.857 82.0375C104.911 98.1318 88.286 108.196 71.5357 108.671C74.5427 107.608 77.244 105.826 79.4039 103.48C81.5639 101.134 83.1167 98.2942 83.927 95.2097C84.7373 92.1253 84.7804 88.8893 84.0525 85.7844C83.3246 82.6794 81.8479 79.7997 79.7513 77.3967C77.6546 74.9937 75.0017 73.1403 72.024 71.9983C69.0463 70.8563 65.8344 70.4604 62.6686 70.8452C59.5027 71.2299 56.4791 72.3836 53.8617 74.2056C51.2442 76.0275 49.1125 78.4624 47.6524 81.2977C40.6731 94.698 51.7004 108.056 63.7328 113.403C77.3704 119.489 93.1297 114.994 104.073 105.586C85.2291 131.437 47.0801 136.03 26.1421 110.234C11.9043 92.688 11.5693 66.9622 24.509 48.3832C21.3962 58.4474 23.811 68.6233 32.1862 74.2067C23.811 57.4563 29.3945 44.7679 40.7568 33.5312C46.2286 28.1152 53.194 26.0494 58.9031 21.3174C65.1845 16.1248 66.008 7.49831 64.8076 -0.0812378C69.7678 2.51524 73.8626 6.50264 76.59 11.3921C79.3174 16.2816 80.5588 21.8606 80.1621 27.4452C64.2911 27.515 58.4704 49.5976 72.4569 57.4563C86.0806 65.1615 101.896 49.8349 94.5256 35.974Z" fill="white"/>
</g>
<defs>
<clipPath id="clip0_56_264">
<rect width="128" height="128" fill="white"/>
</clipPath>
</defs>
</svg>
