<svg width="128" height="128" viewBox="0 0 128 128" fill="none" xmlns="http://www.w3.org/2000/svg">
<path d="M112.045 80.6725C105.581 91.6049 97.5046 96.3341 87.0942 97.5625C84.5607 97.8389 81.9658 97.5625 79.4169 97.9464C77.5897 98.1767 76.346 100.142 77.8814 101.017C85.3438 105.117 78.5878 107.052 76.5456 108.695C68.797 114.751 59.3394 118.216 49.5122 118.599C39.6851 118.982 29.9865 116.263 21.7901 110.828C13.5937 105.394 7.31481 97.5178 3.84278 88.3165C0.370754 79.1152 -0.11846 69.0547 2.44442 59.5599C4.91721 50.0676 10.3431 41.607 17.9385 35.3998C25.5339 29.1927 34.9056 25.5604 44.7002 25.0275C57.4445 24.4594 70.2502 24.5208 83.0866 24.874C99.5007 25.2732 114.533 22.2023 126.586 8.85913C128.813 12.5596 127.876 15.8148 127.339 18.8242C125.405 29.6103 119.782 39.3886 111.432 46.4841C103.081 53.5797 92.5232 57.5508 81.5665 57.7174C76.9602 57.8249 72.3538 57.7174 67.7474 57.8402C66.212 57.8402 64.4615 58.1934 64.4462 60.1434C64.4462 61.6789 65.9817 62.1088 67.2561 62.032C84.1461 61.1875 101.712 65.7785 117.066 54.754C118.187 53.9402 119.523 52.3433 120.982 53.9862C122.179 55.3221 121.304 56.8882 120.552 58.2241C113.734 70.4003 103.585 77.7397 89.5049 79.0142C85.4513 79.3827 81.3362 79.0142 77.2212 79.2445C74.8566 79.3673 70.8644 78.139 70.7416 81.3174C70.6034 84.9718 74.6723 83.4977 76.8834 83.467C88.0308 83.3442 99.255 84.8796 112.045 80.6725Z" fill="#FDFDFE"/>
</svg>
