<svg width="128" height="128" viewBox="0 0 128 128" fill="none" xmlns="http://www.w3.org/2000/svg">
<g clip-path="url(#clip0_56_272)">
<path d="M128.705 64.1299C128.705 8.33711 59.4884 -21.1114 19.2169 17.5996C-21.323 56.6629 6.56496 126.987 62.8444 128.699C92.209 128.699 105.7 126.232 126.473 120.913C120.197 118.344 114.395 114.742 109.308 110.258C115.455 104.252 120.338 97.0768 123.67 89.1548C127.001 81.2327 128.713 72.7239 128.705 64.1299ZM38.0942 69.1638C34.3707 69.1568 30.7738 67.8114 27.9597 65.3731C25.1456 62.9348 23.3018 59.5661 22.7647 55.8815C22.2276 52.197 23.0329 48.4421 25.0338 45.3019C27.0347 42.1617 30.0978 39.8454 33.6643 38.7756C33.5515 39.5313 33.4898 40.2937 33.4798 41.0577C33.4741 43.4763 34.035 45.8627 35.1174 48.0256C36.1999 50.1884 37.7739 52.0677 39.7133 53.5129C41.6527 54.9581 43.9036 55.929 46.2857 56.3478C48.6678 56.7666 51.1149 56.6216 53.4309 55.9246C52.8842 59.6025 51.0353 62.962 48.2207 65.3917C45.406 67.8215 41.8125 69.16 38.0942 69.1638ZM89.927 69.1638C86.2077 69.1635 82.6124 67.8262 79.797 65.3958C76.9816 62.9654 75.1336 59.604 74.5902 55.9246C76.9063 56.6216 79.3533 56.7666 81.7354 56.3478C84.1176 55.929 86.3685 54.9581 88.3079 53.5129C90.2473 52.0677 91.8213 50.1884 92.9037 48.0256C93.9862 45.8627 94.5471 43.4763 94.5414 41.0577C94.5313 40.2937 94.4697 39.5313 94.3568 38.7756C97.9234 39.8454 100.986 42.1617 102.987 45.3019C104.988 48.4421 105.794 52.197 105.256 55.8815C104.719 59.5661 102.876 62.9348 100.061 65.3731C97.2474 67.8114 93.6505 69.1568 89.927 69.1638Z" fill="white"/>
</g>
<defs>
<clipPath id="clip0_56_272">
<rect width="128" height="128" fill="white"/>
</clipPath>
</defs>
</svg>
