<svg width="128" height="128" viewBox="0 0 128 128" fill="none" xmlns="http://www.w3.org/2000/svg">
<g clip-path="url(#clip0_56_276)">
<path d="M121.737 1.59012C117.385 -2.23154 99.9951 1.95943 95.0494 2.55356C78.6554 4.34795 62.5039 7.91205 46.8772 13.1835C30.7395 18.8839 17.5725 27.1053 9.94523 43.0503C5.30061 53.0072 3.5008 64.0549 4.74489 74.9712C5.98899 85.8875 10.2285 96.2468 16.9944 104.903C20.511 101.162 25.553 97.3885 28.3309 93.0851C32.0402 87.3526 30.017 75.9037 30.2899 68.71C30.3702 66.5904 31.157 37.2536 32.5861 37.1572C34.3203 37.0448 38.8004 65.8357 40.4061 76.5621C40.4662 76.9036 40.6173 77.2227 40.8436 77.4855C41.0699 77.7483 41.3629 77.9452 41.6918 78.0554C42.0206 78.1655 42.3731 78.1849 42.7121 78.1114C43.051 78.038 43.3639 77.8744 43.6176 77.6379C47.4392 73.8591 51.2769 70.1124 55.1307 66.3977C57.7641 63.8446 59.0808 62.8491 59.7874 59.5252C60.4939 56.2013 59.964 51.6731 60.1888 48.1565C60.3173 46.0691 61.7945 19.6386 63.6893 19.5102C65.5841 19.3817 69.5503 40.1118 71.0275 47.8675C71.0987 48.1277 71.2343 48.3658 71.4217 48.5598C71.6092 48.7537 71.8425 48.8974 72.1001 48.9774C72.3578 49.0574 72.6314 49.0712 72.8958 49.0175C73.1601 48.9639 73.4067 48.8445 73.6128 48.6704C81.4167 41.1073 105.728 17.4709 106.868 18.5307C108.008 19.5904 87.8236 46.7274 81.3524 55.4627C81.207 55.6901 81.1212 55.9505 81.103 56.2199C81.0849 56.4893 81.135 56.7589 81.2486 57.0038C81.3623 57.2486 81.5358 57.4609 81.7532 57.621C81.9706 57.781 82.2249 57.8837 82.4925 57.9194C90.3767 58.353 111.396 59.7179 111.572 61.4521C111.749 63.1863 85.5274 68.3246 83.6326 68.6939C80.4211 69.3523 76.8403 69.5771 73.6288 70.4121C69.5181 71.4879 68.8116 72.4995 66.2264 76.0964C63.0149 80.3784 59.8034 84.6603 56.5919 88.9423C56.3758 89.2279 56.2428 89.5677 56.2076 89.9241C56.1724 90.2806 56.2365 90.6398 56.3927 90.9621C56.5488 91.2844 56.7911 91.5573 57.0926 91.7506C57.3941 91.9439 57.7432 92.0501 58.1013 92.0574C68.9561 92.2341 98.0682 92.8924 98.2448 94.6266C98.3251 96.0718 69.3415 100.696 67.2541 101.05C60.6224 102.19 49.4143 101.74 44.0993 105.241C40.0047 107.938 36.2312 115.164 33.116 118.986C42.2755 124.391 52.7166 127.242 63.3521 127.242C73.9876 127.242 84.4287 124.391 93.5882 118.986C109.003 109.785 116.069 95.7988 119.826 78.8422C123.208 62.4033 124.716 45.6341 124.322 28.8556C124.322 22.7538 124.097 16.6359 123.487 10.5662C123.246 8.52691 123.455 3.09951 121.737 1.59012Z" fill="white"/>
</g>
<defs>
<clipPath id="clip0_56_276">
<rect width="128" height="128" fill="white"/>
</clipPath>
</defs>
</svg>
