<svg width="128" height="128" viewBox="0 0 128 128" fill="none" xmlns="http://www.w3.org/2000/svg">
<path d="M59.0198 64.2812L29.1963 81.0839L0.439941 63.93L28.8046 47.519L59.0198 64.2812ZM99.3651 46.7761L69.4742 63.5788L99.6353 80.395L128 63.984L99.3651 46.7761ZM60.8027 25.0434L32.438 8.64587L31.8302 42.1432L61.3295 59.5807L60.8027 25.0434ZM96.6637 85.7168L67.1645 68.2792L67.6912 102.817L96.0559 119.214L96.6637 85.7168ZM96.2045 41.5084V8.6864L66.9484 25.0028L66.5837 59.2296L96.2045 41.5084ZM61.5456 102.857L61.9103 68.6304L32.2894 86.3516V119.174L61.5456 102.857Z" fill="white"/>
</svg>
