<svg width="128" height="128" viewBox="0 0 128 128" fill="none" xmlns="http://www.w3.org/2000/svg">
<g clip-path="url(#clip0_56_289)">
<path d="M64 128C51.342 128 38.9683 124.246 28.4435 117.214C17.9188 110.182 9.71575 100.186 4.87174 88.4918C0.0277302 76.7973 -1.23968 63.929 1.22977 51.5142C3.69922 39.0995 9.79463 27.6958 18.7452 18.7452C27.6958 9.79463 39.0995 3.69922 51.5142 1.22977C63.929 -1.23968 76.7973 0.0277302 88.4918 4.87174C100.186 9.71575 110.182 17.9188 117.214 28.4435C124.246 38.9683 128 51.342 128 64C128 80.9739 121.257 97.2525 109.255 109.255C97.2525 121.257 80.9739 128 64 128ZM64 25.6C56.4052 25.6 48.981 27.8521 42.6661 32.0716C36.3513 36.291 31.4295 42.2883 28.5231 49.305C25.6166 56.3217 24.8562 64.0426 26.3379 71.4915C27.8195 78.9404 31.4768 85.7826 36.8471 91.1529C42.2175 96.5233 49.0597 100.181 56.5086 101.662C63.9574 103.144 71.6784 102.383 78.6951 99.477C85.7118 96.5706 91.709 91.6488 95.9285 85.3339C100.148 79.0191 102.4 71.5948 102.4 64C102.4 53.8157 98.3543 44.0485 91.1529 36.8471C83.9515 29.6457 74.1843 25.6 64 25.6Z" fill="white"/>
</g>
<defs>
<clipPath id="clip0_56_289">
<rect width="128" height="128" fill="white"/>
</clipPath>
</defs>
</svg>
