<svg width="128" height="128" viewBox="0 0 128 128" fill="none" xmlns="http://www.w3.org/2000/svg">
<g clip-path="url(#clip0_56_293)">
<path d="M128 55.129C128 25.6729 99.3442 1.8009 64.0001 1.8009C28.656 1.8009 0 25.6729 0 55.129C0 71.129 8.52801 85.529 22 95.3531C20.1418 98.7114 19.1776 102.491 19.2 106.329C19.2 116.937 26.128 125.529 34.6721 125.529C41.3281 125.529 46.9921 120.297 49.1841 112.985C51.0881 120.233 56.9921 125.529 64.0001 125.529C71.0081 125.529 76.9121 120.233 78.8161 112.985C81.0081 120.297 86.6721 125.529 93.3282 125.529C101.872 125.529 108.8 116.937 108.8 106.329C108.823 102.491 107.858 98.7114 106 95.3531C119.472 85.529 128 71.129 128 55.129ZM64.0001 87.657C40.5761 87.657 20.8 72.729 20.8 55.129C20.8 37.529 40.5761 22.6009 64.0001 22.6009C87.4241 22.6009 107.2 37.529 107.2 55.129C107.2 72.729 87.4241 87.657 64.0001 87.657Z" fill="white"/>
</g>
<defs>
<clipPath id="clip0_56_293">
<rect width="128" height="128" fill="white"/>
</clipPath>
</defs>
</svg>
