<svg width="128" height="128" viewBox="0 0 128 128" fill="none" xmlns="http://www.w3.org/2000/svg">
<g clip-path="url(#clip0_56_297)">
<path d="M100.468 120.219C69.3841 136.85 26.9999 129.181 8.59743 97.5476C-8.22871 68.6598 0.928259 28.0645 29.0899 9.76826C57.2515 -8.52795 98.3427 -0.274287 117.826 26.559C140.55 57.8379 123.529 104.739 83.4472 108.476C66.5856 110.034 48.0237 102.223 39.8763 86.6903C32.6145 72.698 36.1037 52.365 49.3698 43.1194C62.6359 33.8739 84.1025 35.5742 90.833 51.993C93.6846 58.9714 92.6041 68.4826 87.1844 74.0087C82.6147 78.5606 71.9877 80.3318 67.0461 75.0183C65.2749 73.07 63.3444 69.4391 66.7804 68.0576C68.1265 67.5262 71.5626 69.8287 73.1744 69.8287C80.5956 69.7225 82.9513 60.3529 79.1432 54.8446C74.5205 48.185 64.3008 48.6809 58.4914 53.1974C51.4067 58.7235 50.5211 67.8804 53.5852 75.8684C59.5364 91.2953 78.8953 94.7845 92.0905 85.9641C104.914 77.3739 106.862 56.7398 100.362 43.6862C91.506 25.7797 67.0284 20.5193 49.3698 26.9132C31.7112 33.3071 21.4561 50.4344 21.0311 68.6775C20.8866 76.8325 22.6917 84.9041 26.2961 92.2207C29.9005 99.5374 35.2 105.888 41.7538 110.743C59.005 123.354 80.3831 120.219 100.468 120.219Z" fill="#FEF5F5"/>
</g>
<defs>
<clipPath id="clip0_56_297">
<rect width="128" height="128" fill="white"/>
</clipPath>
</defs>
</svg>
