<svg width="128" height="128" viewBox="0 0 128 128" fill="none" xmlns="http://www.w3.org/2000/svg">
<g clip-path="url(#clip0_56_305)">
<path d="M93.1552 63.67C93.1552 69.5352 91.4159 75.2687 88.1574 80.1455C84.8988 85.0223 80.2673 88.8232 74.8485 91.0678C69.4298 93.3123 63.4671 93.8996 57.7146 92.7553C51.962 91.6111 46.678 88.7867 42.5306 84.6393C38.3833 80.492 35.5589 75.208 34.4146 69.4554C33.2704 63.7029 33.8577 57.7402 36.1022 52.3214C38.3467 46.9027 42.1477 42.2712 47.0245 39.0126C51.9012 35.754 57.6348 34.0148 63.5 34.0148C71.365 34.0148 78.908 37.1392 84.4694 42.7006C90.0308 48.262 93.1552 55.8049 93.1552 63.67ZM95.75 7.81445H31.25L-1 63.67L31.25 119.525H95.75L128 63.67L95.75 7.81445Z" fill="white"/>
</g>
<defs>
<clipPath id="clip0_56_305">
<rect width="128" height="128" fill="white"/>
</clipPath>
</defs>
</svg>
