<svg width="128" height="128" viewBox="0 0 128 128" fill="none" xmlns="http://www.w3.org/2000/svg">
<path d="M110.329 81.8007C110.329 94.0443 105.466 105.787 96.8082 114.444C88.1506 123.102 76.4084 127.965 64.1647 127.965C51.9211 127.965 40.1789 123.102 31.5213 114.444C22.8638 105.787 18 94.0443 18 81.8007C18 56.3048 55.2558 0 64.1647 0C73.0737 0 110.329 56.3048 110.329 81.8007ZM69.8341 97.1889C63.3901 97.1889 57.21 94.6291 52.6534 90.0725C48.0967 85.5158 45.5369 79.3357 45.5369 72.8917C45.5343 69.741 46.1507 66.6204 47.3511 63.7074C43.3785 66.3355 40.1557 69.9492 37.9973 74.1954C35.839 78.4416 34.8189 83.175 35.0369 87.9332C35.2549 92.6915 36.7034 97.3118 39.2409 101.343C41.7784 105.374 45.3182 108.678 49.5144 110.932C53.7106 113.186 58.4197 114.313 63.1816 114.203C67.9436 114.092 72.5956 112.749 76.6831 110.303C80.7706 107.858 84.1538 104.394 86.5022 100.25C88.8507 96.1057 90.084 91.4234 90.0818 86.6601C90.0818 86.5468 90.0818 86.4496 90.0818 86.3362C87.8639 89.6749 84.8544 92.4131 81.3216 94.3067C77.7888 96.2003 73.8424 97.1904 69.8341 97.1889Z" fill="white"/>
</svg>
