<svg width="1728" height="345" viewBox="0 0 1728 345" fill="none" xmlns="http://www.w3.org/2000/svg">
<path opacity="0.1" fill-rule="evenodd" clip-rule="evenodd" d="M0 336.28V201.122C231.601 273.301 527.871 319.401 853.411 326.707L861.91 335.285C863.076 336.461 864.967 336.461 866.133 335.285L874.222 327.121C897.58 327.525 921.084 327.729 944.721 327.729C1233.49 327.729 1502.44 297.242 1728 244.739V336.28H0Z" fill="black"/>
<path opacity="0.2" fill-rule="evenodd" clip-rule="evenodd" d="M0 336.28V215.292C231.841 279.97 528.486 321.257 854.426 327.731L861.91 335.285C863.076 336.462 864.967 336.462 866.133 335.285L873.285 328.066C896.952 328.438 920.768 328.625 944.721 328.625C1233.49 328.625 1502.44 301.335 1728 254.336V336.28H0Z" fill="black"/>
<path fill-rule="evenodd" clip-rule="evenodd" d="M0 345L0.00123596 233.822C232.155 288.668 529.287 323.652 855.745 329.063L861.91 335.285C863.076 336.462 864.967 336.462 866.133 335.285L872.055 329.308C896.127 329.633 920.354 329.798 944.722 329.798C1233.49 329.798 1502.44 306.687 1728 266.886L1728 345H0Z" fill="black"/>
<g opacity="0.2">
<path d="M21.7143 150.378H41.6429L50 177.218L37.1429 176.563L44.8571 198.821L14 166.416H28.7857L21.7143 150.378Z" fill="black"/>
<path d="M83.8571 188.729H93.8214L98 202.149L91.5714 201.822L95.4286 212.951L80 196.748H87.3929L83.8571 188.729Z" fill="black"/>
<path d="M82.7143 131.202H94.8929L100 147.977L92.1429 147.568L96.8571 161.479L78 141.226H87.0357L82.7143 131.202Z" fill="black"/>
<path d="M1690 169.553H1705.5L1712 190.802L1702 190.284L1708 207.905L1684 182.251H1695.5L1690 169.553Z" fill="black"/>
<path d="M1623.29 217.997H1634.36L1639 233.654L1631.86 233.272L1636.14 246.256L1619 227.353H1627.21L1623.29 217.997Z" fill="black"/>
<path d="M1585.57 234.145H1592.21L1595 244.21L1590.71 243.965L1593.29 252.311L1583 240.159H1587.93L1585.57 234.145Z" fill="black"/>
<path d="M1624.86 141.294H1634.82L1639 156.951L1632.57 156.569L1636.43 169.553L1621 150.65H1628.39L1624.86 141.294Z" fill="black"/>
<path d="M1678 128.174H1685.75L1689 140.476L1684 140.176L1687 150.378L1675 135.525H1680.75L1678 128.174Z" fill="black"/>
<path d="M1651.57 87.8043H1658.21L1661 98.9879L1656.71 98.7151L1659.29 107.989L1649 94.4872H1653.93L1651.57 87.8043Z" fill="black"/>
<path d="M1695.71 58.5362H1700.14L1702 66.3647L1699.14 66.1737L1700.86 72.6657L1694 63.2142H1697.29L1695.71 58.5362Z" fill="black"/>
<path d="M39 113.035H46.75L50 124.219L45 123.946L48 133.22L36 119.718H41.75L39 113.035Z" fill="black"/>
<path d="M35.5714 55.5085H42.2143L45 65.5737L40.7143 65.3282L43.2857 73.6749L33 61.523H37.9286L35.5714 55.5085Z" fill="black"/>
<path d="M36.7143 0H48.8929L54 17.8936L46.1429 17.4572L50.8571 32.2958L32 10.6925H41.0357L36.7143 0Z" fill="black"/>
</g>
</svg>
