<svg width="1728" height="345" viewBox="0 0 1728 345" fill="none" xmlns="http://www.w3.org/2000/svg">
<path opacity="0.1" fill-rule="evenodd" clip-rule="evenodd" d="M0 337.133V202.035C231.601 274.182 527.871 320.262 853.411 327.565L861.91 336.138C863.076 337.315 864.967 337.315 866.134 336.138L874.222 327.978C897.58 328.382 921.084 328.586 944.721 328.586C1233.49 328.586 1502.44 298.113 1728 245.632V337.133H0Z" fill="black"/>
<path opacity="0.2" fill-rule="evenodd" clip-rule="evenodd" d="M0 337.134V216.199C231.841 280.849 528.486 322.117 854.426 328.588L861.91 336.138C863.076 337.315 864.967 337.315 866.134 336.138L873.285 328.923C896.952 329.294 920.768 329.482 944.721 329.482C1233.49 329.482 1502.44 302.204 1728 255.225V337.134H0Z" fill="black"/>
<path fill-rule="evenodd" clip-rule="evenodd" d="M0 345.85L0.00123596 234.72C232.155 289.543 529.287 324.511 855.745 329.919L861.91 336.138C863.076 337.315 864.967 337.315 866.134 336.138L872.055 330.164C896.127 330.489 920.354 330.654 944.722 330.654C1233.49 330.654 1502.44 307.553 1728 267.77L1728 345.85H0Z" fill="black"/>
<g opacity="0.2">
<path d="M10.6904 179.883L13.138 185.903C13.3176 186.348 13.6449 186.715 14.0638 186.943C14.4826 187.171 14.967 187.245 15.4339 187.152C15.9008 187.059 16.3212 186.806 16.6231 186.435C16.9249 186.063 17.0895 185.598 17.0885 185.118V167.596C17.0895 167.116 16.9249 166.651 16.6231 166.28C16.3212 165.909 15.9008 165.655 15.4339 165.562C14.967 165.469 14.4826 165.543 14.0638 165.771C13.6449 165.999 13.3176 166.367 13.138 166.811L10.6904 172.831C9.76988 175.09 9.76988 177.624 10.6904 179.883Z" fill="black"/>
<path d="M49.153 184.876V158.949C49.153 158.262 48.8822 157.602 48.4002 157.116C47.9182 156.63 47.2645 156.357 46.5829 156.357H45.3591C44.6775 156.357 44.0238 156.63 43.5418 157.116C43.0598 157.602 42.789 158.262 42.789 158.949V167.384C42.789 167.603 42.7029 167.813 42.5496 167.967C42.3963 168.122 42.1883 168.209 41.9715 168.209C41.8644 168.209 41.7583 168.187 41.6594 168.146C41.5605 168.104 41.4707 168.044 41.3952 167.967C41.3197 167.89 41.2599 167.799 41.2193 167.699C41.1788 167.599 41.1583 167.492 41.1589 167.384V158.949C41.1589 158.262 40.8881 157.602 40.4062 157.116C39.9242 156.63 39.2705 156.357 38.5889 156.357H37.365C36.6834 156.357 36.0297 156.63 35.5477 157.116C35.0658 157.602 34.795 158.262 34.795 158.949V167.384C34.795 167.603 34.7089 167.813 34.5555 167.967C34.4022 168.122 34.1943 168.209 33.9775 168.209C33.7607 168.209 33.5527 168.122 33.3994 167.967C33.2461 167.813 33.16 167.603 33.16 167.384V158.949C33.16 158.262 32.8892 157.602 32.4072 157.116C31.9252 156.63 31.2715 156.357 30.5899 156.357H29.3661C28.6845 156.357 28.0308 156.63 27.5488 157.116C27.0668 157.602 26.796 158.262 26.796 158.949V167.384C26.7967 167.492 26.7761 167.599 26.7356 167.699C26.6951 167.799 26.6353 167.89 26.5598 167.967C26.4842 168.044 26.3944 168.104 26.2955 168.146C26.1966 168.187 26.0906 168.209 25.9834 168.209C25.7666 168.209 25.5587 168.122 25.4054 167.967C25.252 167.813 25.1659 167.603 25.1659 167.384V158.949C25.1659 158.262 24.8951 157.602 24.4132 157.116C23.9312 156.63 23.2775 156.357 22.5959 156.357H21.372C20.6904 156.357 20.0367 156.63 19.5547 157.116C19.0728 157.602 18.802 158.262 18.802 158.949V184.876C18.802 185.564 19.0728 186.223 19.5547 186.709C20.0367 187.195 20.6904 187.469 21.372 187.469H46.5829C47.2645 187.469 47.9182 187.195 48.4002 186.709C48.8822 186.223 49.153 185.564 49.153 184.876Z" fill="black"/>
<path d="M81.3755 200.282L81.4964 203.079C81.5049 203.285 81.5842 203.482 81.7209 203.636C81.8575 203.79 82.0429 203.891 82.2453 203.922C82.4478 203.953 82.6546 203.912 82.8305 203.807C83.0063 203.701 83.1402 203.537 83.2092 203.342L85.7414 196.249C85.8112 196.055 85.8118 195.842 85.7432 195.647C85.6747 195.453 85.5412 195.288 85.3655 195.182C85.1899 195.076 84.9832 195.034 84.7807 195.065C84.5782 195.096 84.3925 195.196 84.2556 195.35L82.3947 197.427C81.6956 198.206 81.3293 199.232 81.3755 200.282Z" fill="black"/>
<path d="M96.2249 207.96L99.9718 197.464C100.071 197.186 100.057 196.879 99.932 196.611C99.8072 196.343 99.582 196.137 99.3061 196.036L98.8106 195.856C98.5347 195.756 98.2306 195.771 97.9652 195.896C97.6998 196.022 97.4949 196.25 97.3955 196.528L96.1765 199.943C96.1449 200.031 96.0797 200.103 95.9953 200.144C95.9109 200.184 95.8141 200.188 95.7263 200.156C95.683 200.141 95.6431 200.116 95.6091 200.085C95.575 200.054 95.5475 200.016 95.528 199.974C95.5085 199.931 95.4974 199.886 95.4955 199.839C95.4935 199.793 95.5007 199.747 95.5165 199.703L96.7355 196.288C96.8349 196.01 96.8206 195.703 96.6958 195.435C96.5709 195.168 96.3457 194.961 96.0698 194.861L95.5743 194.681C95.2984 194.58 94.9943 194.595 94.7289 194.721C94.4635 194.847 94.2586 195.074 94.1592 195.352L92.9402 198.767C92.9086 198.855 92.8434 198.928 92.759 198.968C92.6746 199.008 92.5778 199.012 92.4901 198.981C92.4023 198.949 92.3307 198.883 92.2909 198.798C92.2512 198.713 92.2467 198.615 92.2783 198.526L93.4973 195.112C93.5967 194.833 93.5823 194.527 93.4575 194.259C93.3326 193.991 93.1075 193.784 92.8315 193.684L92.3361 193.504C92.0601 193.404 91.756 193.418 91.4906 193.544C91.2252 193.67 91.0203 193.897 90.921 194.176L89.7019 197.59C89.6866 197.634 89.6628 197.675 89.6319 197.709C89.601 197.744 89.5637 197.772 89.5221 197.792C89.4804 197.812 89.4353 197.823 89.3892 197.825C89.3432 197.828 89.2971 197.821 89.2538 197.805C89.166 197.773 89.0944 197.707 89.0547 197.622C89.0149 197.537 89.0104 197.439 89.042 197.351L90.261 193.936C90.3604 193.658 90.3461 193.351 90.2212 193.083C90.0964 192.815 89.8712 192.609 89.5953 192.508L89.0998 192.328C88.8239 192.228 88.5197 192.243 88.2544 192.369C87.989 192.495 87.784 192.722 87.6847 193L83.9377 203.496C83.8384 203.774 83.8527 204.081 83.9775 204.349C84.1024 204.617 84.3275 204.823 84.6035 204.924L94.8098 208.632C95.0857 208.732 95.3898 208.717 95.6552 208.591C95.9206 208.465 96.1255 208.238 96.2249 207.96Z" fill="black"/>
<path d="M79.0299 154.594L81.3518 157.63C81.5226 157.855 81.7654 158.012 82.0387 158.076C82.312 158.14 82.5987 158.105 82.8497 157.979C83.1007 157.853 83.3004 157.643 83.4145 157.384C83.5287 157.126 83.5503 156.835 83.4755 156.563L80.7663 146.605C80.6927 146.332 80.5272 146.093 80.2982 145.93C80.0693 145.766 79.7912 145.688 79.5115 145.709C79.2318 145.73 78.9679 145.848 78.7651 146.044C78.5623 146.239 78.4332 146.499 78.3998 146.78L77.9396 150.587C77.7657 152.015 78.1575 153.455 79.0299 154.594Z" fill="black"/>
<path d="M101.661 151.38L97.6522 136.645C97.5459 136.255 97.29 135.922 96.9409 135.722C96.5918 135.521 96.1781 135.469 95.7907 135.576L95.0952 135.769C94.7078 135.876 94.3786 136.134 94.1798 136.486C93.9811 136.839 93.9292 137.256 94.0355 137.647L95.3397 142.44C95.3735 142.565 95.357 142.697 95.2938 142.809C95.2305 142.921 95.1258 143.003 95.0026 143.038C94.9417 143.054 94.8781 143.059 94.8155 143.051C94.7529 143.043 94.6924 143.023 94.6376 142.991C94.5829 142.959 94.5348 142.917 94.4963 142.866C94.4578 142.816 94.4296 142.758 94.4132 142.697L93.1091 137.903C93.0027 137.512 92.7469 137.18 92.3978 136.98C92.0487 136.779 91.635 136.727 91.2476 136.834L90.5521 137.027C90.1647 137.134 89.8354 137.392 89.6367 137.744C89.438 138.096 89.3861 138.514 89.4924 138.905L90.7965 143.698C90.8304 143.822 90.8138 143.955 90.7506 144.067C90.6874 144.179 90.5827 144.261 90.4595 144.296C90.3362 144.33 90.2046 144.313 90.0936 144.249C89.9825 144.185 89.9012 144.08 89.8673 143.955L88.5632 139.162C88.4568 138.771 88.201 138.439 87.8519 138.238C87.5028 138.038 87.0891 137.986 86.7017 138.093L86.0062 138.285C85.6188 138.393 85.2895 138.651 85.0908 139.003C84.8921 139.355 84.8402 139.772 84.9465 140.163L86.2506 144.957C86.2677 145.018 86.2726 145.082 86.265 145.145C86.2575 145.209 86.2376 145.27 86.2065 145.325C86.1754 145.381 86.1338 145.429 86.084 145.469C86.0342 145.508 85.9772 145.537 85.9163 145.553C85.7931 145.587 85.6615 145.571 85.5505 145.507C85.4394 145.443 85.358 145.338 85.3242 145.213L84.0201 140.42C83.9137 140.029 83.6579 139.697 83.3088 139.496C82.9597 139.296 82.546 139.243 82.1586 139.351L81.4631 139.543C81.0757 139.651 80.7464 139.909 80.5477 140.261C80.349 140.613 80.297 141.03 80.4034 141.421L84.4121 156.156C84.5184 156.546 84.7743 156.878 85.1233 157.079C85.4724 157.279 85.8862 157.332 86.2735 157.225L100.601 153.258C100.989 153.15 101.318 152.892 101.517 152.54C101.715 152.188 101.767 151.771 101.661 151.38Z" fill="black"/>
<path d="M34.5381 123.789L35.2104 126.367C35.2596 126.557 35.3728 126.724 35.5307 126.84C35.6886 126.955 35.8813 127.011 36.0759 126.999C36.2704 126.987 36.4547 126.906 36.5971 126.772C36.7395 126.638 36.8312 126.458 36.8564 126.263L37.7925 119.148C37.8185 118.953 37.7766 118.755 37.6738 118.588C37.5711 118.421 37.4139 118.295 37.2293 118.232C37.0447 118.169 36.844 118.173 36.6618 118.243C36.4796 118.312 36.327 118.444 36.2303 118.615L34.9148 120.926C34.4204 121.793 34.285 122.822 34.5381 123.789Z" fill="black"/>
<path d="M49.8894 127.908L51.2745 117.38C51.3112 117.101 51.2365 116.819 51.0668 116.595C50.897 116.372 50.6462 116.225 50.3694 116.188L49.8725 116.121C49.5957 116.084 49.3157 116.16 49.094 116.331C48.8723 116.502 48.7271 116.755 48.6904 117.034L48.2398 120.459C48.2281 120.548 48.1819 120.629 48.1114 120.683C48.0409 120.738 47.9518 120.762 47.8638 120.75C47.8203 120.744 47.7784 120.73 47.7404 120.707C47.7025 120.685 47.6692 120.656 47.6427 120.62C47.6161 120.585 47.5967 120.545 47.5856 120.502C47.5745 120.459 47.5718 120.415 47.5779 120.371L48.0285 116.946C48.0652 116.667 47.9905 116.384 47.8208 116.161C47.6511 115.937 47.4002 115.79 47.1234 115.753L46.6265 115.687C46.3497 115.65 46.0697 115.725 45.848 115.896C45.6263 116.068 45.4812 116.321 45.4444 116.6L44.9938 120.025C44.9821 120.114 44.936 120.194 44.8654 120.249C44.7949 120.303 44.7058 120.327 44.6178 120.315C44.5298 120.303 44.45 120.257 44.396 120.186C44.342 120.115 44.3182 120.025 44.3299 119.936L44.7805 116.511C44.8173 116.232 44.7425 115.949 44.5728 115.726C44.4031 115.502 44.1522 115.356 43.8755 115.318L43.3785 115.252C43.1018 115.215 42.8217 115.29 42.6001 115.461C42.3784 115.633 42.2332 115.886 42.1965 116.165L41.7458 119.59C41.7403 119.634 41.7263 119.676 41.7045 119.715C41.6827 119.753 41.6535 119.787 41.6188 119.814C41.584 119.841 41.5443 119.861 41.5019 119.872C41.4595 119.884 41.4153 119.886 41.3718 119.881C41.2838 119.869 41.204 119.822 41.15 119.751C41.096 119.68 41.0722 119.59 41.0839 119.501L41.5345 116.076C41.5713 115.797 41.4966 115.515 41.3268 115.291C41.1571 115.067 40.9063 114.921 40.6295 114.884L40.1326 114.817C39.8558 114.78 39.5758 114.856 39.3541 115.027C39.1324 115.198 38.9872 115.451 38.9505 115.73L37.5654 126.258C37.5287 126.537 37.6034 126.82 37.7731 127.043C37.9428 127.267 38.1937 127.413 38.4704 127.45L48.7073 128.821C48.9841 128.858 49.2641 128.783 49.4858 128.611C49.7075 128.44 49.8526 128.187 49.8894 127.908Z" fill="black"/>
<path d="M69.8441 101.862L71.609 104.715C71.7387 104.925 71.9371 105.084 72.1701 105.163C72.4031 105.243 72.6562 105.238 72.8861 105.15C73.116 105.062 73.3083 104.896 73.4302 104.68C73.552 104.465 73.5958 104.213 73.554 103.969L72.0466 95.0423C72.0057 94.7977 71.8819 94.5749 71.6961 94.4123C71.5104 94.2496 71.2744 94.1572 71.0286 94.1508C70.7827 94.1444 70.5423 94.2245 70.3485 94.3772C70.1548 94.53 70.0197 94.746 69.9664 94.9882L69.2374 98.2694C68.9628 99.5008 69.1808 100.792 69.8441 101.862Z" fill="black"/>
<path d="M89.8693 101.038L87.6387 87.8295C87.5796 87.4792 87.3849 87.1669 87.0975 86.9614C86.8101 86.7559 86.4536 86.674 86.1063 86.7337L85.4828 86.8408C85.1356 86.9005 84.8261 87.0969 84.6224 87.3868C84.4186 87.6767 84.3374 88.0364 84.3966 88.3867L85.1223 92.6838C85.1411 92.7953 85.1153 92.9097 85.0505 93.0019C84.9857 93.0941 84.8872 93.1566 84.7768 93.1756C84.7222 93.1849 84.6663 93.1833 84.6123 93.1709C84.5584 93.1584 84.5074 93.1353 84.4623 93.1028C84.4173 93.0704 84.379 93.0293 84.3497 92.9819C84.3205 92.9345 84.3008 92.8817 84.2918 92.8266L83.5661 88.5294C83.5069 88.1791 83.3123 87.8669 83.0249 87.6614C82.7375 87.4558 82.381 87.3739 82.0337 87.4336L81.4102 87.5408C81.063 87.6004 80.7535 87.7968 80.5497 88.0867C80.346 88.3766 80.2648 88.7363 80.324 89.0866L81.0497 93.3838C81.0685 93.4952 81.0427 93.6096 80.9779 93.7018C80.9131 93.794 80.8146 93.8565 80.7041 93.8755C80.5937 93.8945 80.4803 93.8684 80.3889 93.8031C80.2974 93.7377 80.2355 93.6384 80.2167 93.5269L79.491 89.2298C79.4318 88.8795 79.2372 88.5672 78.9498 88.3617C78.6624 88.1562 78.3059 88.0743 77.9586 88.134L77.3351 88.2411C76.9879 88.3008 76.6784 88.4972 76.4746 88.7871C76.2709 89.077 76.1897 89.4367 76.2489 89.787L76.9746 94.0841C76.9842 94.1391 76.983 94.1955 76.9709 94.25C76.9588 94.3045 76.9362 94.3561 76.9044 94.4018C76.8725 94.4474 76.832 94.4863 76.7851 94.5161C76.7383 94.5459 76.6861 94.5661 76.6315 94.5754C76.5211 94.5944 76.4077 94.5684 76.3163 94.503C76.2248 94.4376 76.1629 94.3383 76.1441 94.2269L75.4184 89.9297C75.3592 89.5794 75.1646 89.2672 74.8772 89.0616C74.5898 88.8561 74.2333 88.7742 73.886 88.8339L73.2625 88.9411C72.9153 89.0007 72.6058 89.1971 72.402 89.487C72.1983 89.7769 72.1171 90.1366 72.1763 90.4869L74.4069 103.695C74.4661 104.046 74.6607 104.358 74.9481 104.563C75.2355 104.769 75.592 104.851 75.9393 104.791L88.7831 102.584C89.1303 102.524 89.4399 102.328 89.6436 102.038C89.8473 101.748 89.9285 101.388 89.8693 101.038Z" fill="black"/>
<path d="M32.5355 67.8007L33.6763 69.6447C33.7602 69.7809 33.8884 69.8835 34.039 69.9348C34.1897 69.9862 34.3533 69.9831 34.5019 69.9261C34.6505 69.8691 34.7748 69.7618 34.8536 69.6225C34.9324 69.4832 34.9607 69.3206 34.9336 69.1625L33.9592 63.3923C33.9328 63.2342 33.8527 63.0902 33.7327 62.9851C33.6126 62.8799 33.4601 62.8202 33.3011 62.816C33.1422 62.8119 32.9868 62.8636 32.8615 62.9624C32.7363 63.0611 32.649 63.2008 32.6145 63.3573L32.1433 65.4784C31.9658 66.2744 32.1067 67.1089 32.5355 67.8007Z" fill="black"/>
<path d="M45.4802 67.268L44.0382 58.7298C44 58.5033 43.8742 58.3015 43.6884 58.1687C43.5026 58.0358 43.2722 57.9829 43.0477 58.0214L42.6447 58.0907C42.4202 58.1293 42.2201 58.2562 42.0884 58.4436C41.9567 58.631 41.9042 58.8635 41.9425 59.09L42.4116 61.8677C42.4237 61.9398 42.407 62.0137 42.3652 62.0733C42.3233 62.1329 42.2596 62.1733 42.1882 62.1856C42.1529 62.1917 42.1168 62.1906 42.0819 62.1826C42.0471 62.1745 42.0141 62.1595 41.985 62.1386C41.9558 62.1176 41.9311 62.091 41.9122 62.0604C41.8933 62.0297 41.8805 61.9956 41.8747 61.96L41.4056 59.1822C41.3674 58.9558 41.2415 58.7539 41.0558 58.6211C40.87 58.4883 40.6395 58.4353 40.4151 58.4739L40.012 58.5431C39.7876 58.5817 39.5875 58.7087 39.4558 58.8961C39.3241 59.0835 39.2716 59.316 39.3099 59.5424L39.779 62.3202C39.7911 62.3922 39.7744 62.4662 39.7325 62.5258C39.6907 62.5854 39.627 62.6258 39.5556 62.6381C39.4842 62.6503 39.4109 62.6335 39.3518 62.5912C39.2927 62.549 39.2527 62.4848 39.2405 62.4127L38.7714 59.635C38.7332 59.4085 38.6073 59.2067 38.4216 59.0738C38.2358 58.941 38.0053 58.888 37.7808 58.9266L37.3778 58.9959C37.1533 59.0345 36.9533 59.1614 36.8216 59.3488C36.6899 59.5362 36.6374 59.7687 36.6756 59.9952L37.1447 62.7729C37.151 62.8085 37.1501 62.8449 37.1424 62.8802C37.1346 62.9154 37.1199 62.9487 37.0993 62.9782C37.0787 63.0078 37.0525 63.0329 37.0223 63.0521C36.992 63.0714 36.9583 63.0844 36.923 63.0905C36.8516 63.1028 36.7783 63.0859 36.7192 63.0437C36.6601 63.0014 36.6201 62.9372 36.6079 62.8652L36.1388 60.0874C36.1005 59.861 35.9747 59.6591 35.7889 59.5263C35.6032 59.3934 35.3727 59.3405 35.1482 59.3791L34.7452 59.4483C34.5207 59.4869 34.3206 59.6139 34.189 59.8013C34.0573 59.9887 34.0048 60.2212 34.043 60.4476L35.4849 68.9858C35.5232 69.2123 35.649 69.4141 35.8348 69.5469C36.0206 69.6798 36.251 69.7327 36.4755 69.6942L44.778 68.2673C45.0025 68.2287 45.2025 68.1017 45.3342 67.9143C45.4659 67.7269 45.5184 67.4944 45.4802 67.268Z" fill="black"/>
<path d="M28.0156 15.2634L29.1472 19.3443C29.23 19.6456 29.4141 19.9085 29.668 20.0879C29.9218 20.2672 30.2296 20.352 30.5385 20.3276C30.8475 20.3033 31.1385 20.1713 31.3616 19.9542C31.5847 19.7372 31.7261 19.4487 31.7615 19.1381L33.0763 7.80422C33.113 7.49376 33.0415 7.1801 32.874 6.91698C32.7066 6.65386 32.4537 6.45766 32.1587 6.36197C31.8636 6.26628 31.5448 6.27707 31.2567 6.39249C30.9687 6.50791 30.7294 6.72077 30.5798 6.99461L28.5448 10.7017C27.7799 12.0927 27.5897 13.7319 28.0156 15.2634Z" fill="black"/>
<path d="M52.521 21.4305L54.4665 4.65963C54.5181 4.21484 54.3924 3.76759 54.1171 3.41627C53.8419 3.06495 53.4395 2.83834 52.9986 2.78628L52.207 2.69282C51.766 2.64077 51.3227 2.76754 50.9744 3.04525C50.6262 3.32295 50.4015 3.72885 50.3499 4.17364L49.717 9.62975C49.7006 9.77123 49.6291 9.90035 49.5184 9.98868C49.4076 10.077 49.2665 10.1173 49.1263 10.1008C49.057 10.0926 48.99 10.0707 48.9291 10.0363C48.8683 10.0019 48.8147 9.95568 48.7716 9.90033C48.7285 9.84498 48.6967 9.78159 48.678 9.71378C48.6593 9.64598 48.654 9.57511 48.6625 9.50526L49.2955 4.04915C49.3471 3.60436 49.2214 3.15711 48.9461 2.80579C48.6708 2.45447 48.2685 2.22785 47.8276 2.1758L47.0359 2.08234C46.595 2.03029 46.1517 2.15706 45.8034 2.43476C45.4552 2.71247 45.2305 3.11837 45.1789 3.56316L44.546 9.01927C44.5296 9.16075 44.4581 9.28986 44.3473 9.3782C44.2366 9.46654 44.0955 9.50686 43.9553 9.49031C43.815 9.47375 43.687 9.40166 43.5995 9.28991C43.5119 9.17816 43.4719 9.03589 43.4883 8.8944L44.1213 3.43829C44.1729 2.9935 44.0472 2.54625 43.7719 2.19493C43.4967 1.84361 43.0943 1.617 42.6534 1.56494L41.8618 1.47148C41.4208 1.41943 40.9775 1.5462 40.6292 1.82391C40.281 2.10161 40.0564 2.50751 40.0048 2.9523L39.3718 8.40841C39.3641 8.47836 39.3428 8.54609 39.309 8.6077C39.2753 8.66931 39.2298 8.72358 39.1752 8.76739C39.1206 8.81121 39.058 8.84369 38.9909 8.86299C38.9238 8.88228 38.8536 8.888 38.7843 8.87982C38.644 8.86326 38.516 8.79118 38.4285 8.67943C38.3409 8.56767 38.3009 8.4254 38.3173 8.28392L38.9503 2.82781C39.0019 2.38302 38.8762 1.93577 38.6009 1.58445C38.3257 1.23313 37.9233 1.00651 37.4824 0.95446L36.6907 0.861C36.2498 0.808947 35.8065 0.935718 35.4582 1.21342C35.11 1.49113 34.8853 1.89703 34.8337 2.34182L32.8882 19.1126C32.8366 19.5574 32.9623 20.0047 33.2375 20.356C33.5128 20.7073 33.9152 20.9339 34.3561 20.986L50.6639 22.9113C51.1049 22.9633 51.5482 22.8366 51.8965 22.5589C52.2447 22.2811 52.4694 21.8752 52.521 21.4305Z" fill="black"/>
<path d="M1583.38 243.864L1583.92 245.797C1583.96 245.94 1584.04 246.065 1584.16 246.15C1584.28 246.235 1584.43 246.275 1584.58 246.263C1584.72 246.252 1584.86 246.189 1584.97 246.086C1585.07 245.984 1585.14 245.847 1585.16 245.7L1585.78 240.331C1585.8 240.184 1585.76 240.036 1585.68 239.911C1585.6 239.786 1585.48 239.694 1585.34 239.648C1585.2 239.603 1585.05 239.608 1584.92 239.663C1584.78 239.717 1584.67 239.818 1584.6 239.948L1583.63 241.704C1583.27 242.363 1583.18 243.139 1583.38 243.864Z" fill="black"/>
<path d="M1594.99 246.786L1595.91 238.842C1595.93 238.631 1595.88 238.419 1595.75 238.253C1595.61 238.087 1595.42 237.979 1595.22 237.955L1594.84 237.91C1594.63 237.886 1594.42 237.946 1594.26 238.077C1594.09 238.209 1593.99 238.401 1593.96 238.612L1593.66 241.196C1593.65 241.263 1593.62 241.324 1593.57 241.366C1593.51 241.408 1593.45 241.427 1593.38 241.419C1593.35 241.415 1593.32 241.405 1593.29 241.389C1593.26 241.372 1593.23 241.35 1593.21 241.324C1593.19 241.298 1593.18 241.268 1593.17 241.236C1593.16 241.204 1593.16 241.17 1593.16 241.137L1593.46 238.553C1593.49 238.342 1593.43 238.13 1593.3 237.964C1593.17 237.797 1592.97 237.69 1592.77 237.665L1592.39 237.621C1592.18 237.596 1591.97 237.656 1591.81 237.788C1591.64 237.92 1591.54 238.112 1591.51 238.322L1591.21 240.907C1591.2 240.974 1591.17 241.035 1591.12 241.077C1591.07 241.119 1591 241.138 1590.93 241.13C1590.87 241.122 1590.8 241.088 1590.76 241.035C1590.72 240.982 1590.7 240.915 1590.71 240.848L1591.01 238.263C1591.03 238.053 1590.98 237.841 1590.84 237.674C1590.71 237.508 1590.52 237.401 1590.32 237.376L1589.94 237.332C1589.73 237.307 1589.52 237.367 1589.36 237.499C1589.19 237.63 1589.09 237.822 1589.06 238.033L1588.76 240.617C1588.76 240.651 1588.75 240.683 1588.73 240.712C1588.72 240.741 1588.69 240.767 1588.67 240.788C1588.64 240.808 1588.61 240.824 1588.58 240.833C1588.55 240.842 1588.52 240.845 1588.48 240.841C1588.42 240.833 1588.36 240.799 1588.31 240.746C1588.27 240.693 1588.25 240.626 1588.26 240.559L1588.56 237.974C1588.59 237.764 1588.53 237.552 1588.4 237.385C1588.27 237.219 1588.07 237.112 1587.87 237.087L1587.49 237.043C1587.28 237.018 1587.07 237.078 1586.91 237.21C1586.74 237.341 1586.64 237.533 1586.61 237.744L1585.69 245.688C1585.67 245.898 1585.72 246.11 1585.86 246.277C1585.99 246.443 1586.18 246.55 1586.39 246.575L1594.11 247.487C1594.32 247.512 1594.53 247.452 1594.69 247.32C1594.86 247.188 1594.96 246.996 1594.99 246.786Z" fill="black"/>
<path d="M1618.22 239.549L1620.59 242.535C1620.76 242.756 1621 242.908 1621.28 242.967C1621.55 243.026 1621.83 242.987 1622.08 242.858C1622.33 242.728 1622.53 242.515 1622.64 242.256C1622.75 241.997 1622.76 241.707 1622.68 241.437L1619.83 231.564C1619.75 231.294 1619.58 231.059 1619.35 230.9C1619.12 230.741 1618.84 230.668 1618.56 230.693C1618.28 230.718 1618.02 230.84 1617.82 231.038C1617.63 231.236 1617.5 231.497 1617.47 231.778L1617.07 235.576C1616.92 237.001 1617.34 238.429 1618.22 239.549Z" fill="black"/>
<path d="M1640.71 235.98L1636.48 221.372C1636.37 220.985 1636.11 220.658 1635.76 220.464C1635.41 220.27 1635 220.224 1634.61 220.338L1633.92 220.541C1633.54 220.654 1633.22 220.916 1633.02 221.27C1632.83 221.624 1632.79 222.04 1632.9 222.428L1634.27 227.18C1634.31 227.304 1634.29 227.436 1634.23 227.549C1634.17 227.661 1634.07 227.745 1633.95 227.781C1633.89 227.799 1633.82 227.804 1633.76 227.797C1633.7 227.79 1633.64 227.771 1633.58 227.74C1633.53 227.709 1633.48 227.668 1633.44 227.619C1633.4 227.569 1633.37 227.512 1633.36 227.451L1631.98 222.698C1631.87 222.311 1631.61 221.984 1631.26 221.79C1630.91 221.596 1630.49 221.551 1630.11 221.664L1629.42 221.867C1629.04 221.98 1628.71 222.242 1628.52 222.596C1628.33 222.95 1628.28 223.367 1628.39 223.754L1629.77 228.507C1629.8 228.63 1629.79 228.763 1629.73 228.875C1629.67 228.988 1629.57 229.071 1629.44 229.107C1629.32 229.143 1629.19 229.129 1629.08 229.067C1628.97 229.005 1628.88 228.901 1628.85 228.778L1627.47 224.026C1627.36 223.638 1627.1 223.311 1626.75 223.117C1626.4 222.923 1625.99 222.878 1625.6 222.991L1624.91 223.194C1624.53 223.307 1624.2 223.57 1624.01 223.924C1623.82 224.278 1623.77 224.694 1623.89 225.081L1625.26 229.834C1625.28 229.895 1625.29 229.959 1625.28 230.022C1625.27 230.085 1625.25 230.146 1625.22 230.202C1625.19 230.257 1625.15 230.307 1625.1 230.346C1625.06 230.386 1625 230.416 1624.94 230.434C1624.82 230.47 1624.69 230.455 1624.57 230.393C1624.46 230.332 1624.38 230.228 1624.34 230.105L1622.97 225.352C1622.86 224.965 1622.6 224.638 1622.25 224.444C1621.89 224.25 1621.48 224.204 1621.1 224.318L1620.41 224.521C1620.02 224.634 1619.7 224.896 1619.51 225.25C1619.32 225.604 1619.27 226.02 1619.38 226.408L1623.61 241.016C1623.72 241.404 1623.98 241.73 1624.33 241.924C1624.68 242.118 1625.1 242.164 1625.48 242.051L1639.69 237.868C1640.07 237.755 1640.39 237.492 1640.59 237.138C1640.78 236.784 1640.82 236.368 1640.71 235.98Z" fill="black"/>
<path d="M1676.64 192.605L1678.14 198.569C1678.25 199.009 1678.51 199.397 1678.87 199.666C1679.24 199.935 1679.68 200.069 1680.13 200.044C1680.58 200.019 1681.01 199.838 1681.34 199.53C1681.67 199.223 1681.88 198.809 1681.95 198.359L1684.24 181.949C1684.3 181.5 1684.21 181.042 1683.97 180.654C1683.74 180.266 1683.38 179.973 1682.95 179.824C1682.53 179.675 1682.06 179.68 1681.64 179.837C1681.22 179.995 1680.87 180.296 1680.64 180.688L1677.56 186.001C1676.4 187.994 1676.07 190.367 1676.64 192.605Z" fill="black"/>
<path d="M1712.01 202.397L1715.4 178.116C1715.49 177.472 1715.32 176.818 1714.93 176.299C1714.54 175.779 1713.97 175.437 1713.33 175.346L1712.18 175.183C1711.54 175.092 1710.9 175.261 1710.38 175.653C1709.87 176.044 1709.53 176.625 1709.44 177.269L1708.33 185.169C1708.31 185.374 1708.2 185.559 1708.03 185.683C1707.87 185.808 1707.66 185.862 1707.46 185.833C1707.36 185.818 1707.26 185.784 1707.18 185.732C1707.09 185.68 1707.01 185.611 1706.95 185.53C1706.89 185.448 1706.85 185.355 1706.82 185.255C1706.8 185.156 1706.79 185.053 1706.81 184.952L1707.91 177.053C1708 176.409 1707.83 175.755 1707.45 175.236C1707.06 174.716 1706.48 174.373 1705.84 174.283L1704.7 174.12C1704.06 174.029 1703.41 174.198 1702.9 174.589C1702.38 174.981 1702.04 175.562 1701.95 176.206L1700.85 184.106C1700.82 184.311 1700.71 184.496 1700.55 184.62C1700.38 184.745 1700.18 184.798 1699.97 184.769C1699.77 184.741 1699.59 184.632 1699.46 184.466C1699.34 184.301 1699.29 184.093 1699.32 183.888L1700.42 175.989C1700.51 175.345 1700.34 174.691 1699.95 174.172C1699.57 173.652 1698.99 173.309 1698.35 173.219L1697.2 173.056C1696.57 172.965 1695.92 173.134 1695.4 173.525C1694.89 173.917 1694.55 174.498 1694.46 175.142L1693.36 183.042C1693.34 183.143 1693.31 183.241 1693.26 183.329C1693.21 183.417 1693.14 183.495 1693.06 183.556C1692.98 183.618 1692.89 183.663 1692.79 183.689C1692.69 183.714 1692.59 183.72 1692.49 183.706C1692.28 183.677 1692.1 183.568 1691.98 183.403C1691.85 183.238 1691.8 183.03 1691.83 182.825L1692.93 174.925C1693.02 174.281 1692.85 173.628 1692.47 173.108C1692.08 172.589 1691.5 172.246 1690.86 172.155L1689.72 171.993C1689.08 171.902 1688.43 172.071 1687.92 172.462C1687.4 172.853 1687.06 173.435 1686.97 174.079L1683.58 198.36C1683.49 199.004 1683.66 199.658 1684.05 200.178C1684.44 200.697 1685.01 201.04 1685.65 201.13L1709.26 204.484C1709.9 204.574 1710.55 204.406 1711.06 204.014C1711.58 203.623 1711.92 203.041 1712.01 202.397Z" fill="black"/>
<path d="M1619.96 159.667L1621.7 162.767C1621.83 162.996 1622.03 163.173 1622.27 163.268C1622.52 163.363 1622.78 163.369 1623.03 163.287C1623.28 163.205 1623.49 163.038 1623.63 162.816C1623.77 162.593 1623.82 162.329 1623.79 162.069L1622.61 152.557C1622.58 152.297 1622.45 152.055 1622.27 151.875C1622.08 151.694 1621.83 151.585 1621.57 151.567C1621.31 151.549 1621.05 151.622 1620.84 151.775C1620.63 151.927 1620.48 152.149 1620.41 152.403L1619.49 155.839C1619.14 157.129 1619.31 158.504 1619.96 159.667Z" fill="black"/>
<path d="M1641.18 159.733L1639.43 145.658C1639.38 145.285 1639.19 144.946 1638.9 144.715C1638.6 144.484 1638.23 144.381 1637.86 144.428L1637.2 144.512C1636.83 144.559 1636.49 144.752 1636.26 145.049C1636.03 145.346 1635.93 145.723 1635.98 146.096L1636.55 150.675C1636.56 150.794 1636.53 150.913 1636.45 151.008C1636.38 151.102 1636.27 151.164 1636.16 151.179C1636.1 151.186 1636.04 151.182 1635.98 151.166C1635.93 151.15 1635.87 151.124 1635.83 151.087C1635.78 151.051 1635.74 151.005 1635.71 150.954C1635.69 150.902 1635.67 150.846 1635.66 150.787L1635.09 146.208C1635.04 145.835 1634.85 145.496 1634.56 145.265C1634.26 145.034 1633.89 144.931 1633.52 144.977L1632.86 145.062C1632.49 145.109 1632.15 145.302 1631.92 145.599C1631.69 145.896 1631.59 146.273 1631.64 146.646L1632.21 151.225C1632.22 151.343 1632.19 151.463 1632.12 151.558C1632.04 151.652 1631.94 151.714 1631.82 151.728C1631.7 151.743 1631.58 151.711 1631.49 151.637C1631.39 151.564 1631.33 151.456 1631.32 151.337L1630.75 146.758C1630.7 146.385 1630.51 146.046 1630.22 145.815C1629.92 145.584 1629.55 145.481 1629.18 145.528L1628.51 145.612C1628.14 145.659 1627.81 145.852 1627.58 146.149C1627.35 146.446 1627.25 146.823 1627.29 147.196L1627.86 151.775C1627.87 151.833 1627.87 151.893 1627.85 151.95C1627.84 152.007 1627.81 152.06 1627.77 152.107C1627.74 152.154 1627.69 152.193 1627.64 152.223C1627.59 152.252 1627.54 152.271 1627.48 152.278C1627.36 152.293 1627.24 152.26 1627.15 152.187C1627.05 152.113 1626.99 152.005 1626.98 151.887L1626.41 147.308C1626.36 146.935 1626.17 146.595 1625.88 146.364C1625.58 146.134 1625.21 146.03 1624.84 146.077L1624.17 146.161C1623.8 146.208 1623.47 146.401 1623.24 146.699C1623.01 146.996 1622.91 147.372 1622.95 147.746L1624.71 161.82C1624.75 162.193 1624.94 162.532 1625.24 162.763C1625.53 162.994 1625.91 163.097 1626.28 163.05L1639.96 161.317C1640.33 161.27 1640.67 161.077 1640.9 160.78C1641.13 160.483 1641.23 160.106 1641.18 159.733Z" fill="black"/>
<path d="M1675.01 141.048L1675.66 143.488C1675.71 143.668 1675.82 143.826 1675.97 143.935C1676.12 144.043 1676.3 144.096 1676.49 144.083C1676.67 144.07 1676.85 143.993 1676.98 143.865C1677.12 143.737 1677.2 143.566 1677.22 143.381L1678.08 136.629C1678.1 136.444 1678.06 136.257 1677.96 136.099C1677.86 135.941 1677.71 135.822 1677.54 135.763C1677.36 135.705 1677.17 135.709 1677 135.776C1676.83 135.843 1676.68 135.969 1676.59 136.131L1675.36 138.33C1674.89 139.155 1674.77 140.132 1675.01 141.048Z" fill="black"/>
<path d="M1689.59 144.873L1690.85 134.882C1690.89 134.617 1690.81 134.35 1690.65 134.138C1690.49 133.927 1690.25 133.79 1689.99 133.756L1689.52 133.695C1689.25 133.662 1688.99 133.735 1688.78 133.898C1688.57 134.062 1688.43 134.303 1688.4 134.567L1687.99 137.818C1687.98 137.902 1687.94 137.979 1687.87 138.031C1687.8 138.083 1687.72 138.106 1687.64 138.095C1687.59 138.09 1687.55 138.076 1687.52 138.056C1687.48 138.035 1687.45 138.007 1687.42 137.974C1687.4 137.94 1687.38 137.902 1687.37 137.862C1687.36 137.821 1687.36 137.779 1687.36 137.737L1687.77 134.487C1687.81 134.222 1687.73 133.954 1687.57 133.743C1687.41 133.532 1687.17 133.394 1686.91 133.361L1686.44 133.3C1686.17 133.267 1685.91 133.34 1685.7 133.503C1685.49 133.667 1685.35 133.907 1685.32 134.172L1684.91 137.423C1684.9 137.507 1684.86 137.584 1684.79 137.636C1684.72 137.688 1684.64 137.711 1684.55 137.7C1684.47 137.689 1684.4 137.646 1684.34 137.578C1684.29 137.511 1684.27 137.426 1684.28 137.342L1684.69 134.092C1684.72 133.827 1684.65 133.559 1684.49 133.348C1684.33 133.137 1684.09 132.999 1683.82 132.965L1683.35 132.905C1683.09 132.871 1682.83 132.944 1682.62 133.108C1682.41 133.271 1682.27 133.512 1682.24 133.777L1681.83 137.027C1681.82 137.069 1681.81 137.109 1681.79 137.146C1681.77 137.182 1681.74 137.214 1681.71 137.24C1681.68 137.266 1681.64 137.285 1681.6 137.296C1681.56 137.307 1681.52 137.31 1681.47 137.305C1681.39 137.294 1681.31 137.25 1681.26 137.183C1681.21 137.116 1681.19 137.031 1681.2 136.947L1681.61 133.696C1681.64 133.431 1681.57 133.164 1681.41 132.953C1681.25 132.742 1681.01 132.604 1680.74 132.57L1680.27 132.51C1680.01 132.476 1679.74 132.549 1679.54 132.713C1679.33 132.876 1679.19 133.117 1679.16 133.382L1677.9 143.373C1677.86 143.638 1677.94 143.905 1678.1 144.116C1678.26 144.327 1678.5 144.465 1678.76 144.499L1688.48 145.745C1688.74 145.779 1689 145.706 1689.21 145.542C1689.42 145.379 1689.56 145.138 1689.59 144.873Z" fill="black"/>
<path d="M1647.97 100.856L1648.92 103.193C1648.99 103.366 1649.12 103.508 1649.28 103.596C1649.45 103.685 1649.63 103.713 1649.82 103.677C1650 103.64 1650.16 103.541 1650.28 103.397C1650.39 103.253 1650.46 103.072 1650.46 102.885L1650.45 96.079C1650.45 95.8926 1650.38 95.7119 1650.26 95.5679C1650.15 95.424 1649.98 95.3257 1649.8 95.29C1649.62 95.2543 1649.43 95.2833 1649.27 95.3721C1649.11 95.461 1648.98 95.604 1648.91 95.7768L1647.96 98.117C1647.61 98.9952 1647.61 99.9796 1647.97 100.856Z" fill="black"/>
<path d="M1662.91 102.769L1662.9 92.6973C1662.89 92.4302 1662.79 92.1742 1662.6 91.9857C1662.41 91.7972 1662.16 91.6915 1661.9 91.692L1661.42 91.6929C1661.16 91.6934 1660.9 91.7999 1660.71 91.9892C1660.53 92.1784 1660.42 92.4347 1660.42 92.7018L1660.43 95.9783C1660.43 96.0633 1660.4 96.1448 1660.34 96.205C1660.28 96.2652 1660.2 96.2991 1660.11 96.2993C1660.07 96.2994 1660.03 96.2911 1659.99 96.2751C1659.95 96.259 1659.92 96.2355 1659.89 96.2057C1659.86 96.176 1659.84 96.1407 1659.82 96.1019C1659.8 96.0631 1659.8 96.0215 1659.8 95.9795L1659.79 92.703C1659.79 92.4359 1659.68 92.1799 1659.5 91.9914C1659.31 91.8029 1659.05 91.6972 1658.79 91.6977L1658.31 91.6986C1658.05 91.6991 1657.8 91.8056 1657.61 91.9948C1657.42 92.1841 1657.32 92.4404 1657.32 92.7075L1657.32 95.984C1657.32 96.069 1657.29 96.1505 1657.23 96.2107C1657.17 96.2709 1657.09 96.3048 1657.01 96.305C1656.92 96.3051 1656.84 96.2715 1656.78 96.2115C1656.72 96.1516 1656.69 96.0702 1656.69 95.9852L1656.68 92.7087C1656.68 92.4416 1656.58 92.1856 1656.39 91.9971C1656.2 91.8085 1655.95 91.7029 1655.68 91.7034L1655.21 91.7043C1654.94 91.7047 1654.69 91.8113 1654.5 92.0005C1654.32 92.1897 1654.21 92.4461 1654.21 92.7132L1654.22 95.9897C1654.22 96.0317 1654.21 96.0733 1654.19 96.1122C1654.18 96.1511 1654.15 96.1865 1654.13 96.2163C1654.1 96.2461 1654.06 96.2698 1654.02 96.286C1653.98 96.3022 1653.94 96.3106 1653.9 96.3107C1653.82 96.3108 1653.74 96.2772 1653.68 96.2172C1653.62 96.1573 1653.58 96.0758 1653.58 95.9909L1653.58 92.7144C1653.58 92.4473 1653.47 92.1913 1653.28 92.0028C1653.1 91.8142 1652.84 91.7086 1652.58 91.7091L1652.1 91.7099C1651.84 91.7104 1651.58 91.817 1651.4 92.0062C1651.21 92.1954 1651.1 92.4518 1651.11 92.7189L1651.12 102.79C1651.12 103.057 1651.23 103.313 1651.42 103.502C1651.6 103.69 1651.86 103.796 1652.12 103.795L1661.92 103.777C1662.18 103.777 1662.44 103.67 1662.62 103.481C1662.81 103.292 1662.91 103.036 1662.91 102.769Z" fill="black"/>
<path d="M1691.92 67.6992L1692.89 69.1996C1692.96 69.3104 1693.07 69.3928 1693.19 69.4326C1693.31 69.4724 1693.45 69.4671 1693.57 69.4177C1693.69 69.3683 1693.79 69.2778 1693.86 69.1617C1693.92 69.0456 1693.94 68.9112 1693.91 68.7814L1693.02 64.0432C1692.99 63.9134 1692.92 63.7961 1692.82 63.7114C1692.72 63.6268 1692.6 63.5801 1692.47 63.5793C1692.33 63.5786 1692.21 63.6238 1692.11 63.7072C1692 63.7907 1691.93 63.9072 1691.91 64.0368L1691.56 65.7922C1691.42 66.4511 1691.55 67.1363 1691.92 67.6992Z" fill="black"/>
<path d="M1702.57 67.0451L1701.25 60.034C1701.21 59.8481 1701.1 59.6839 1700.95 59.5775C1700.79 59.4711 1700.6 59.4313 1700.42 59.4668L1700.09 59.5306C1699.9 59.5661 1699.74 59.6741 1699.63 59.8306C1699.53 59.9872 1699.49 60.1797 1699.52 60.3656L1699.96 62.6466C1699.97 62.7057 1699.96 62.7669 1699.92 62.8167C1699.89 62.8666 1699.84 62.9009 1699.78 62.9122C1699.75 62.9178 1699.72 62.9175 1699.69 62.9115C1699.66 62.9054 1699.63 62.8936 1699.61 62.8768C1699.59 62.86 1699.56 62.8385 1699.55 62.8136C1699.53 62.7887 1699.52 62.7608 1699.52 62.7315L1699.08 60.4506C1699.05 60.2646 1698.94 60.1004 1698.79 59.994C1698.63 59.8877 1698.44 59.8479 1698.26 59.8834L1697.93 59.9472C1697.74 59.9827 1697.58 60.0906 1697.47 60.2472C1697.37 60.4038 1697.33 60.5962 1697.36 60.7822L1697.8 63.0631C1697.81 63.1223 1697.79 63.1835 1697.76 63.2333C1697.73 63.2831 1697.67 63.3175 1697.62 63.3288C1697.56 63.3401 1697.5 63.3274 1697.45 63.2936C1697.4 63.2597 1697.36 63.2075 1697.35 63.1483L1696.92 60.8674C1696.89 60.6815 1696.78 60.5172 1696.62 60.4109C1696.47 60.3045 1696.28 60.2647 1696.09 60.3002L1695.76 60.364C1695.58 60.3995 1695.42 60.5074 1695.31 60.664C1695.2 60.8206 1695.16 61.0131 1695.2 61.199L1695.63 63.48C1695.64 63.5091 1695.64 63.5392 1695.63 63.5683C1695.63 63.5975 1695.61 63.6252 1695.6 63.6499C1695.58 63.6745 1695.56 63.6957 1695.54 63.712C1695.51 63.7284 1695.48 63.7397 1695.45 63.7453C1695.4 63.7566 1695.34 63.744 1695.29 63.7101C1695.24 63.6763 1695.2 63.624 1695.19 63.5649L1694.76 61.284C1694.72 61.098 1694.62 60.9338 1694.46 60.8274C1694.31 60.7211 1694.12 60.6813 1693.93 60.7168L1693.6 60.7805C1693.42 60.8161 1693.25 60.924 1693.15 61.0806C1693.04 61.2372 1693 61.4296 1693.04 61.6156L1694.37 68.6267C1694.4 68.8126 1694.51 68.9768 1694.66 69.0832C1694.82 69.1896 1695.01 69.2294 1695.19 69.1938L1702.01 67.8801C1702.2 67.8446 1702.36 67.7367 1702.46 67.5801C1702.57 67.4235 1702.61 67.231 1702.57 67.0451Z" fill="black"/>
</g>
</svg>
