<svg width="1728" height="345" viewBox="0 0 1728 345" fill="none" xmlns="http://www.w3.org/2000/svg">
<path opacity="0.1" fill-rule="evenodd" clip-rule="evenodd" d="M0 336.28V201.122C231.601 273.301 527.871 319.401 853.411 326.707L861.91 335.285C863.076 336.461 864.967 336.461 866.133 335.285L874.222 327.121C897.58 327.525 921.084 327.729 944.721 327.729C1233.49 327.729 1502.44 297.242 1728 244.739V336.28H0Z" fill="black"/>
<path opacity="0.2" fill-rule="evenodd" clip-rule="evenodd" d="M0 336.28V215.292C231.841 279.97 528.486 321.257 854.426 327.731L861.91 335.285C863.076 336.462 864.967 336.462 866.133 335.285L873.285 328.066C896.952 328.438 920.768 328.625 944.721 328.625C1233.49 328.625 1502.44 301.335 1728 254.336V336.28H0Z" fill="black"/>
<path fill-rule="evenodd" clip-rule="evenodd" d="M0 345L0.00123596 233.822C232.155 288.668 529.287 323.652 855.745 329.063L861.91 335.285C863.076 336.462 864.967 336.462 866.133 335.285L872.055 329.308C896.127 329.633 920.354 329.798 944.722 329.798C1233.49 329.798 1502.44 306.687 1728 266.886L1728 345H0Z" fill="black"/>
<g opacity="0.2">
<path d="M46.4502 158.152C52.3029 162.34 55.7085 170.084 53.1244 177.111C50.6943 183.735 43.9003 187.877 37.055 188.072C38.2838 187.635 39.3878 186.901 40.2705 185.936C41.1532 184.97 41.7878 183.801 42.1189 182.532C42.45 181.262 42.4677 179.931 42.1702 178.653C41.8727 177.375 41.2693 176.19 40.4124 175.201C39.5556 174.212 38.4714 173.449 37.2545 172.979C36.0377 172.509 34.7251 172.346 33.4313 172.504C32.1375 172.662 30.9019 173.137 29.8322 173.887C28.7625 174.637 27.8914 175.639 27.2947 176.806C24.4425 182.321 28.949 187.819 33.8662 190.02C39.4394 192.524 45.8797 190.675 50.352 186.802C42.651 197.442 27.0608 199.332 18.5041 188.715C12.6856 181.494 12.5487 170.906 17.8367 163.259C16.5646 167.402 17.5515 171.59 20.9742 173.888C17.5515 166.994 19.8333 161.771 24.4767 157.147C26.7128 154.918 29.5593 154.067 31.8925 152.12C34.4594 149.983 34.796 146.432 34.3054 143.313C36.3325 144.381 38.0059 146.023 39.1205 148.035C40.2351 150.047 40.7424 152.343 40.5803 154.642C34.0944 154.671 31.7156 163.759 37.4315 166.994C42.999 170.165 49.4621 163.857 46.4502 158.152Z" fill="black"/>
<path d="M99.0926 188.339C102.897 191.077 105.111 196.141 103.431 200.735C101.851 205.066 97.4352 207.774 92.9857 207.902C93.7845 207.616 94.5021 207.137 95.0758 206.505C95.6496 205.874 96.0621 205.11 96.2773 204.28C96.4925 203.45 96.504 202.579 96.3106 201.743C96.1173 200.908 95.725 200.133 95.1681 199.486C94.6111 198.839 93.9064 198.341 93.1154 198.033C92.3245 197.726 91.4713 197.619 90.6303 197.723C89.7894 197.827 88.9862 198.137 88.2909 198.627C87.5956 199.118 87.0294 199.773 86.6415 200.536C84.7876 204.142 87.7168 207.737 90.913 209.175C94.5356 210.813 98.7218 209.604 101.629 207.072C96.6232 214.029 86.4895 215.264 80.9277 208.323C77.1456 203.601 77.0566 196.678 80.4939 191.678C79.667 194.387 80.3085 197.125 82.5332 198.628C80.3085 194.12 81.7916 190.706 84.8098 187.682C86.2633 186.224 88.1136 185.668 89.6301 184.395C91.2986 182.998 91.5174 180.676 91.1985 178.636C92.5161 179.335 93.6038 180.408 94.3283 181.724C95.0528 183.04 95.3826 184.541 95.2772 186.044C91.0613 186.063 89.5152 192.005 93.2305 194.12C96.8494 196.194 101.05 192.069 99.0926 188.339Z" fill="black"/>
<path d="M94.6589 135.726C98.0242 138.142 99.9824 142.61 98.4965 146.664C97.0992 150.485 93.1927 152.875 89.2566 152.988C89.9632 152.735 90.598 152.312 91.1055 151.755C91.6131 151.198 91.978 150.524 92.1684 149.791C92.3588 149.059 92.3689 148.291 92.1979 147.553C92.0268 146.816 91.6798 146.132 91.1871 145.562C90.6945 144.991 90.0711 144.551 89.3714 144.28C88.6717 144.009 87.9169 143.915 87.173 144.006C86.4291 144.097 85.7186 144.371 85.1035 144.804C84.4885 145.237 83.9875 145.815 83.6444 146.488C82.0044 149.67 84.5957 152.842 87.4231 154.111C90.6277 155.556 94.3309 154.489 96.9024 152.255C92.4743 158.393 83.51 159.484 78.5899 153.359C75.2442 149.193 75.1655 143.084 78.2061 138.673C77.4747 141.062 78.0421 143.478 80.0101 144.804C78.0421 140.827 79.3541 137.814 82.0241 135.146C83.3099 133.86 84.9466 133.369 86.2882 132.246C87.7642 131.013 87.9577 128.965 87.6756 127.165C88.8412 127.781 89.8034 128.728 90.4443 129.889C91.0852 131.05 91.3769 132.375 91.2837 133.701C87.5543 133.717 86.1865 138.961 89.4731 140.827C92.6744 142.656 96.3907 139.017 94.6589 135.726Z" fill="black"/>
<path d="M46.5463 117.887C48.4485 119.256 49.5553 121.788 48.7154 124.085C47.9256 126.25 45.7176 127.604 43.4929 127.668C43.8922 127.525 44.251 127.286 44.5379 126.97C44.8248 126.654 45.031 126.272 45.1386 125.857C45.2463 125.442 45.252 125.007 45.1553 124.589C45.0586 124.171 44.8625 123.784 44.584 123.46C44.3056 123.137 43.9532 122.888 43.5577 122.734C43.1622 122.58 42.7356 122.527 42.3152 122.579C41.8947 122.631 41.4931 122.786 41.1455 123.031C40.7978 123.276 40.5147 123.604 40.3208 123.985C39.3938 125.788 40.8584 127.586 42.4565 128.305C44.2678 129.124 46.3609 128.519 47.8144 127.253C45.3116 130.732 40.2448 131.349 37.4638 127.879C35.5728 125.518 35.5283 122.056 37.2469 119.556C36.8335 120.911 37.1542 122.28 38.2666 123.031C37.1542 120.777 37.8958 119.07 39.4049 117.558C40.1317 116.829 41.0568 116.551 41.815 115.915C42.6493 115.216 42.7587 114.055 42.5993 113.035C43.2581 113.385 43.8019 113.921 44.1642 114.579C44.5264 115.237 44.6913 115.988 44.6386 116.739C42.5307 116.749 41.7576 119.72 43.6152 120.777C45.4247 121.814 47.5252 119.752 46.5463 117.887Z" fill="black"/>
<path d="M47.0363 56.1488C50.109 58.3234 51.897 62.3444 50.5403 65.9926C49.2645 69.432 45.6977 71.5827 42.1039 71.6841C42.749 71.4571 43.3286 71.0763 43.792 70.5749C44.2554 70.0734 44.5886 69.4667 44.7624 68.8075C44.9363 68.1484 44.9455 67.4569 44.7894 66.7933C44.6332 66.1298 44.3164 65.5144 43.8665 65.0009C43.4167 64.4873 42.8475 64.0913 42.2086 63.8472C41.5698 63.6032 40.8807 63.5186 40.2014 63.6008C39.5222 63.683 38.8735 63.9296 38.3119 64.3189C37.7503 64.7083 37.293 65.2286 36.9797 65.8345C35.4823 68.6982 37.8482 71.5529 40.4297 72.6954C43.3557 73.9959 46.7369 73.0354 49.0848 71.0249C45.0418 76.5494 36.8569 77.5308 32.3647 72.0182C29.3099 68.2686 29.2381 62.771 32.0143 58.8007C31.3464 60.9514 31.8645 63.126 33.6614 64.3192C31.8645 60.7396 33.0625 58.0281 35.5003 55.6268C36.6742 54.4694 38.1686 54.0279 39.3935 53.0167C40.7412 51.907 40.9179 50.0635 40.6604 48.4438C41.7246 48.9986 42.6031 49.8507 43.1883 50.8956C43.7734 51.9405 44.0398 53.1328 43.9547 54.3262C40.5495 54.3411 39.3007 59.0602 42.3015 60.7396C45.2245 62.3862 48.6176 59.1109 47.0363 56.1488Z" fill="black"/>
<path d="M1707.28 176.952C1710.94 179.61 1713.07 184.524 1711.45 188.983C1709.93 193.187 1705.69 195.816 1701.41 195.94C1702.18 195.662 1702.87 195.197 1703.42 194.584C1703.97 193.971 1704.37 193.229 1704.57 192.424C1704.78 191.618 1704.79 190.773 1704.61 189.962C1704.42 189.151 1704.04 188.399 1703.51 187.771C1702.97 187.144 1702.29 186.659 1701.53 186.361C1700.77 186.063 1699.95 185.959 1699.14 186.06C1698.34 186.16 1697.56 186.462 1696.9 186.938C1696.23 187.414 1695.68 188.05 1695.31 188.79C1693.53 192.29 1696.34 195.779 1699.42 197.176C1702.9 198.765 1706.92 197.591 1709.72 195.134C1704.91 201.886 1695.16 203.085 1689.82 196.348C1686.18 191.765 1686.09 185.046 1689.4 180.193C1688.6 182.822 1689.22 185.48 1691.36 186.938C1689.22 182.563 1690.65 179.249 1693.55 176.314C1694.95 174.899 1696.72 174.36 1698.18 173.124C1699.79 171.768 1700 169.514 1699.69 167.535C1700.96 168.213 1702 169.254 1702.7 170.531C1703.4 171.808 1703.71 173.266 1703.61 174.724C1699.56 174.743 1698.07 180.51 1701.64 182.563C1705.12 184.575 1709.16 180.572 1707.28 176.952Z" fill="black"/>
<path d="M1636.23 224.407C1639.15 226.501 1640.85 230.374 1639.56 233.887C1638.35 237.199 1634.95 239.27 1631.53 239.367C1632.14 239.149 1632.69 238.782 1633.14 238.299C1633.58 237.816 1633.89 237.232 1634.06 236.597C1634.23 235.963 1634.23 235.297 1634.09 234.658C1633.94 234.019 1633.63 233.426 1633.21 232.932C1632.78 232.437 1632.24 232.056 1631.63 231.821C1631.02 231.586 1630.36 231.504 1629.72 231.583C1629.07 231.663 1628.45 231.9 1627.92 232.275C1627.38 232.65 1626.95 233.151 1626.65 233.734C1625.22 236.492 1627.47 239.241 1629.93 240.341C1632.72 241.593 1635.94 240.669 1638.18 238.732C1634.33 244.052 1626.53 244.997 1622.25 239.689C1619.34 236.078 1619.27 230.784 1621.92 226.961C1621.28 229.032 1621.78 231.126 1623.49 232.275C1621.78 228.828 1622.92 226.217 1625.24 223.905C1626.36 222.79 1627.78 222.365 1628.95 221.391C1630.23 220.323 1630.4 218.547 1630.15 216.988C1631.17 217.522 1632 218.343 1632.56 219.349C1633.12 220.355 1633.37 221.503 1633.29 222.652C1630.05 222.667 1628.86 227.211 1631.72 228.828C1634.5 230.414 1637.73 227.26 1636.23 224.407Z" fill="black"/>
<path d="M1592.55 238.996C1594.45 240.365 1595.56 242.897 1594.72 245.194C1593.93 247.36 1591.72 248.714 1589.49 248.778C1589.89 248.635 1590.25 248.395 1590.54 248.079C1590.82 247.764 1591.03 247.382 1591.14 246.967C1591.25 246.551 1591.25 246.116 1591.16 245.698C1591.06 245.281 1590.86 244.893 1590.58 244.57C1590.31 244.246 1589.95 243.997 1589.56 243.843C1589.16 243.69 1588.74 243.636 1588.32 243.688C1587.89 243.74 1587.49 243.895 1587.15 244.14C1586.8 244.385 1586.51 244.713 1586.32 245.095C1585.39 246.898 1586.86 248.695 1588.46 249.414C1590.27 250.233 1592.36 249.629 1593.81 248.363C1591.31 251.841 1586.24 252.459 1583.46 248.988C1581.57 246.627 1581.53 243.166 1583.25 240.666C1582.83 242.02 1583.15 243.389 1584.27 244.14C1583.15 241.887 1583.9 240.179 1585.4 238.668C1586.13 237.939 1587.06 237.661 1587.82 237.024C1588.65 236.325 1588.76 235.165 1588.6 234.145C1589.26 234.494 1589.8 235.031 1590.16 235.689C1590.53 236.347 1590.69 237.097 1590.64 237.849C1588.53 237.858 1587.76 240.829 1589.62 241.887C1591.42 242.923 1593.53 240.861 1592.55 238.996Z" fill="black"/>
<path d="M1634.79 146.563C1637.28 148.335 1638.73 151.612 1637.63 154.584C1636.6 157.387 1633.71 159.139 1630.8 159.222C1631.32 159.037 1631.79 158.726 1632.16 158.318C1632.54 157.909 1632.81 157.415 1632.95 156.878C1633.09 156.341 1633.1 155.777 1632.97 155.237C1632.85 154.696 1632.59 154.194 1632.23 153.776C1631.86 153.358 1631.4 153.035 1630.88 152.836C1630.37 152.637 1629.81 152.568 1629.26 152.635C1628.71 152.702 1628.18 152.903 1627.73 153.22C1627.27 153.538 1626.9 153.962 1626.65 154.455C1625.44 156.789 1627.35 159.115 1629.44 160.046C1631.81 161.105 1634.55 160.323 1636.45 158.685C1633.18 163.186 1626.55 163.986 1622.91 159.494C1620.44 156.439 1620.38 151.959 1622.63 148.724C1622.09 150.476 1622.51 152.248 1623.96 153.221C1622.51 150.304 1623.48 148.095 1625.45 146.138C1626.4 145.195 1627.61 144.835 1628.6 144.011C1629.7 143.107 1629.84 141.605 1629.63 140.285C1630.49 140.737 1631.2 141.431 1631.68 142.283C1632.15 143.134 1632.37 144.106 1632.3 145.078C1629.54 145.09 1628.53 148.935 1630.96 150.304C1633.32 151.646 1636.07 148.977 1634.79 146.563Z" fill="black"/>
<path d="M1686.17 131.863C1688.36 133.474 1689.64 136.452 1688.67 139.155C1687.76 141.702 1685.21 143.296 1682.65 143.371C1683.11 143.203 1683.52 142.92 1683.85 142.549C1684.18 142.178 1684.42 141.728 1684.54 141.24C1684.67 140.752 1684.68 140.239 1684.56 139.748C1684.45 139.256 1684.23 138.801 1683.9 138.42C1683.58 138.04 1683.18 137.746 1682.72 137.566C1682.26 137.385 1681.77 137.322 1681.29 137.383C1680.8 137.444 1680.34 137.627 1679.94 137.915C1679.54 138.203 1679.21 138.589 1678.99 139.038C1677.92 141.159 1679.61 143.273 1681.45 144.12C1683.54 145.083 1685.95 144.372 1687.63 142.882C1684.74 146.975 1678.9 147.702 1675.69 143.618C1673.51 140.841 1673.46 136.768 1675.44 133.827C1674.96 135.421 1675.33 137.031 1676.62 137.915C1675.33 135.264 1676.19 133.255 1677.93 131.476C1678.77 130.619 1679.83 130.292 1680.71 129.543C1681.67 128.721 1681.8 127.355 1681.61 126.156C1682.37 126.567 1683 127.198 1683.42 127.972C1683.84 128.746 1684.03 129.629 1683.97 130.513C1681.54 130.524 1680.64 134.02 1682.79 135.264C1684.87 136.483 1687.3 134.057 1686.17 131.863Z" fill="black"/>
<path d="M1659.17 91.4933C1661.36 93.1041 1662.64 96.0826 1661.67 98.785C1660.76 101.333 1658.21 102.926 1655.65 103.001C1656.11 102.833 1656.52 102.551 1656.85 102.179C1657.18 101.808 1657.42 101.358 1657.54 100.87C1657.67 100.382 1657.68 99.8696 1657.56 99.3781C1657.45 98.8866 1657.23 98.4307 1656.9 98.0504C1656.58 97.67 1656.18 97.3766 1655.72 97.1958C1655.26 97.015 1654.77 96.9524 1654.29 97.0133C1653.8 97.0742 1653.34 97.2568 1652.94 97.5452C1652.54 97.8336 1652.21 98.2191 1651.99 98.6679C1650.92 100.789 1652.61 102.904 1654.45 103.75C1656.54 104.713 1658.95 104.002 1660.63 102.513C1657.74 106.605 1651.9 107.332 1648.69 103.248C1646.51 100.471 1646.46 96.3986 1648.44 93.4576C1647.96 95.0507 1648.33 96.6615 1649.62 97.5454C1648.33 94.8939 1649.19 92.8853 1650.93 91.1066C1651.77 90.2493 1652.83 89.9222 1653.71 89.1732C1654.67 88.3512 1654.8 86.9857 1654.61 85.7858C1655.37 86.1969 1656 86.828 1656.42 87.602C1656.84 88.376 1657.03 89.2592 1656.97 90.1432C1654.54 90.1542 1653.64 93.6498 1655.79 94.8939C1657.87 96.1136 1660.3 93.6874 1659.17 91.4933Z" fill="black"/>
<path d="M1700.11 62.5314C1701.58 63.659 1702.43 65.744 1701.78 67.6356C1701.17 69.419 1699.48 70.5342 1697.76 70.5868C1698.07 70.4691 1698.35 70.2716 1698.57 70.0116C1698.79 69.7516 1698.95 69.437 1699.03 69.0952C1699.11 68.7534 1699.12 68.3949 1699.04 68.0508C1698.97 67.7067 1698.82 67.3877 1698.6 67.1214C1698.39 66.8551 1698.12 66.6497 1697.81 66.5232C1697.51 66.3967 1697.18 66.3528 1696.86 66.3954C1696.53 66.4381 1696.23 66.5659 1695.96 66.7678C1695.69 66.9697 1695.47 67.2395 1695.32 67.5536C1694.61 69.0385 1695.74 70.5187 1696.97 71.1111C1698.36 71.7855 1699.97 71.2874 1701.09 70.2449C1699.16 73.1095 1695.27 73.6184 1693.13 70.76C1691.67 68.8158 1691.64 65.9652 1692.96 63.9065C1692.64 65.0216 1692.89 66.1492 1693.74 66.7679C1692.89 64.9118 1693.46 63.5059 1694.62 62.2607C1695.18 61.6606 1695.89 61.4317 1696.47 60.9074C1697.11 60.332 1697.2 59.3761 1697.08 58.5362C1697.58 58.8239 1698 59.2658 1698.28 59.8076C1698.56 60.3493 1698.69 60.9675 1698.65 61.5864C1697.02 61.5941 1696.43 64.041 1697.86 64.9118C1699.25 65.7656 1700.87 64.0673 1700.11 62.5314Z" fill="black"/>
<path d="M51.4138 7.13428C54.1939 9.14779 55.8115 12.871 54.5841 16.2489C53.4298 19.4335 50.2026 21.4249 46.9511 21.5189C47.5348 21.3087 48.0592 20.956 48.4785 20.4918C48.8978 20.0275 49.1992 19.4657 49.3565 18.8553C49.5138 18.245 49.5221 17.6047 49.3808 16.9903C49.2396 16.3759 48.9529 15.8061 48.5459 15.3306C48.1389 14.8552 47.6239 14.4884 47.0459 14.2625C46.4679 14.0365 45.8444 13.9582 45.2299 14.0343C44.6153 14.1104 44.0284 14.3387 43.5203 14.6992C43.0122 15.0597 42.5984 15.5415 42.315 16.1025C40.9602 18.7541 43.1008 21.3973 45.4364 22.4552C48.0837 23.6594 51.1429 22.77 53.2672 20.9085C49.6092 26.0237 42.2039 26.9324 38.1395 21.8282C35.3757 18.3563 35.3106 13.266 37.8224 9.58971C37.2182 11.5811 37.687 13.5946 39.3127 14.6994C37.687 11.385 38.7708 8.87435 40.9764 6.65093C42.0386 5.57927 43.3907 5.17049 44.4989 4.23417C45.7182 3.2067 45.8781 1.49977 45.6451 0C46.6079 0.513769 47.4028 1.30276 47.9322 2.27024C48.4617 3.23773 48.7027 4.34166 48.6256 5.44669C45.5448 5.4605 44.4149 9.83001 47.1299 11.385C49.7745 12.9097 52.8445 9.87696 51.4138 7.13428Z" fill="black"/>
</g>
</svg>
