<svg width="1728" height="345" viewBox="0 0 1728 345" fill="none" xmlns="http://www.w3.org/2000/svg">
<path opacity="0.1" fill-rule="evenodd" clip-rule="evenodd" d="M0 336.615V204.17C231.601 274.9 527.871 320.075 853.412 327.235L861.889 335.619C863.067 336.784 864.977 336.784 866.155 335.619L874.222 327.64C897.58 328.036 921.084 328.236 944.721 328.236C1233.49 328.236 1502.44 298.361 1728 246.911V336.615H0Z" fill="black"/>
<path opacity="0.2" fill-rule="evenodd" clip-rule="evenodd" d="M0 336.615V218.055C231.841 281.436 528.486 321.893 854.426 328.238L861.889 335.619C863.067 336.784 864.977 336.784 866.155 335.619L873.285 328.566C896.952 328.93 920.768 329.114 944.721 329.114C1233.49 329.114 1502.44 302.371 1728 256.316V336.615H0Z" fill="black"/>
<path fill-rule="evenodd" clip-rule="evenodd" d="M0 345.16L0.00123596 236.213C232.155 289.959 529.287 324.24 855.745 329.543L861.889 335.619C863.067 336.784 864.977 336.784 866.155 335.619L872.055 329.783C896.127 330.102 920.354 330.263 944.722 330.263C1233.49 330.263 1502.44 307.616 1728 268.614L1728 345.16H0Z" fill="black"/>
<path opacity="0.2" d="M105.839 134.035C104.793 133.168 100.615 134.118 99.427 134.253C95.4881 134.66 91.6074 135.467 87.8529 136.662C83.9756 137.954 80.812 139.818 78.9794 143.431C77.8635 145.688 77.4311 148.192 77.73 150.666C78.0289 153.14 79.0475 155.488 80.6731 157.45C81.518 156.602 82.7294 155.747 83.3969 154.772C84.2881 153.472 83.802 150.878 83.8676 149.247C83.8868 148.767 84.0759 142.118 84.4193 142.096C84.8359 142.07 85.9123 148.596 86.2981 151.027C86.3125 151.104 86.3489 151.177 86.4032 151.236C86.4576 151.296 86.528 151.34 86.607 151.365C86.686 151.39 86.7707 151.395 86.8522 151.378C86.9336 151.361 87.0088 151.324 87.0697 151.271C87.9879 150.414 88.91 149.565 89.8359 148.723C90.4686 148.144 90.785 147.919 90.9548 147.165C91.1245 146.412 90.9972 145.386 91.0512 144.589C91.0821 144.116 91.437 138.125 91.8923 138.096C92.3475 138.067 93.3004 142.765 93.6554 144.523C93.6725 144.582 93.705 144.636 93.7501 144.68C93.7951 144.724 93.8512 144.757 93.9131 144.775C93.975 144.793 94.0407 144.796 94.1042 144.784C94.1678 144.772 94.227 144.745 94.2765 144.705C96.1515 142.991 101.993 137.634 102.266 137.874C102.54 138.114 97.6909 144.265 96.1361 146.245C96.1011 146.296 96.0805 146.355 96.0762 146.416C96.0718 146.477 96.0838 146.538 96.1111 146.594C96.1384 146.649 96.1801 146.698 96.2324 146.734C96.2846 146.77 96.3457 146.793 96.41 146.802C98.3043 146.9 103.354 147.209 103.397 147.602C103.439 147.995 97.1392 149.16 96.6839 149.244C95.9123 149.393 95.052 149.444 94.2804 149.633C93.2927 149.877 93.123 150.106 92.5018 150.921C91.7302 151.892 90.9586 152.862 90.187 153.833C90.1351 153.897 90.1031 153.974 90.0947 154.055C90.0862 154.136 90.1016 154.217 90.1391 154.291C90.1766 154.364 90.2348 154.425 90.3073 154.469C90.3797 154.513 90.4636 154.537 90.5497 154.539C93.1577 154.579 100.152 154.728 100.195 155.121C100.214 155.449 93.2503 156.497 92.7487 156.577C91.1554 156.835 88.4625 156.733 87.1855 157.527C86.2017 158.138 85.295 159.776 84.5466 160.642C86.7473 161.867 89.2559 162.513 91.8112 162.513C94.3666 162.513 96.8752 161.867 99.0759 160.642C102.78 158.557 104.477 155.387 105.38 151.544C106.192 147.818 106.555 144.017 106.46 140.214C106.46 138.831 106.406 137.445 106.26 136.069C106.202 135.607 106.252 134.377 105.839 134.035Z" fill="black"/>
<path opacity="0.2" d="M93.1453 190.514C92.2045 190.323 90.0196 192.267 89.3498 192.736C87.1156 194.269 85.0598 196.029 83.2182 197.985C81.3372 200.042 80.0913 202.216 80.2743 205.032C80.4057 206.781 81.0383 208.459 82.1021 209.881C83.1658 211.303 84.6192 212.413 86.3016 213.088C86.5093 212.292 86.9358 211.373 86.9908 210.556C87.0654 209.468 85.8455 208.033 85.3031 207.011C85.1432 206.71 82.884 202.565 83.0836 202.44C83.3262 202.289 86.3057 205.945 87.4066 207.312C87.4429 207.355 87.4907 207.387 87.5448 207.406C87.5989 207.425 87.6574 207.43 87.714 207.419C87.7707 207.409 87.8234 207.384 87.8666 207.347C87.9099 207.31 87.942 207.263 87.9597 207.21C88.2087 206.385 88.4626 205.564 88.7214 204.745C88.897 204.184 89.0076 203.942 88.8412 203.424C88.6748 202.907 88.2316 202.318 87.9797 201.811C87.8295 201.51 85.9055 197.716 86.1701 197.55C86.4348 197.384 88.6876 199.959 89.5294 200.922C89.5608 200.953 89.5998 200.976 89.6427 200.988C89.6856 201 89.731 201.002 89.7749 200.993C89.8188 200.984 89.8596 200.964 89.8936 200.936C89.9277 200.908 89.9538 200.872 89.9696 200.832C90.4904 199.169 92.1065 193.977 92.3578 194.035C92.609 194.093 91.875 199.449 91.6425 201.171C91.6398 201.215 91.6484 201.257 91.6675 201.296C91.6867 201.335 91.7158 201.369 91.7521 201.394C91.7884 201.419 91.8307 201.435 91.8753 201.44C91.9198 201.446 91.965 201.44 92.0067 201.424C93.1861 200.868 96.3472 199.413 96.5131 199.64C96.6791 199.868 93.289 202.635 93.0439 202.834C92.631 203.177 92.1295 203.489 91.7309 203.856C91.2214 204.328 91.2007 204.524 91.1164 205.227C90.9968 206.074 90.8771 206.921 90.7574 207.768C90.7491 207.825 90.7573 207.883 90.7811 207.935C90.8048 207.987 90.8431 208.032 90.8919 208.065C90.9406 208.098 90.9979 208.117 91.0573 208.12C91.1167 208.123 91.1759 208.111 91.2285 208.084C92.8182 207.259 97.0968 205.072 97.2627 205.3C97.3913 205.495 93.5588 208.406 93.2844 208.619C92.4141 209.296 90.751 210.111 90.2628 211.014C89.8868 211.71 89.9237 213.011 89.7808 213.786C91.5475 213.822 93.2936 213.402 94.8372 212.569C96.3808 211.737 97.6656 210.523 98.5576 209.054C100.051 206.568 99.9445 204.068 99.118 201.414C98.2788 198.862 97.1411 196.41 95.7264 194.106C95.2327 193.257 94.7051 192.423 94.1255 191.626C93.9256 191.361 93.5168 190.59 93.1453 190.514Z" fill="black"/>
<path opacity="0.2" d="M1615.5 142.578C1616.55 141.712 1620.73 142.662 1621.92 142.797C1625.86 143.203 1629.74 144.011 1633.49 145.206C1637.37 146.498 1640.53 148.361 1642.36 151.975C1643.48 154.232 1643.91 156.736 1643.61 159.21C1643.32 161.684 1642.3 164.032 1640.67 165.994C1639.83 165.146 1638.61 164.291 1637.95 163.315C1637.06 162.016 1637.54 159.421 1637.48 157.791C1637.46 157.31 1637.27 150.661 1636.92 150.64C1636.51 150.614 1635.43 157.139 1635.05 159.571C1635.03 159.648 1635 159.72 1634.94 159.78C1634.89 159.839 1634.82 159.884 1634.74 159.909C1634.66 159.934 1634.57 159.938 1634.49 159.922C1634.41 159.905 1634.34 159.868 1634.27 159.814C1633.36 158.958 1632.43 158.109 1631.51 157.267C1630.88 156.688 1630.56 156.462 1630.39 155.709C1630.22 154.956 1630.35 153.93 1630.29 153.132C1630.26 152.659 1629.91 146.669 1629.45 146.64C1629 146.611 1628.04 151.309 1627.69 153.067C1627.67 153.126 1627.64 153.18 1627.59 153.224C1627.55 153.268 1627.49 153.3 1627.43 153.319C1627.37 153.337 1627.3 153.34 1627.24 153.328C1627.18 153.315 1627.12 153.288 1627.07 153.249C1625.19 151.535 1619.35 146.178 1619.08 146.418C1618.8 146.658 1623.65 152.809 1625.21 154.788C1625.24 154.84 1625.26 154.899 1625.27 154.96C1625.27 155.021 1625.26 155.082 1625.23 155.138C1625.21 155.193 1625.16 155.241 1625.11 155.278C1625.06 155.314 1625 155.337 1624.93 155.345C1623.04 155.443 1617.99 155.753 1617.95 156.146C1617.9 156.539 1624.2 157.704 1624.66 157.787C1625.43 157.936 1626.29 157.987 1627.06 158.177C1628.05 158.42 1628.22 158.65 1628.84 159.465C1629.61 160.435 1630.39 161.406 1631.16 162.376C1631.21 162.441 1631.24 162.518 1631.25 162.599C1631.26 162.68 1631.24 162.761 1631.2 162.834C1631.17 162.907 1631.11 162.969 1631.04 163.013C1630.96 163.057 1630.88 163.081 1630.79 163.082C1628.19 163.123 1621.19 163.272 1621.15 163.665C1621.13 163.992 1628.09 165.04 1628.6 165.121C1630.19 165.379 1632.88 165.277 1634.16 166.07C1635.14 166.682 1636.05 168.32 1636.8 169.186C1634.6 170.411 1632.09 171.057 1629.53 171.057C1626.98 171.057 1624.47 170.411 1622.27 169.186C1618.56 167.1 1616.87 163.93 1615.96 160.087C1615.15 156.361 1614.79 152.561 1614.88 148.758C1614.88 147.375 1614.94 145.988 1615.08 144.613C1615.14 144.151 1615.09 142.92 1615.5 142.578Z" fill="black"/>
<path opacity="0.2" d="M1643.07 218.415C1642.02 217.549 1637.85 218.499 1636.66 218.634C1632.72 219.041 1628.84 219.848 1625.08 221.043C1621.21 222.335 1618.04 224.198 1616.21 227.812C1615.09 230.069 1614.66 232.573 1614.96 235.047C1615.26 237.521 1616.28 239.869 1617.9 241.831C1618.75 240.983 1619.96 240.128 1620.63 239.152C1621.52 237.853 1621.03 235.258 1621.1 233.628C1621.12 233.148 1621.31 226.498 1621.65 226.477C1622.07 226.451 1623.14 232.977 1623.53 235.408C1623.54 235.485 1623.58 235.557 1623.63 235.617C1623.69 235.676 1623.76 235.721 1623.84 235.746C1623.92 235.771 1624 235.775 1624.08 235.759C1624.16 235.742 1624.24 235.705 1624.3 235.651C1625.22 234.795 1626.14 233.946 1627.07 233.104C1627.7 232.525 1628.02 232.3 1628.19 231.546C1628.36 230.793 1628.23 229.767 1628.28 228.97C1628.31 228.496 1628.67 222.506 1629.12 222.477C1629.58 222.448 1630.53 227.146 1630.89 228.904C1630.9 228.963 1630.94 229.017 1630.98 229.061C1631.03 229.105 1631.08 229.137 1631.14 229.156C1631.21 229.174 1631.27 229.177 1631.34 229.165C1631.4 229.153 1631.46 229.126 1631.51 229.086C1633.38 227.372 1639.22 222.015 1639.5 222.255C1639.77 222.495 1634.92 228.646 1633.37 230.625C1633.33 230.677 1633.31 230.736 1633.31 230.797C1633.3 230.858 1633.32 230.919 1633.34 230.975C1633.37 231.03 1633.41 231.078 1633.46 231.115C1633.52 231.151 1633.58 231.174 1633.64 231.182C1635.54 231.281 1640.59 231.59 1640.63 231.983C1640.67 232.376 1634.37 233.541 1633.92 233.624C1633.14 233.774 1632.28 233.824 1631.51 234.014C1630.52 234.258 1630.35 234.487 1629.73 235.302C1628.96 236.273 1628.19 237.243 1627.42 238.214C1627.37 238.278 1627.33 238.355 1627.33 238.436C1627.32 238.517 1627.33 238.598 1627.37 238.671C1627.41 238.744 1627.47 238.806 1627.54 238.85C1627.61 238.894 1627.69 238.918 1627.78 238.92C1630.39 238.96 1637.38 239.109 1637.43 239.502C1637.45 239.829 1630.48 240.878 1629.98 240.958C1628.39 241.216 1625.69 241.114 1624.42 241.907C1623.43 242.519 1622.53 244.157 1621.78 245.023C1623.98 246.248 1626.49 246.894 1629.04 246.894C1631.6 246.894 1634.11 246.248 1636.31 245.023C1640.01 242.937 1641.71 239.768 1642.61 235.924C1643.42 232.199 1643.79 228.398 1643.69 224.595C1643.69 223.212 1643.64 221.826 1643.49 220.45C1643.43 219.988 1643.48 218.758 1643.07 218.415Z" fill="black"/>
<path opacity="0.2" d="M58.1471 0.520734C57.1016 -0.345433 52.9234 0.604439 51.7351 0.739095C47.7962 1.14579 43.9155 1.95358 40.161 3.14835C36.2837 4.44032 33.1201 6.30367 31.2875 9.91755C30.1716 12.1743 29.7392 14.6782 30.0381 17.1523C30.337 19.6265 31.3556 21.9744 32.9812 23.9363C33.8261 23.0884 35.0375 22.2331 35.705 21.2578C36.5962 19.9585 36.1101 17.3637 36.1757 15.7332C36.195 15.2528 36.384 8.60374 36.7274 8.58191C37.144 8.55643 38.2204 15.0818 38.6062 17.5129C38.6207 17.5903 38.657 17.6626 38.7113 17.7222C38.7657 17.7817 38.8361 17.8264 38.9151 17.8513C38.9941 17.8763 39.0788 17.8807 39.1603 17.864C39.2417 17.8474 39.3169 17.8103 39.3778 17.7567C40.296 16.9003 41.2181 16.0511 42.144 15.2092C42.7767 14.6305 43.0931 14.4049 43.2629 13.6515C43.4326 12.8982 43.3053 11.8719 43.3593 11.0749C43.3902 10.6017 43.7451 4.61137 44.2004 4.58225C44.6556 4.55314 45.6085 9.25155 45.9635 11.0094C45.9806 11.0683 46.0131 11.1223 46.0582 11.1663C46.1032 11.2102 46.1593 11.2428 46.2212 11.2609C46.2831 11.279 46.3488 11.2822 46.4123 11.27C46.4759 11.2578 46.5351 11.2308 46.5846 11.1913C48.4596 9.47719 54.3007 4.12006 54.5746 4.36025C54.8485 4.60045 49.999 10.751 48.4442 12.7308C48.4092 12.7823 48.3886 12.8413 48.3843 12.9024C48.3799 12.9635 48.3919 13.0246 48.4192 13.0801C48.4465 13.1356 48.4882 13.1837 48.5405 13.22C48.5927 13.2562 48.6538 13.2795 48.7181 13.2876C50.6124 13.3859 55.6626 13.6952 55.705 14.0883C55.7474 14.4813 49.4473 15.6459 48.992 15.7296C48.2204 15.8788 47.3601 15.9298 46.5885 16.119C45.6008 16.3629 45.4311 16.5921 44.8099 17.4073C44.0383 18.3778 43.2667 19.3483 42.4951 20.3188C42.4432 20.3836 42.4112 20.4606 42.4028 20.5414C42.3943 20.6221 42.4097 20.7036 42.4472 20.7766C42.4848 20.8497 42.543 20.9115 42.6154 20.9553C42.6878 20.9991 42.7717 21.0232 42.8578 21.0249C45.4658 21.0649 52.4604 21.2141 52.5028 21.6072C52.5221 21.9347 45.5584 22.9828 45.0568 23.0629C43.4635 23.3213 40.7706 23.2194 39.4936 24.0128C38.5098 24.6242 37.6031 26.2619 36.8547 27.1281C39.0554 28.3532 41.564 28.9993 44.1193 28.9993C46.6747 28.9993 49.1833 28.3532 51.384 27.1281C55.0877 25.0427 56.7852 21.8728 57.688 18.0297C58.5006 14.3038 58.863 10.5032 58.7683 6.70036C58.7683 5.3174 58.7142 3.93081 58.5676 2.55513C58.5098 2.09294 58.5599 0.862833 58.1471 0.520734Z" fill="black"/>
<path opacity="0.2" d="M1676.51 0.520734C1677.55 -0.345433 1681.73 0.604439 1682.92 0.739095C1686.86 1.14579 1690.74 1.95358 1694.49 3.14835C1698.37 4.44032 1701.53 6.30367 1703.37 9.91755C1704.48 12.1743 1704.91 14.6782 1704.61 17.1523C1704.32 19.6265 1703.3 21.9744 1701.67 23.9363C1700.83 23.0884 1699.62 22.2331 1698.95 21.2578C1698.06 19.9585 1698.54 17.3637 1698.48 15.7332C1698.46 15.2528 1698.27 8.60374 1697.93 8.58191C1697.51 8.55643 1696.43 15.0818 1696.05 17.5129C1696.03 17.5903 1696 17.6626 1695.94 17.7222C1695.89 17.7817 1695.82 17.8264 1695.74 17.8513C1695.66 17.8763 1695.57 17.8807 1695.49 17.864C1695.41 17.8474 1695.34 17.8103 1695.27 17.7567C1694.36 16.9003 1693.43 16.0511 1692.51 15.2092C1691.88 14.6305 1691.56 14.4049 1691.39 13.6515C1691.22 12.8982 1691.35 11.8719 1691.29 11.0749C1691.26 10.6017 1690.91 4.61137 1690.45 4.58225C1690 4.55314 1689.04 9.25155 1688.69 11.0094C1688.67 11.0683 1688.64 11.1223 1688.59 11.1663C1688.55 11.2102 1688.49 11.2428 1688.43 11.2609C1688.37 11.279 1688.3 11.2822 1688.24 11.27C1688.18 11.2578 1688.12 11.2308 1688.07 11.1913C1686.19 9.47719 1680.35 4.12006 1680.08 4.36025C1679.8 4.60045 1684.65 10.751 1686.21 12.7308C1686.24 12.7823 1686.26 12.8413 1686.27 12.9024C1686.27 12.9635 1686.26 13.0246 1686.23 13.0801C1686.21 13.1356 1686.16 13.1837 1686.11 13.22C1686.06 13.2562 1686 13.2795 1685.93 13.2876C1684.04 13.3859 1678.99 13.6952 1678.95 14.0883C1678.91 14.4813 1685.21 15.6459 1685.66 15.7296C1686.43 15.8788 1687.29 15.9298 1688.06 16.119C1689.05 16.3629 1689.22 16.5921 1689.84 17.4073C1690.61 18.3778 1691.39 19.3483 1692.16 20.3188C1692.21 20.3836 1692.24 20.4606 1692.25 20.5414C1692.26 20.6221 1692.24 20.7036 1692.21 20.7766C1692.17 20.8497 1692.11 20.9115 1692.04 20.9553C1691.96 20.9991 1691.88 21.0232 1691.79 21.0249C1689.19 21.0649 1682.19 21.2141 1682.15 21.6072C1682.13 21.9347 1689.09 22.9828 1689.6 23.0629C1691.19 23.3213 1693.88 23.2194 1695.16 24.0128C1696.14 24.6242 1697.05 26.2619 1697.8 27.1281C1695.6 28.3532 1693.09 28.9993 1690.53 28.9993C1687.98 28.9993 1685.47 28.3532 1683.27 27.1281C1679.56 25.0427 1677.87 21.8728 1676.96 18.0297C1676.15 14.3038 1675.79 10.5032 1675.88 6.70036C1675.88 5.3174 1675.94 3.93081 1676.08 2.55513C1676.14 2.09294 1676.09 0.862833 1676.51 0.520734Z" fill="black"/>
<path opacity="0.2" d="M42.2685 109.616C41.28 109.767 39.8671 112.442 39.3873 113.139C37.7742 115.431 36.4191 117.88 35.3456 120.443C34.2706 123.117 33.8588 125.678 35.0781 128.35C35.8528 130.004 37.0903 131.409 38.6535 132.409C40.2167 133.41 42.0449 133.968 43.9357 134.021C43.8441 133.172 43.9203 132.125 43.6723 131.312C43.3429 130.227 41.6224 129.269 40.7154 128.47C40.4481 128.234 36.7123 125.016 36.8608 124.822C37.0415 124.588 41.2995 127.074 42.8787 128.008C42.93 128.037 42.9887 128.051 43.0484 128.05C43.1082 128.049 43.1669 128.032 43.2183 128.002C43.2697 127.971 43.3119 127.928 43.3405 127.877C43.3691 127.826 43.3831 127.768 43.3808 127.711C43.3188 126.819 43.2627 125.929 43.2127 125.04C43.1765 124.432 43.1951 124.157 42.8414 123.713C42.4877 123.269 41.8377 122.856 41.4046 122.453C41.1469 122.215 37.8678 119.217 38.0646 118.96C38.2613 118.704 41.4106 120.399 42.5881 121.034C42.63 121.052 42.6763 121.06 42.7227 121.057C42.7691 121.053 42.8142 121.039 42.8536 121.014C42.8931 120.99 42.9257 120.956 42.9485 120.916C42.9713 120.877 42.9835 120.832 42.984 120.788C42.8773 118.984 42.5351 113.356 42.8017 113.322C43.0683 113.289 44.3318 118.76 44.7415 120.517C44.7547 120.56 44.779 120.599 44.8121 120.63C44.8452 120.661 44.886 120.683 44.9307 120.695C44.9754 120.706 45.0226 120.706 45.068 120.696C45.1134 120.685 45.1554 120.663 45.1902 120.632C46.135 119.668 48.6811 117.119 48.9271 117.281C49.1731 117.443 46.8886 121.349 46.7232 121.631C46.4472 122.113 46.0731 122.596 45.8201 123.096C45.4972 123.737 45.5495 123.936 45.7271 124.649C45.9235 125.516 46.1199 126.383 46.3163 127.249C46.3292 127.307 46.3585 127.36 46.401 127.403C46.4435 127.445 46.4975 127.475 46.5571 127.489C46.6167 127.504 46.6796 127.502 46.7388 127.484C46.798 127.465 46.8511 127.432 46.8924 127.387C48.1384 126.014 51.5042 122.353 51.7502 122.515C51.9476 122.658 49.285 126.864 49.0959 127.169C48.4973 128.141 47.1759 129.529 47.0334 130.583C46.9238 131.394 47.4406 132.646 47.5878 133.451C49.3245 132.852 50.8725 131.816 52.0708 130.453C53.269 129.09 54.0737 127.449 54.4011 125.701C54.9384 122.747 53.9112 120.355 52.124 118.071C50.362 115.891 48.3459 113.915 46.1142 112.182C45.3187 111.534 44.4959 110.912 43.6359 110.346C43.3429 110.16 42.6589 109.556 42.2685 109.616Z" fill="black"/>
<path opacity="0.2" d="M1684.62 127.773C1685.61 127.925 1687.02 130.599 1687.5 131.296C1689.11 133.588 1690.47 136.037 1691.54 138.6C1692.62 141.274 1693.03 143.835 1691.81 146.507C1691.04 148.161 1689.8 149.566 1688.24 150.567C1686.67 151.567 1684.84 152.125 1682.95 152.178C1683.05 151.329 1682.97 150.282 1683.22 149.469C1683.55 148.384 1685.27 147.427 1686.17 146.627C1686.44 146.391 1690.18 143.173 1690.03 142.979C1689.85 142.745 1685.59 145.231 1684.01 146.165C1683.96 146.194 1683.9 146.208 1683.84 146.207C1683.78 146.206 1683.72 146.189 1683.67 146.159C1683.62 146.129 1683.58 146.085 1683.55 146.034C1683.52 145.983 1683.51 145.925 1683.51 145.868C1683.57 144.976 1683.63 144.086 1683.68 143.198C1683.71 142.589 1683.69 142.314 1684.05 141.87C1684.4 141.426 1685.05 141.013 1685.48 140.611C1685.74 140.372 1689.02 137.374 1688.82 137.117C1688.63 136.861 1685.48 138.556 1684.3 139.191C1684.26 139.209 1684.21 139.217 1684.17 139.214C1684.12 139.21 1684.08 139.196 1684.04 139.171C1684 139.147 1683.96 139.113 1683.94 139.073C1683.92 139.034 1683.91 138.99 1683.91 138.945C1684.01 137.141 1684.35 131.513 1684.09 131.479C1683.82 131.446 1682.56 136.917 1682.15 138.675C1682.13 138.717 1682.11 138.756 1682.08 138.787C1682.04 138.818 1682 138.84 1681.96 138.852C1681.91 138.863 1681.87 138.863 1681.82 138.853C1681.78 138.842 1681.73 138.82 1681.7 138.79C1680.75 137.825 1678.21 135.276 1677.96 135.438C1677.72 135.6 1680 139.507 1680.17 139.789C1680.44 140.27 1680.82 140.753 1681.07 141.253C1681.39 141.895 1681.34 142.093 1681.16 142.806C1680.97 143.673 1680.77 144.54 1680.57 145.406C1680.56 145.464 1680.53 145.518 1680.49 145.56C1680.45 145.602 1680.39 145.632 1680.33 145.647C1680.27 145.661 1680.21 145.659 1680.15 145.641C1680.09 145.623 1680.04 145.589 1680 145.544C1678.75 144.172 1675.38 140.51 1675.14 140.672C1674.94 140.815 1677.6 145.021 1677.79 145.327C1678.39 146.298 1679.71 147.686 1679.86 148.74C1679.97 149.551 1679.45 150.803 1679.3 151.608C1677.56 151.009 1676.02 149.974 1674.82 148.61C1673.62 147.247 1672.82 145.606 1672.49 143.858C1671.95 140.904 1672.98 138.512 1674.77 136.228C1676.53 134.048 1678.54 132.072 1680.77 130.34C1681.57 129.691 1682.39 129.07 1683.25 128.503C1683.55 128.317 1684.23 127.713 1684.62 127.773Z" fill="black"/>
<path opacity="0.2" d="M90.2067 113.126C90.9109 112.441 90.409 109.479 90.3681 108.644C90.2623 105.877 89.8521 103.13 89.1445 100.452C88.3701 97.6831 87.1299 95.3828 84.5062 93.9217C82.8663 93.0291 81.0059 92.6004 79.1308 92.6832C77.2556 92.766 75.4388 93.357 73.8813 94.3908C74.4759 95.0229 75.0573 95.9109 75.7567 96.4258C76.6882 97.1131 78.6636 96.9059 79.886 97.0344C80.2461 97.0723 85.2351 97.5417 85.2341 97.7822C85.2321 98.074 80.2719 98.4931 78.4247 98.6387C78.3657 98.6448 78.3095 98.6665 78.262 98.7014C78.2145 98.7363 78.1773 98.7831 78.1546 98.8369C78.1318 98.8907 78.1242 98.9495 78.1326 99.0072C78.1409 99.0648 78.165 99.1191 78.2022 99.1643C78.7994 99.848 79.391 100.534 79.9769 101.222C80.3798 101.693 80.5334 101.925 81.0911 102.081C81.6488 102.238 82.4268 102.201 83.0232 102.279C83.3774 102.325 87.8627 102.877 87.8615 103.196C87.8602 103.514 84.2798 103.94 82.9403 104.098C82.8951 104.107 82.8529 104.127 82.8175 104.157C82.7822 104.186 82.7549 104.223 82.7381 104.265C82.7213 104.308 82.7156 104.353 82.7215 104.398C82.7275 104.443 82.7448 104.486 82.7719 104.522C83.9654 105.917 87.6961 110.261 87.5016 110.44C87.3072 110.619 82.9296 106.925 81.5202 105.741C81.4832 105.714 81.4399 105.696 81.3942 105.69C81.3486 105.684 81.302 105.689 81.2589 105.706C81.2158 105.722 81.1775 105.748 81.1476 105.783C81.1177 105.818 81.0971 105.859 81.0877 105.903C80.9177 107.219 80.4287 110.724 80.1311 110.734C79.8334 110.744 79.2778 106.292 79.238 105.97C79.165 105.425 79.1704 104.822 79.0673 104.275C78.9341 103.574 78.7704 103.444 78.1891 102.969C77.4986 102.382 76.8082 101.795 76.1178 101.208C76.0718 101.168 76.0155 101.142 75.9552 101.132C75.8949 101.122 75.8329 101.129 75.7761 101.151C75.7193 101.173 75.6698 101.211 75.6332 101.259C75.5966 101.307 75.5743 101.365 75.5686 101.425C75.4061 103.241 74.9388 108.11 74.6412 108.12C74.394 108.117 73.9596 103.208 73.9249 102.854C73.8115 101.73 74.0248 99.858 73.4932 98.9274C73.0835 98.2104 71.8984 97.4951 71.2852 96.9293C70.2525 98.4015 69.6394 100.118 69.5096 101.899C69.3799 103.681 69.7383 105.463 70.5476 107.059C71.9272 109.747 74.224 111.092 77.0674 111.917C79.8271 112.672 82.6659 113.118 85.5295 113.245C86.5692 113.315 87.6143 113.348 88.6559 113.315C89.0063 113.299 89.9285 113.396 90.2067 113.126Z" fill="black"/>
<path opacity="0.2" d="M1644.45 113.126C1643.74 112.441 1644.24 109.479 1644.29 108.644C1644.39 105.877 1644.8 103.13 1645.51 100.452C1646.28 97.6831 1647.52 95.3828 1650.15 93.9217C1651.79 93.0291 1653.65 92.6004 1655.52 92.6832C1657.4 92.766 1659.21 93.357 1660.77 94.3908C1660.18 95.0229 1659.6 95.9109 1658.9 96.4258C1657.97 97.1131 1655.99 96.9059 1654.77 97.0344C1654.41 97.0723 1649.42 97.5417 1649.42 97.7822C1649.42 98.074 1654.38 98.4931 1656.23 98.6387C1656.29 98.6448 1656.34 98.6665 1656.39 98.7014C1656.44 98.7363 1656.48 98.7831 1656.5 98.8369C1656.52 98.8907 1656.53 98.9495 1656.52 99.0072C1656.51 99.0648 1656.49 99.1191 1656.45 99.1643C1655.85 99.848 1655.26 100.534 1654.68 101.222C1654.27 101.693 1654.12 101.925 1653.56 102.081C1653 102.238 1652.23 102.201 1651.63 102.279C1651.28 102.325 1646.79 102.877 1646.79 103.196C1646.79 103.514 1650.37 103.94 1651.71 104.098C1651.76 104.107 1651.8 104.127 1651.84 104.157C1651.87 104.186 1651.9 104.223 1651.92 104.265C1651.93 104.308 1651.94 104.353 1651.93 104.398C1651.93 104.443 1651.91 104.486 1651.88 104.522C1650.69 105.917 1646.96 110.261 1647.15 110.44C1647.35 110.619 1651.72 106.925 1653.13 105.741C1653.17 105.714 1653.21 105.696 1653.26 105.69C1653.3 105.684 1653.35 105.689 1653.39 105.706C1653.44 105.722 1653.48 105.748 1653.51 105.783C1653.54 105.818 1653.56 105.859 1653.57 105.903C1653.74 107.219 1654.22 110.724 1654.52 110.734C1654.82 110.744 1655.38 106.292 1655.42 105.97C1655.49 105.425 1655.48 104.822 1655.59 104.275C1655.72 103.574 1655.88 103.444 1656.46 102.969C1657.15 102.382 1657.85 101.795 1658.54 101.208C1658.58 101.168 1658.64 101.142 1658.7 101.132C1658.76 101.122 1658.82 101.129 1658.88 101.151C1658.93 101.173 1658.98 101.211 1659.02 101.259C1659.06 101.307 1659.08 101.365 1659.08 101.425C1659.25 103.241 1659.71 108.11 1660.01 108.12C1660.26 108.117 1660.69 103.208 1660.73 102.854C1660.84 101.73 1660.63 99.858 1661.16 98.9274C1661.57 98.2104 1662.76 97.4951 1663.37 96.9293C1664.4 98.4015 1665.01 100.118 1665.14 101.899C1665.27 103.681 1664.92 105.463 1664.11 107.059C1662.73 109.747 1660.43 111.092 1657.59 111.917C1654.83 112.672 1651.99 113.118 1649.12 113.245C1648.08 113.315 1647.04 113.348 1646 113.315C1645.65 113.299 1644.73 113.396 1644.45 113.126Z" fill="black"/>
<path opacity="0.2" d="M43.0208 74.835C43.4446 74.4229 43.1425 72.6409 43.1179 72.1383C43.0543 70.4733 42.8074 68.8206 42.3817 67.2089C41.9157 65.5428 41.1694 64.1586 39.5906 63.2794C38.6038 62.7422 37.4844 62.4843 36.356 62.5341C35.2277 62.584 34.1344 62.9396 33.1973 63.5616C33.555 63.942 33.9049 64.4764 34.3257 64.7862C34.8862 65.1998 36.0749 65.0751 36.8105 65.1524C37.0272 65.1752 40.0292 65.4577 40.0286 65.6024C40.0274 65.778 37.0427 66.0302 35.9312 66.1178C35.8957 66.1215 35.8619 66.1345 35.8333 66.1555C35.8047 66.1765 35.7823 66.2046 35.7686 66.237C35.7549 66.2694 35.7503 66.3048 35.7554 66.3395C35.7604 66.3742 35.7749 66.4068 35.7973 66.434C36.1567 66.8454 36.5126 67.2582 36.8652 67.6724C37.1076 67.9555 37.2 68.0951 37.5356 68.1894C37.8712 68.2836 38.3394 68.2615 38.6983 68.3086C38.9114 68.336 41.6103 68.6679 41.6096 68.8598C41.6089 69.0516 39.4544 69.3079 38.6483 69.4031C38.6211 69.4085 38.5957 69.4205 38.5745 69.438C38.5532 69.4556 38.5368 69.4781 38.5267 69.5035C38.5166 69.529 38.5132 69.5564 38.5167 69.5835C38.5203 69.6105 38.5307 69.6362 38.5471 69.6581C39.2652 70.4971 41.5101 73.1113 41.3931 73.2189C41.2761 73.3265 38.6419 71.104 37.7939 70.3913C37.7716 70.375 37.7455 70.3646 37.718 70.3609C37.6906 70.3572 37.6626 70.3604 37.6366 70.3701C37.6107 70.3799 37.5876 70.3959 37.5696 70.4167C37.5516 70.4375 37.5392 70.4624 37.5336 70.4892C37.4313 71.2809 37.1371 73.3902 36.958 73.396C36.7789 73.4018 36.4445 70.723 36.4206 70.5295C36.3766 70.2012 36.3799 69.8387 36.3178 69.5092C36.2377 69.0874 36.1392 69.0092 35.7894 68.7237C35.3739 68.3703 34.9585 68.0169 34.543 67.6636C34.5153 67.6398 34.4815 67.6241 34.4452 67.618C34.4089 67.612 34.3716 67.616 34.3374 67.6295C34.3032 67.643 34.2735 67.6655 34.2514 67.6946C34.2294 67.7237 34.2159 67.7581 34.2126 67.7942C34.1148 68.8871 33.8336 71.817 33.6545 71.8228C33.5057 71.8209 33.2443 68.8674 33.2234 68.6545C33.1552 67.9781 33.2836 66.8515 32.9637 66.2915C32.7172 65.8601 32.0041 65.4297 31.6351 65.0892C31.0137 65.975 30.6447 67.0078 30.5667 68.0798C30.4886 69.1519 30.7043 70.2241 31.1912 71.1848C32.0214 72.8023 33.4035 73.6113 35.1144 74.1075C36.775 74.5622 38.4832 74.8304 40.2064 74.9068C40.832 74.9491 41.4609 74.9688 42.0877 74.9493C42.2985 74.9391 42.8534 74.9978 43.0208 74.835Z" fill="black"/>
<path opacity="0.2" d="M1691.63 74.835C1691.21 74.4229 1691.51 72.6409 1691.53 72.1383C1691.6 70.4733 1691.85 68.8206 1692.27 67.2089C1692.74 65.5428 1693.48 64.1586 1695.06 63.2794C1696.05 62.7422 1697.17 62.4843 1698.3 62.5341C1699.43 62.584 1700.52 62.9396 1701.46 63.5616C1701.1 63.942 1700.75 64.4764 1700.33 64.7862C1699.77 65.1998 1698.58 65.0751 1697.84 65.1524C1697.63 65.1752 1694.62 65.4577 1694.62 65.6024C1694.63 65.778 1697.61 66.0302 1698.72 66.1178C1698.76 66.1215 1698.79 66.1345 1698.82 66.1555C1698.85 66.1765 1698.87 66.2046 1698.88 66.237C1698.9 66.2694 1698.9 66.3048 1698.9 66.3395C1698.89 66.3742 1698.88 66.4068 1698.86 66.434C1698.5 66.8454 1698.14 67.2582 1697.79 67.6724C1697.55 67.9555 1697.45 68.0951 1697.12 68.1894C1696.78 68.2836 1696.31 68.2615 1695.95 68.3086C1695.74 68.336 1693.04 68.6679 1693.04 68.8598C1693.04 69.0516 1695.2 69.3079 1696 69.4031C1696.03 69.4085 1696.06 69.4205 1696.08 69.438C1696.1 69.4556 1696.12 69.4781 1696.13 69.5035C1696.14 69.529 1696.14 69.5564 1696.14 69.5835C1696.13 69.6105 1696.12 69.6362 1696.11 69.6581C1695.39 70.4971 1693.14 73.1113 1693.26 73.2189C1693.38 73.3265 1696.01 71.104 1696.86 70.3913C1696.88 70.375 1696.91 70.3646 1696.93 70.3609C1696.96 70.3572 1696.99 70.3604 1697.02 70.3701C1697.04 70.3799 1697.07 70.3959 1697.08 70.4167C1697.1 70.4375 1697.11 70.4624 1697.12 70.4892C1697.22 71.2809 1697.52 73.3902 1697.69 73.396C1697.87 73.4018 1698.21 70.723 1698.23 70.5295C1698.28 70.2012 1698.27 69.8387 1698.34 69.5092C1698.42 69.0874 1698.51 69.0092 1698.86 68.7237C1699.28 68.3703 1699.69 68.0169 1700.11 67.6636C1700.14 67.6398 1700.17 67.6241 1700.21 67.618C1700.24 67.612 1700.28 67.616 1700.32 67.6295C1700.35 67.643 1700.38 67.6655 1700.4 67.6946C1700.42 67.7237 1700.44 67.7581 1700.44 67.7942C1700.54 68.8871 1700.82 71.817 1701 71.8228C1701.15 71.8209 1701.41 68.8674 1701.43 68.6545C1701.5 67.9781 1701.37 66.8515 1701.69 66.2915C1701.94 65.8601 1702.65 65.4297 1703.02 65.0892C1703.64 65.975 1704.01 67.0078 1704.09 68.0798C1704.16 69.1519 1703.95 70.2241 1703.46 71.1848C1702.63 72.8023 1701.25 73.6113 1699.54 74.1075C1697.88 74.5622 1696.17 74.8304 1694.45 74.9068C1693.82 74.9491 1693.19 74.9688 1692.57 74.9493C1692.35 74.9391 1691.8 74.9978 1691.63 74.835Z" fill="black"/>
<path opacity="0.2" d="M1583.73 248.914C1583.31 248.502 1583.61 246.72 1583.63 246.218C1583.7 244.553 1583.94 242.9 1584.37 241.288C1584.83 239.622 1585.58 238.238 1587.16 237.359C1588.15 236.822 1589.27 236.564 1590.39 236.614C1591.52 236.663 1592.62 237.019 1593.55 237.641C1593.2 238.021 1592.85 238.556 1592.42 238.866C1591.86 239.279 1590.68 239.155 1589.94 239.232C1589.72 239.255 1586.72 239.537 1586.72 239.682C1586.72 239.857 1589.71 240.11 1590.82 240.197C1590.85 240.201 1590.89 240.214 1590.92 240.235C1590.95 240.256 1590.97 240.284 1590.98 240.316C1591 240.349 1591 240.384 1591 240.419C1590.99 240.454 1590.98 240.486 1590.95 240.514C1590.59 240.925 1590.24 241.338 1589.89 241.752C1589.64 242.035 1589.55 242.175 1589.21 242.269C1588.88 242.363 1588.41 242.341 1588.05 242.388C1587.84 242.415 1585.14 242.747 1585.14 242.939C1585.14 243.131 1587.3 243.387 1588.1 243.483C1588.13 243.488 1588.15 243.5 1588.18 243.518C1588.2 243.535 1588.21 243.558 1588.22 243.583C1588.23 243.608 1588.24 243.636 1588.23 243.663C1588.23 243.69 1588.22 243.716 1588.2 243.738C1587.49 244.577 1585.24 247.191 1585.36 247.298C1585.47 247.406 1588.11 245.184 1588.96 244.471C1588.98 244.454 1589 244.444 1589.03 244.44C1589.06 244.437 1589.09 244.44 1589.11 244.45C1589.14 244.459 1589.16 244.475 1589.18 244.496C1589.2 244.517 1589.21 244.542 1589.22 244.569C1589.32 245.36 1589.61 247.47 1589.79 247.475C1589.97 247.481 1590.31 244.803 1590.33 244.609C1590.37 244.281 1590.37 243.918 1590.43 243.589C1590.51 243.167 1590.61 243.089 1590.96 242.803C1591.38 242.45 1591.79 242.096 1592.21 241.743C1592.24 241.719 1592.27 241.704 1592.31 241.698C1592.34 241.691 1592.38 241.695 1592.41 241.709C1592.45 241.722 1592.48 241.745 1592.5 241.774C1592.52 241.803 1592.53 241.838 1592.54 241.874C1592.64 242.967 1592.92 245.897 1593.1 245.902C1593.24 245.9 1593.51 242.947 1593.53 242.734C1593.6 242.058 1593.47 240.931 1593.79 240.371C1594.03 239.94 1594.75 239.509 1595.12 239.169C1595.74 240.055 1596.11 241.087 1596.18 242.159C1596.26 243.231 1596.05 244.304 1595.56 245.264C1594.73 246.882 1593.35 247.691 1591.64 248.187C1589.98 248.642 1588.27 248.91 1586.54 248.986C1585.92 249.029 1585.29 249.048 1584.66 249.029C1584.45 249.019 1583.9 249.077 1583.73 248.914Z" fill="black"/>
<path opacity="0.2" d="M13.0338 149.734C11.1818 150.907 10.861 157.547 10.5523 159.375C9.46546 165.418 9.04811 171.552 9.30758 177.668C9.66885 184.011 11.2625 189.543 16.2537 193.867C19.383 196.525 23.2111 198.275 27.3143 198.923C31.4175 199.57 35.636 199.091 39.5032 197.538C38.5153 195.905 37.6775 193.724 36.4068 192.3C34.715 190.399 30.3353 189.977 27.7473 189.159C26.9847 188.918 16.3958 185.7 16.5124 185.18C16.6556 184.548 27.6048 185.828 31.6773 186.327C31.8079 186.34 31.94 186.318 32.0596 186.263C32.1793 186.208 32.282 186.123 32.3569 186.017C32.4319 185.91 32.4764 185.786 32.4856 185.657C32.4949 185.529 32.4685 185.401 32.4094 185.286C31.4403 183.541 30.4845 181.793 29.5421 180.043C28.8928 178.846 28.6703 178.275 27.5361 177.69C26.4019 177.104 24.6984 176.841 23.4429 176.408C22.6972 176.153 13.2388 172.979 13.3932 172.289C13.5475 171.598 21.5097 172.255 24.4879 172.503C24.5902 172.503 24.6911 172.479 24.7816 172.431C24.8721 172.383 24.9491 172.314 25.0055 172.23C25.062 172.146 25.096 172.05 25.1046 171.95C25.1131 171.85 25.0958 171.75 25.0543 171.658C23.1311 168.11 17.1122 157.049 17.6187 156.747C18.1253 156.446 25.8555 166.381 28.3466 169.57C28.4139 169.645 28.4995 169.702 28.5956 169.735C28.6917 169.769 28.7951 169.778 28.8962 169.762C28.9974 169.745 29.093 169.705 29.1743 169.643C29.2556 169.581 29.3199 169.5 29.3613 169.408C30.3557 166.632 33.0827 159.251 33.7323 159.361C34.3819 159.472 33.4687 169.364 33.402 170.079C33.3007 171.294 33.0025 172.597 32.9654 173.829C32.9206 175.407 33.2136 175.761 34.2478 177.046C35.4647 178.623 36.6817 180.2 37.8986 181.777C37.9796 181.883 38.0891 181.965 38.215 182.013C38.341 182.061 38.4784 182.074 38.6123 182.051C38.7461 182.027 38.8711 181.968 38.9734 181.879C39.0757 181.791 39.1514 181.677 39.1921 181.549C40.4082 177.685 43.7369 167.338 44.3866 167.449C44.9208 167.565 43.5275 178.394 43.4345 179.176C43.1456 181.662 41.7926 185.626 42.5021 187.877C43.0489 189.612 45.2772 191.684 46.3369 193.181C49.2753 190.446 51.4204 186.997 52.549 183.193C53.6776 179.39 53.7484 175.37 52.754 171.553C51.0426 165.118 46.7044 161.191 40.9345 158.15C35.3131 155.295 29.3727 153.077 23.227 151.538C21.0072 150.927 18.7578 150.395 16.4849 150.006C15.7175 149.888 13.7652 149.27 13.0338 149.734Z" fill="black"/>
<path opacity="0.2" d="M1714.96 163.618C1716.82 164.792 1717.14 171.431 1717.45 173.259C1718.53 179.302 1718.95 185.436 1718.69 191.553C1718.33 197.895 1716.74 203.427 1711.74 207.751C1708.62 210.409 1704.79 212.159 1700.68 212.807C1696.58 213.454 1692.36 212.975 1688.5 211.422C1689.48 209.79 1690.32 207.608 1691.59 206.184C1693.28 204.284 1697.66 203.861 1700.25 203.044C1701.01 202.803 1711.6 199.585 1711.49 199.064C1711.34 198.432 1700.39 199.712 1696.32 200.211C1696.19 200.224 1696.06 200.202 1695.94 200.147C1695.82 200.093 1695.72 200.008 1695.64 199.901C1695.57 199.794 1695.52 199.67 1695.51 199.542C1695.5 199.413 1695.53 199.285 1695.59 199.17C1696.56 197.425 1697.51 195.678 1698.46 193.927C1699.11 192.73 1699.33 192.159 1700.46 191.574C1701.6 190.989 1703.3 190.725 1704.56 190.292C1705.3 190.038 1714.76 186.863 1714.61 186.173C1714.45 185.482 1706.49 186.139 1703.51 186.387C1703.41 186.388 1703.31 186.363 1703.22 186.315C1703.13 186.268 1703.05 186.199 1702.99 186.114C1702.94 186.03 1702.9 185.934 1702.89 185.834C1702.89 185.734 1702.9 185.634 1702.94 185.543C1704.87 181.994 1710.89 170.933 1710.38 170.632C1709.87 170.33 1702.14 180.266 1699.65 183.454C1699.58 183.529 1699.5 183.586 1699.4 183.619C1699.31 183.653 1699.2 183.662 1699.1 183.646C1699 183.63 1698.91 183.589 1698.82 183.527C1698.74 183.465 1698.68 183.385 1698.64 183.293C1697.64 180.516 1694.92 173.135 1694.27 173.245C1693.62 173.356 1694.53 183.249 1694.6 183.963C1694.7 185.178 1695 186.481 1695.03 187.713C1695.08 189.291 1694.78 189.645 1693.75 190.93C1692.53 192.507 1691.32 194.084 1690.1 195.662C1690.02 195.768 1689.91 195.849 1689.78 195.897C1689.66 195.946 1689.52 195.959 1689.39 195.935C1689.25 195.911 1689.13 195.852 1689.03 195.764C1688.92 195.675 1688.85 195.561 1688.81 195.434C1687.59 191.569 1684.26 181.223 1683.61 181.333C1683.08 181.449 1684.47 192.278 1684.56 193.06C1684.85 195.546 1686.21 199.51 1685.5 201.761C1684.95 203.496 1682.72 205.569 1681.66 207.065C1678.72 204.33 1676.58 200.882 1675.45 197.078C1674.32 193.274 1674.25 189.254 1675.24 185.437C1676.96 179.003 1681.29 175.076 1687.06 172.034C1692.69 169.179 1698.63 166.961 1704.77 165.422C1706.99 164.812 1709.24 164.28 1711.51 163.89C1712.28 163.772 1714.23 163.154 1714.96 163.618Z" fill="black"/>
</svg>
