<svg width="1728" height="345" viewBox="0 0 1728 345" fill="none" xmlns="http://www.w3.org/2000/svg">
<path opacity="0.1" fill-rule="evenodd" clip-rule="evenodd" d="M0 336.331V201.959C231.601 273.718 527.871 319.55 853.411 326.814L861.904 335.335C863.073 336.508 864.97 336.508 866.139 335.335L874.222 327.225C897.58 327.626 921.084 327.829 944.721 327.829C1233.49 327.829 1502.44 297.52 1728 245.322V336.331H0Z" fill="black"/>
<path opacity="0.2" fill-rule="evenodd" clip-rule="evenodd" d="M0 336.331V216.046C231.841 280.349 528.486 321.395 854.426 327.832L861.904 335.335C863.073 336.508 864.97 336.508 866.139 335.335L873.285 328.165C896.952 328.534 920.768 328.721 944.721 328.721C1233.49 328.721 1502.44 301.589 1728 254.863V336.331H0Z" fill="black"/>
<path fill-rule="evenodd" clip-rule="evenodd" d="M0 345L0.00123596 234.468C232.155 288.996 529.287 323.776 855.745 329.155L861.904 335.335C863.073 336.508 864.97 336.508 866.139 335.335L872.055 329.399C896.127 329.723 920.354 329.886 944.722 329.886C1233.49 329.886 1502.44 306.91 1728 267.34L1728 345H0Z" fill="black"/>
<g opacity="0.2">
<path d="M33 190.641C29.4399 190.641 25.9598 189.582 22.9997 187.597C20.0397 185.613 17.7326 182.792 16.3702 179.492C15.0078 176.192 14.6513 172.56 15.3459 169.057C16.0404 165.554 17.7547 162.335 20.2721 159.81C22.7894 157.284 25.9967 155.564 29.4884 154.867C32.98 154.17 36.5992 154.528 39.8883 155.894C43.1774 157.261 45.9886 159.576 47.9665 162.546C49.9443 165.516 51 169.008 51 172.58C51 177.37 49.1036 181.964 45.7279 185.351C42.3523 188.738 37.7739 190.641 33 190.641ZM33 161.744C30.864 161.744 28.7759 162.38 26.9998 163.57C25.2238 164.761 23.8395 166.453 23.0221 168.433C22.2047 170.414 21.9908 172.592 22.4075 174.695C22.8242 176.797 23.8528 178.727 25.3633 180.243C26.8737 181.758 28.798 182.791 30.893 183.209C32.988 183.627 35.1595 183.412 37.133 182.592C39.1064 181.772 40.7932 180.383 41.9799 178.601C43.1666 176.819 43.8 174.724 43.8 172.58C43.8 169.706 42.6622 166.95 40.6368 164.918C38.6114 162.886 35.8643 161.744 33 161.744Z" fill="black"/>
<path d="M91 208.702C88.8244 208.702 86.6977 208.055 84.8887 206.842C83.0798 205.629 81.6699 203.905 80.8373 201.889C80.0048 199.872 79.7869 197.653 80.2114 195.512C80.6358 193.371 81.6835 191.404 83.2218 189.86C84.7602 188.317 86.7202 187.266 88.854 186.84C90.9878 186.414 93.1995 186.632 95.2095 187.468C97.2195 188.303 98.9375 189.718 100.146 191.533C101.355 193.348 102 195.482 102 197.665C102 200.592 100.841 203.399 98.7782 205.469C96.7153 207.539 93.9174 208.702 91 208.702ZM91 191.043C89.6946 191.043 88.4186 191.431 87.3332 192.159C86.2479 192.886 85.4019 193.92 84.9024 195.131C84.4029 196.341 84.2722 197.672 84.5268 198.957C84.7815 200.241 85.4101 201.421 86.3331 202.347C87.2561 203.274 88.4321 203.904 89.7124 204.16C90.9927 204.415 92.3197 204.284 93.5257 203.783C94.7317 203.282 95.7625 202.433 96.4877 201.344C97.2129 200.255 97.6 198.975 97.6 197.665C97.6 195.908 96.9046 194.224 95.6669 192.982C94.4292 191.74 92.7504 191.043 91 191.043Z" fill="black"/>
<path d="M88 159.537C85.6266 159.537 83.3065 158.83 81.3332 157.507C79.3598 156.184 77.8217 154.304 76.9135 152.104C76.0052 149.904 75.7676 147.483 76.2306 145.147C76.6936 142.811 77.8365 140.666 79.5147 138.982C81.193 137.298 83.3311 136.152 85.6589 135.687C87.9867 135.222 90.3995 135.461 92.5922 136.372C94.7849 137.283 96.6591 138.827 97.9776 140.807C99.2962 142.787 100 145.115 100 147.496C100 150.689 98.7357 153.752 96.4853 156.01C94.2348 158.268 91.1826 159.537 88 159.537ZM88 140.272C86.576 140.272 85.1839 140.695 83.9999 141.489C82.8159 142.283 81.893 143.411 81.3481 144.731C80.8031 146.052 80.6605 147.504 80.9384 148.905C81.2162 150.307 81.9019 151.594 82.9088 152.604C83.9158 153.615 85.1987 154.303 86.5954 154.582C87.992 154.86 89.4397 154.717 90.7553 154.17C92.071 153.624 93.1954 152.698 93.9866 151.51C94.7777 150.322 95.2 148.925 95.2 147.496C95.2 145.58 94.4414 143.743 93.0912 142.388C91.7409 141.033 89.9096 140.272 88 140.272Z" fill="black"/>
<path d="M42 129.435C40.22 129.435 38.4799 128.906 36.9999 127.913C35.5198 126.921 34.3663 125.511 33.6851 123.861C33.0039 122.211 32.8257 120.395 33.1729 118.643C33.5202 116.891 34.3774 115.282 35.636 114.02C36.8947 112.757 38.4984 111.897 40.2442 111.548C41.99 111.2 43.7996 111.378 45.4442 112.062C47.0887 112.745 48.4943 113.903 49.4832 115.388C50.4722 116.873 51 118.619 51 120.405C51 122.8 50.0518 125.097 48.364 126.79C46.6761 128.484 44.387 129.435 42 129.435ZM42 114.987C40.932 114.987 39.8879 115.305 38.9999 115.9C38.1119 116.495 37.4198 117.341 37.0111 118.331C36.6023 119.322 36.4954 120.411 36.7038 121.462C36.9121 122.513 37.4264 123.478 38.1816 124.236C38.9368 124.994 39.899 125.51 40.9465 125.719C41.994 125.928 43.0798 125.821 44.0665 125.411C45.0532 125.001 45.8966 124.306 46.4899 123.415C47.0833 122.524 47.4 121.477 47.4 120.405C47.4 118.968 46.8311 117.59 45.8184 116.574C44.8057 115.558 43.4322 114.987 42 114.987Z" fill="black"/>
<path d="M79 108.364C76.6266 108.364 74.3065 107.658 72.3332 106.335C70.3598 105.012 68.8217 103.132 67.9135 100.932C67.0052 98.7315 66.7676 96.3106 67.2306 93.975C67.6936 91.6394 68.8365 89.4939 70.5147 87.81C72.193 86.1262 74.3311 84.9794 76.6589 84.5148C78.9867 84.0502 81.3995 84.2887 83.5922 85.2C85.7849 86.1113 87.6591 87.6546 88.9776 89.6346C90.2962 91.6147 91 93.9426 91 96.324C91 99.5173 89.7357 102.58 87.4853 104.838C85.2348 107.096 82.1826 108.364 79 108.364ZM79 89.0997C77.576 89.0997 76.1839 89.5234 74.9999 90.3172C73.8159 91.111 72.893 92.2393 72.3481 93.5593C71.8031 94.8794 71.6605 96.332 71.9384 97.7334C72.2162 99.1347 72.9019 100.422 73.9088 101.432C74.9158 102.443 76.1987 103.131 77.5954 103.409C78.992 103.688 80.4397 103.545 81.7553 102.998C83.071 102.452 84.1954 101.526 84.9866 100.338C85.7777 99.1495 86.2 97.7528 86.2 96.324C86.2 94.408 85.4414 92.5704 84.0912 91.2156C82.7409 89.8608 80.9096 89.0997 79 89.0997Z" fill="black"/>
<path d="M39 71.2396C37.6155 71.2396 36.2622 70.8277 35.111 70.0559C33.9599 69.2841 33.0627 68.1872 32.5328 66.9038C32.003 65.6204 31.8644 64.2082 32.1345 62.8457C32.4046 61.4833 33.0713 60.2318 34.0503 59.2495C35.0292 58.2673 36.2765 57.5983 37.6344 57.3273C38.9922 57.0563 40.3997 57.1954 41.6788 57.727C42.9579 58.2586 44.0511 59.1588 44.8203 60.3139C45.5895 61.4689 46 62.8268 46 64.216C46 66.0788 45.2625 67.8652 43.9497 69.1824C42.637 70.4996 40.8565 71.2396 39 71.2396ZM39 60.0018C38.1693 60.0018 37.3573 60.249 36.6666 60.712C35.9759 61.1751 35.4376 61.8332 35.1197 62.6033C34.8018 63.3733 34.7186 64.2207 34.8807 65.0381C35.0428 65.8556 35.4428 66.6065 36.0302 67.1958C36.6175 67.7852 37.3659 68.1866 38.1806 68.3492C38.9953 68.5118 39.8398 68.4283 40.6073 68.1094C41.3747 67.7904 42.0307 67.2503 42.4922 66.5572C42.9537 65.8642 43.2 65.0495 43.2 64.216C43.2 63.0983 42.7575 62.0264 41.9699 61.2361C41.1822 60.4458 40.1139 60.0018 39 60.0018Z" fill="black"/>
<path d="M40 26.0877C37.4288 26.0877 34.9154 25.3227 32.7776 23.8894C30.6398 22.4562 28.9735 20.419 27.9896 18.0355C27.0056 15.6521 26.7482 13.0294 27.2498 10.4991C27.7514 7.96888 28.9895 5.64468 30.8076 3.82047C32.6257 1.99625 34.9421 0.753941 37.4638 0.25064C39.9856 -0.25266 42.5994 0.00565165 44.9749 0.992911C47.3503 1.98017 49.3806 3.65204 50.8091 5.79709C52.2376 7.94214 53 10.464 53 13.0439C53 16.5033 51.6304 19.8211 49.1924 22.2673C46.7544 24.7135 43.4478 26.0877 40 26.0877ZM40 5.21755C38.4573 5.21755 36.9493 5.67656 35.6666 6.53653C34.3839 7.39649 33.3841 8.6188 32.7937 10.0489C32.2034 11.4789 32.0489 13.0526 32.3499 14.5707C32.6508 16.0889 33.3937 17.4834 34.4846 18.5779C35.5754 19.6724 36.9652 20.4178 38.4783 20.7198C39.9914 21.0218 41.5597 20.8668 42.9849 20.2745C44.4102 19.6821 45.6284 18.679 46.4855 17.3919C47.3425 16.1049 47.8 14.5918 47.8 13.0439C47.8 10.9682 46.9782 8.97755 45.5154 7.50983C44.0527 6.04211 42.0687 5.21755 40 5.21755Z" fill="black"/>
<path d="M1698 207.699C1694.24 207.699 1690.57 206.58 1687.44 204.486C1684.32 202.391 1681.88 199.413 1680.45 195.93C1679.01 192.446 1678.63 188.613 1679.37 184.915C1680.1 181.217 1681.91 177.82 1684.56 175.154C1687.22 172.488 1690.61 170.672 1694.29 169.937C1697.98 169.201 1701.8 169.579 1705.27 171.021C1708.74 172.464 1711.71 174.908 1713.8 178.043C1715.89 181.178 1717 184.864 1717 188.634C1717 193.691 1715 198.54 1711.44 202.115C1707.87 205.69 1703.04 207.699 1698 207.699ZM1698 177.196C1695.75 177.196 1693.54 177.867 1691.67 179.124C1689.79 180.381 1688.33 182.167 1687.47 184.257C1686.6 186.347 1686.38 188.647 1686.82 190.866C1687.26 193.085 1688.34 195.123 1689.94 196.723C1691.53 198.322 1693.56 199.412 1695.78 199.853C1697.99 200.294 1700.28 200.068 1702.36 199.202C1704.45 198.336 1706.23 196.87 1707.48 194.989C1708.73 193.108 1709.4 190.897 1709.4 188.634C1709.4 185.601 1708.2 182.691 1706.06 180.546C1703.92 178.401 1701.02 177.196 1698 177.196Z" fill="black"/>
<path d="M1629 244.823C1626.43 244.823 1623.92 244.058 1621.78 242.625C1619.64 241.192 1617.97 239.155 1616.99 236.771C1616.01 234.388 1615.75 231.765 1616.25 229.235C1616.75 226.705 1617.99 224.38 1619.81 222.556C1621.63 220.732 1623.94 219.49 1626.46 218.986C1628.99 218.483 1631.6 218.741 1633.97 219.729C1636.35 220.716 1638.38 222.388 1639.81 224.533C1641.24 226.678 1642 229.2 1642 231.78C1642 235.239 1640.63 238.557 1638.19 241.003C1635.75 243.449 1632.45 244.823 1629 244.823ZM1629 223.953C1627.46 223.953 1625.95 224.412 1624.67 225.272C1623.38 226.132 1622.38 227.354 1621.79 228.785C1621.2 230.215 1621.05 231.788 1621.35 233.306C1621.65 234.825 1622.39 236.219 1623.48 237.314C1624.58 238.408 1625.97 239.153 1627.48 239.455C1628.99 239.757 1630.56 239.602 1631.98 239.01C1633.41 238.418 1634.63 237.415 1635.49 236.128C1636.34 234.841 1636.8 233.327 1636.8 231.78C1636.8 229.704 1635.98 227.713 1634.52 226.245C1633.05 224.778 1631.07 223.953 1629 223.953Z" fill="black"/>
<path d="M1590 250.844C1588.42 250.844 1586.87 250.373 1585.56 249.491C1584.24 248.609 1583.21 247.355 1582.61 245.888C1582 244.422 1581.85 242.808 1582.15 241.251C1582.46 239.694 1583.22 238.263 1584.34 237.141C1585.46 236.018 1586.89 235.254 1588.44 234.944C1589.99 234.634 1591.6 234.793 1593.06 235.401C1594.52 236.008 1595.77 237.037 1596.65 238.357C1597.53 239.677 1598 241.229 1598 242.817C1598 244.946 1597.16 246.987 1595.66 248.493C1594.16 249.998 1592.12 250.844 1590 250.844ZM1590 238C1589.05 238 1588.12 238.283 1587.33 238.812C1586.54 239.341 1585.93 240.094 1585.57 240.974C1585.2 241.854 1585.11 242.822 1585.29 243.756C1585.48 244.69 1585.93 245.549 1586.61 246.222C1587.28 246.896 1588.13 247.354 1589.06 247.54C1589.99 247.726 1590.96 247.631 1591.84 247.266C1592.71 246.902 1593.46 246.284 1593.99 245.492C1594.52 244.7 1594.8 243.769 1594.8 242.817C1594.8 241.539 1594.29 240.314 1593.39 239.411C1592.49 238.508 1591.27 238 1590 238Z" fill="black"/>
<path d="M1631 165.557C1628.82 165.557 1626.7 164.909 1624.89 163.697C1623.08 162.484 1621.67 160.76 1620.84 158.743C1620 156.727 1619.79 154.507 1620.21 152.366C1620.64 150.225 1621.68 148.259 1623.22 146.715C1624.76 145.172 1626.72 144.121 1628.85 143.695C1630.99 143.269 1633.2 143.487 1635.21 144.323C1637.22 145.158 1638.94 146.573 1640.15 148.388C1641.35 150.203 1642 152.337 1642 154.52C1642 157.447 1640.84 160.254 1638.78 162.324C1636.72 164.394 1633.92 165.557 1631 165.557ZM1631 147.897C1629.69 147.897 1628.42 148.286 1627.33 149.013C1626.25 149.741 1625.4 150.775 1624.9 151.985C1624.4 153.196 1624.27 154.527 1624.53 155.812C1624.78 157.096 1625.41 158.276 1626.33 159.202C1627.26 160.128 1628.43 160.759 1629.71 161.015C1630.99 161.27 1632.32 161.139 1633.53 160.638C1634.73 160.137 1635.76 159.288 1636.49 158.199C1637.21 157.11 1637.6 155.829 1637.6 154.52C1637.6 152.763 1636.9 151.079 1635.67 149.837C1634.43 148.595 1632.75 147.897 1631 147.897Z" fill="black"/>
<path d="M1683 146.493C1681.42 146.493 1679.87 146.022 1678.56 145.14C1677.24 144.258 1676.21 143.004 1675.61 141.537C1675 140.071 1674.85 138.457 1675.15 136.9C1675.46 135.343 1676.22 133.912 1677.34 132.79C1678.46 131.667 1679.89 130.903 1681.44 130.593C1682.99 130.283 1684.6 130.442 1686.06 131.05C1687.52 131.657 1688.77 132.686 1689.65 134.006C1690.53 135.326 1691 136.878 1691 138.466C1691 140.595 1690.16 142.636 1688.66 144.142C1687.16 145.647 1685.12 146.493 1683 146.493ZM1683 133.649C1682.05 133.649 1681.12 133.932 1680.33 134.461C1679.54 134.99 1678.93 135.743 1678.57 136.623C1678.2 137.503 1678.11 138.471 1678.29 139.405C1678.48 140.34 1678.93 141.198 1679.61 141.871C1680.28 142.545 1681.13 143.004 1682.06 143.189C1682.99 143.375 1683.96 143.28 1684.84 142.915C1685.71 142.551 1686.46 141.933 1686.99 141.141C1687.52 140.349 1687.8 139.418 1687.8 138.466C1687.8 137.188 1687.29 135.963 1686.39 135.06C1685.49 134.157 1684.27 133.649 1683 133.649Z" fill="black"/>
<path d="M1657 104.351C1655.62 104.351 1654.26 103.939 1653.11 103.167C1651.96 102.395 1651.06 101.299 1650.53 100.015C1650 98.7318 1649.86 97.3195 1650.13 95.9571C1650.4 94.5946 1651.07 93.3432 1652.05 92.3609C1653.03 91.3786 1654.28 90.7097 1655.63 90.4387C1656.99 90.1677 1658.4 90.3068 1659.68 90.8384C1660.96 91.37 1662.05 92.2702 1662.82 93.4252C1663.59 94.5802 1664 95.9382 1664 97.3273C1664 99.1901 1663.26 100.977 1661.95 102.294C1660.64 103.611 1658.86 104.351 1657 104.351ZM1657 93.1132C1656.17 93.1132 1655.36 93.3603 1654.67 93.8234C1653.98 94.2864 1653.44 94.9446 1653.12 95.7146C1652.8 96.4847 1652.72 97.332 1652.88 98.1495C1653.04 98.967 1653.44 99.7178 1654.03 100.307C1654.62 100.897 1655.37 101.298 1656.18 101.461C1657 101.623 1657.84 101.54 1658.61 101.221C1659.37 100.902 1660.03 100.362 1660.49 99.6686C1660.95 98.9756 1661.2 98.1608 1661.2 97.3273C1661.2 96.2097 1660.76 95.1378 1659.97 94.3475C1659.18 93.5572 1658.11 93.1132 1657 93.1132Z" fill="black"/>
<path d="M1697 70.2362C1696.01 70.2362 1695.04 69.942 1694.22 69.3907C1693.4 68.8395 1692.76 68.0559 1692.38 67.1392C1692 66.2225 1691.9 65.2138 1692.1 64.2406C1692.29 63.2674 1692.77 62.3735 1693.46 61.6719C1694.16 60.9703 1695.05 60.4925 1696.02 60.2989C1696.99 60.1053 1698 60.2046 1698.91 60.5844C1699.83 60.9641 1700.61 61.6071 1701.16 62.4321C1701.71 63.2571 1702 64.2271 1702 65.2193C1702 66.5499 1701.47 67.826 1700.54 68.7668C1699.6 69.7077 1698.33 70.2362 1697 70.2362ZM1697 62.2092C1696.41 62.2092 1695.83 62.3858 1695.33 62.7165C1694.84 63.0473 1694.46 63.5174 1694.23 64.0674C1694 64.6175 1693.94 65.2227 1694.06 65.8066C1694.17 66.3905 1694.46 66.9269 1694.88 67.3478C1695.3 67.7688 1695.83 68.0555 1696.41 68.1716C1697 68.2878 1697.6 68.2282 1698.15 68.0003C1698.7 67.7725 1699.16 67.3867 1699.49 66.8917C1699.82 66.3967 1700 65.8147 1700 65.2193C1700 64.421 1699.68 63.6554 1699.12 63.0909C1698.56 62.5264 1697.8 62.2092 1697 62.2092Z" fill="black"/>
</g>
</svg>
