<svg width="1728" height="345" viewBox="0 0 1728 345" fill="none" xmlns="http://www.w3.org/2000/svg">
<path opacity="0.1" fill-rule="evenodd" clip-rule="evenodd" d="M0 336.356V202.374C231.601 273.924 527.871 319.624 853.411 326.866L861.901 335.36C863.072 336.532 864.971 336.532 866.142 335.36L874.222 327.276C897.58 327.677 921.084 327.879 944.721 327.879C1233.49 327.879 1502.44 297.658 1728 245.611V336.356H0Z" fill="black"/>
<path opacity="0.2" fill-rule="evenodd" clip-rule="evenodd" d="M0 336.356V216.42C231.841 280.536 528.486 321.463 854.426 327.881L861.901 335.36C863.072 336.532 864.971 336.532 866.142 335.36L873.285 328.214C896.952 328.582 920.768 328.768 944.721 328.768C1233.49 328.768 1502.44 301.715 1728 255.125V336.356H0Z" fill="black"/>
<path fill-rule="evenodd" clip-rule="evenodd" d="M0 345L0.00123596 234.789C232.155 289.158 529.287 323.838 855.745 329.201L861.901 335.36C863.072 336.532 864.971 336.532 866.142 335.36L872.055 329.444C896.127 329.767 920.354 329.93 944.722 329.93C1233.49 329.93 1502.44 307.02 1728 267.566L1728 345H0Z" fill="black"/>
<g opacity="0.2">
<path d="M41.3848 193.368C31.658 198.664 18.3952 196.222 12.6367 186.149C7.37144 176.95 10.2368 164.022 19.0492 158.196C27.8615 152.37 40.7197 154.998 46.8163 163.543C53.9271 173.504 48.601 188.439 36.0586 189.629C30.7823 190.125 24.9739 187.638 22.4245 182.691C20.1521 178.236 21.2439 171.761 25.3952 168.817C29.5464 165.872 36.2637 166.414 38.3698 171.642C39.2621 173.865 38.924 176.893 37.2281 178.653C35.7981 180.103 32.4727 180.667 30.9264 178.975C30.3722 178.354 29.7681 177.198 30.8433 176.758C31.2645 176.589 32.3397 177.322 32.8441 177.322C35.1663 177.288 35.9034 174.305 34.7118 172.55C33.2653 170.43 30.0673 170.588 28.2495 172.026C26.0325 173.786 25.7554 176.702 26.7142 179.245C28.5765 184.158 34.6342 185.269 38.7633 182.46C42.7759 179.725 43.3856 173.154 41.3516 168.997C38.5804 163.295 30.9209 161.62 25.3952 163.656C19.8694 165.692 16.6604 171.146 16.5274 176.955C16.4822 179.552 17.047 182.123 18.1749 184.453C19.3028 186.783 20.9611 188.805 23.0119 190.351C28.4102 194.367 35.0998 193.368 41.3848 193.368Z" fill="black"/>
<path d="M95.1232 209.836C90.7461 212.291 84.7778 211.159 82.1865 206.491C79.8171 202.228 81.1066 196.237 85.0721 193.537C89.0377 190.837 94.8239 192.055 97.5673 196.015C100.767 200.631 98.3704 207.552 92.7264 208.103C90.352 208.333 87.7383 207.181 86.591 204.889C85.5684 202.824 86.0598 199.823 87.9278 198.459C89.7959 197.094 92.8187 197.345 93.7664 199.768C94.1679 200.798 94.0158 202.202 93.2526 203.017C92.6092 203.689 91.1127 203.95 90.4169 203.166C90.1675 202.879 89.8956 202.343 90.3795 202.139C90.569 202.06 91.0529 202.4 91.2798 202.4C92.3248 202.385 92.6565 201.002 92.1203 200.189C91.4694 199.206 90.0303 199.279 89.2123 199.946C88.2146 200.761 88.0899 202.113 88.5214 203.292C89.3594 205.568 92.0854 206.083 93.9435 204.781C95.7492 203.514 96.0235 200.469 95.1082 198.542C93.8612 195.9 90.4144 195.124 87.9278 196.067C85.4412 197.011 83.9972 199.538 83.9373 202.23C83.917 203.434 84.1712 204.625 84.6787 205.705C85.1863 206.784 85.9325 207.721 86.8554 208.438C89.2846 210.299 92.2949 209.836 95.1232 209.836Z" fill="black"/>
<path d="M97.9694 161.15C91.1606 164.896 81.8766 163.169 77.8457 156.043C74.16 149.537 76.1658 140.393 82.3344 136.272C88.503 132.151 97.5038 134.01 101.771 140.054C106.749 147.099 103.021 157.663 94.241 158.505C90.5476 158.856 86.4818 157.097 84.6971 153.598C83.1065 150.446 83.8708 145.867 86.7766 143.784C89.6825 141.702 94.3846 142.085 95.8588 145.783C96.4835 147.355 96.2468 149.497 95.0596 150.742C94.0587 151.767 91.7309 152.166 90.6485 150.969C90.2605 150.53 89.8376 149.712 90.5903 149.401C90.8851 149.281 91.6378 149.8 91.9908 149.8C93.6164 149.776 94.1324 147.666 93.2983 146.425C92.2857 144.925 90.0471 145.037 88.7746 146.054C87.2228 147.299 87.0288 149.361 87.7 151.16C89.0035 154.635 93.244 155.421 96.1343 153.434C98.9432 151.5 99.3699 146.852 97.9461 143.912C96.0063 139.878 90.6446 138.694 86.7766 140.134C82.9086 141.574 80.6623 145.432 80.5692 149.541C80.5375 151.378 80.9329 153.196 81.7225 154.844C82.512 156.492 83.6728 157.922 85.1084 159.016C88.8871 161.856 93.5699 161.15 97.9694 161.15Z" fill="black"/>
<path d="M50.6924 132.668C45.829 135.38 39.1976 134.129 36.3183 128.97C33.6857 124.258 35.1184 117.637 39.5246 114.653C43.9307 111.669 50.3599 113.015 53.4082 117.391C56.9636 122.493 54.3005 130.143 48.0293 130.752C45.3912 131.007 42.487 129.733 41.2122 127.199C40.076 124.917 40.622 121.6 42.6976 120.092C44.7732 118.584 48.1318 118.862 49.1849 121.54C49.631 122.678 49.462 124.229 48.614 125.131C47.8991 125.873 46.2364 126.162 45.4632 125.295C45.1861 124.978 44.884 124.385 45.4216 124.16C45.6322 124.073 46.1699 124.449 46.422 124.449C47.5832 124.432 47.9517 122.903 47.3559 122.005C46.6326 120.919 45.0337 121 44.1247 121.736C43.0163 122.638 42.8777 124.131 43.3571 125.434C44.2882 127.95 47.3171 128.519 49.3816 127.081C51.388 125.68 51.6928 122.314 50.6758 120.185C49.2902 117.264 45.4604 116.406 42.6976 117.449C39.9347 118.492 38.3302 121.286 38.2637 124.261C38.2411 125.591 38.5235 126.908 39.0875 128.101C39.6514 129.295 40.4806 130.33 41.506 131.122C44.2051 133.179 47.5499 132.668 50.6924 132.668Z" fill="black"/>
<path d="M84.6924 108.657C79.829 111.369 73.1976 110.118 70.3183 104.959C67.6857 100.247 69.1184 93.6258 73.5246 90.6416C77.9307 87.6573 84.3599 89.0036 87.4082 93.3802C90.9636 98.4819 88.3005 106.132 82.0293 106.741C79.3912 106.995 76.487 105.721 75.2122 103.188C74.076 100.906 74.622 97.5893 76.6976 96.0813C78.7732 94.5733 82.1318 94.8506 83.1849 97.5286C83.631 98.6668 83.462 100.218 82.614 101.119C81.8991 101.862 80.2364 102.151 79.4632 101.284C79.1861 100.966 78.884 100.374 79.4216 100.149C79.6322 100.062 80.1699 100.438 80.422 100.438C81.5831 100.42 81.9517 98.8922 81.3559 97.9937C80.6326 96.9075 79.0337 96.9884 78.1247 97.7251C77.0163 98.6264 76.8777 100.12 77.3571 101.423C78.2882 103.939 81.3171 104.508 83.3816 103.069C85.388 101.668 85.6928 98.3028 84.6758 96.1737C83.2902 93.2531 79.4604 92.3951 76.6976 93.438C73.9347 94.4809 72.3302 97.2744 72.2637 100.25C72.2411 101.58 72.5235 102.897 73.0875 104.09C73.6514 105.283 74.4806 106.319 75.506 107.111C78.2051 109.168 81.5499 108.657 84.6924 108.657Z" fill="black"/>
<path d="M42.4154 71.1702C39.4974 72.8494 35.5186 72.0751 33.791 68.8811C32.2114 65.9643 33.0711 61.8654 35.7148 60.018C38.3584 58.1707 42.2159 59.004 44.0449 61.7134C46.1781 64.8716 44.5803 69.6071 40.8176 69.9845C39.2347 70.1418 37.4922 69.3532 36.7273 67.7848C36.0456 66.372 36.3732 64.319 37.6185 63.3855C38.8639 62.452 40.8791 62.6236 41.5109 64.2814C41.7786 64.986 41.6772 65.9464 41.1684 66.5044C40.7394 66.964 39.7418 67.1428 39.2779 66.6063C39.1117 66.4096 38.9304 66.043 39.253 65.9035C39.3793 65.8498 39.7019 66.0823 39.8532 66.0823C40.5499 66.0716 40.771 65.1255 40.4136 64.5694C39.9796 63.8969 39.0202 63.947 38.4748 64.403C37.8098 64.961 37.7266 65.8856 38.0143 66.6921C38.5729 68.2498 40.3903 68.6021 41.629 67.7115C42.8328 66.8441 43.0157 64.7607 42.4055 63.4427C41.5741 61.6347 39.2763 61.1035 37.6185 61.7491C35.9608 62.3947 34.9981 64.1241 34.9582 65.9661C34.9447 66.7895 35.1141 67.6045 35.4525 68.3432C35.7908 69.082 36.2883 69.7231 36.9036 70.2134C38.5231 71.4867 40.5299 71.1702 42.4154 71.1702Z" fill="black"/>
<path d="M49.4001 27.0876C43.0777 30.8336 34.4569 29.1062 30.7138 21.9812C27.2914 15.4745 29.1539 6.33079 34.882 2.20975C40.61 -1.9113 48.9678 -0.0522399 52.9306 5.99169C57.5526 13.037 54.0906 23.6009 45.9381 24.4426C42.5085 24.7937 38.7331 23.0344 37.0759 19.5357C35.5989 16.3841 36.3086 11.8042 39.0068 9.72177C41.7051 7.63931 46.0714 8.02229 47.4404 11.7205C48.0204 13.2923 47.8006 15.4346 46.6982 16.6793C45.7688 17.7045 43.6073 18.1035 42.6022 16.9067C42.2419 16.4678 41.8492 15.65 42.5481 15.3388C42.8219 15.2192 43.5208 15.7378 43.8486 15.7378C45.3581 15.7138 45.8372 13.6034 45.0627 12.3627C44.1224 10.8627 42.0438 10.9744 40.8622 11.9917C39.4211 13.2364 39.241 15.2989 39.8643 17.0982C41.0747 20.5729 45.0123 21.3588 47.6961 19.3721C50.3044 17.4373 50.7006 12.7896 49.3785 9.84943C47.5773 5.81616 42.5986 4.63131 39.0068 6.07148C35.4151 7.51165 33.3293 11.3694 33.2428 15.4785C33.2134 17.3153 33.5806 19.1334 34.3137 20.7814C35.0468 22.4294 36.1247 23.8597 37.4578 24.9533C40.9666 27.7937 45.3149 27.0876 49.4001 27.0876Z" fill="black"/>
<path d="M1708.95 210.243C1698.74 215.798 1684.81 213.237 1678.77 202.672C1673.24 193.024 1676.25 179.466 1685.5 173.356C1694.75 167.245 1708.26 170.002 1714.66 178.963C1722.12 189.41 1716.53 205.073 1703.36 206.322C1697.82 206.842 1691.72 204.233 1689.05 199.046C1686.66 194.373 1687.81 187.582 1692.16 184.494C1696.52 181.406 1703.58 181.974 1705.79 187.458C1706.73 189.788 1706.37 192.965 1704.59 194.81C1703.09 196.331 1699.6 196.922 1697.97 195.148C1697.39 194.497 1696.76 193.284 1697.89 192.823C1698.33 192.645 1699.46 193.414 1699.99 193.414C1702.42 193.379 1703.2 190.25 1701.95 188.41C1700.43 186.186 1697.07 186.352 1695.16 187.86C1692.83 189.705 1692.54 192.764 1693.55 195.431C1695.51 200.584 1701.87 201.749 1706.2 198.803C1710.41 195.934 1711.05 189.043 1708.92 184.683C1706.01 178.703 1697.97 176.946 1692.16 179.082C1686.36 181.217 1682.99 186.937 1682.85 193.03C1682.81 195.753 1683.4 198.449 1684.58 200.893C1685.77 203.336 1687.51 205.457 1689.66 207.079C1695.33 211.29 1702.35 210.243 1708.95 210.243Z" fill="black"/>
<path d="M1635.4 244.321C1629.08 247.809 1620.46 246.201 1616.71 239.567C1613.29 233.509 1615.15 224.996 1620.88 221.159C1626.61 217.322 1634.97 219.053 1638.93 224.68C1643.55 231.24 1640.09 241.075 1631.94 241.859C1628.51 242.186 1624.73 240.548 1623.08 237.29C1621.6 234.356 1622.31 230.092 1625.01 228.153C1627.71 226.214 1632.07 226.571 1633.44 230.014C1634.02 231.477 1633.8 233.472 1632.7 234.631C1631.77 235.585 1629.61 235.957 1628.6 234.843C1628.24 234.434 1627.85 233.673 1628.55 233.383C1628.82 233.271 1629.52 233.754 1629.85 233.754C1631.36 233.732 1631.84 231.767 1631.06 230.612C1630.12 229.215 1628.04 229.319 1626.86 230.267C1625.42 231.425 1625.24 233.346 1625.86 235.021C1627.07 238.256 1631.01 238.988 1633.7 237.138C1636.3 235.337 1636.7 231.009 1635.38 228.272C1633.58 224.517 1628.6 223.414 1625.01 224.755C1621.42 226.095 1619.33 229.687 1619.24 233.513C1619.21 235.223 1619.58 236.916 1620.31 238.45C1621.05 239.984 1622.12 241.316 1623.46 242.334C1626.97 244.979 1631.31 244.321 1635.4 244.321Z" fill="black"/>
<path d="M1593.42 248.252C1590.5 249.932 1586.52 249.157 1584.79 245.963C1583.21 243.047 1584.07 238.948 1586.71 237.1C1589.36 235.253 1593.22 236.086 1595.04 238.796C1597.18 241.954 1595.58 246.689 1591.82 247.067C1590.23 247.224 1588.49 246.435 1587.73 244.867C1587.05 243.454 1587.37 241.401 1588.62 240.468C1589.86 239.534 1591.88 239.706 1592.51 241.364C1592.78 242.068 1592.68 243.029 1592.17 243.587C1591.74 244.046 1590.74 244.225 1590.28 243.689C1590.11 243.492 1589.93 243.125 1590.25 242.986C1590.38 242.932 1590.7 243.165 1590.85 243.165C1591.55 243.154 1591.77 242.208 1591.41 241.652C1590.98 240.979 1590.02 241.029 1589.47 241.485C1588.81 242.043 1588.73 242.968 1589.01 243.774C1589.57 245.332 1591.39 245.684 1592.63 244.794C1593.83 243.926 1594.02 241.843 1593.41 240.525C1592.57 238.717 1590.28 238.186 1588.62 238.831C1586.96 239.477 1586 241.206 1585.96 243.048C1585.94 243.872 1586.11 244.687 1586.45 245.426C1586.79 246.164 1587.29 246.805 1587.9 247.296C1589.52 248.569 1591.53 248.252 1593.42 248.252Z" fill="black"/>
<path d="M1637.83 167.352C1631.99 170.71 1624.04 169.162 1620.58 162.774C1617.42 156.94 1619.14 148.742 1624.43 145.048C1629.72 141.353 1637.43 143.02 1641.09 148.438C1645.36 154.755 1642.16 164.226 1634.64 164.981C1631.47 165.295 1627.98 163.718 1626.45 160.581C1625.09 157.756 1625.75 153.65 1628.24 151.783C1630.73 149.916 1634.76 150.259 1636.02 153.574C1636.56 154.984 1636.35 156.904 1635.34 158.02C1634.48 158.94 1632.48 159.297 1631.56 158.224C1631.22 157.831 1630.86 157.098 1631.51 156.819C1631.76 156.711 1632.4 157.176 1632.71 157.176C1634.1 157.155 1634.54 155.263 1633.83 154.15C1632.96 152.806 1631.04 152.906 1629.95 153.818C1628.62 154.934 1628.45 156.783 1629.03 158.396C1630.15 161.511 1633.78 162.216 1636.26 160.435C1638.67 158.7 1639.03 154.533 1637.81 151.897C1636.15 148.281 1631.55 147.219 1628.24 148.51C1624.92 149.801 1623 153.26 1622.92 156.944C1622.89 158.591 1623.23 160.221 1623.9 161.698C1624.58 163.176 1625.58 164.458 1626.81 165.438C1630.05 167.985 1634.06 167.352 1637.83 167.352Z" fill="black"/>
<path d="M1688.34 148.874C1684.2 151.2 1678.57 150.127 1676.12 145.705C1673.88 141.666 1675.1 135.991 1678.85 133.433C1682.59 130.875 1688.06 132.029 1690.65 135.78C1693.67 140.153 1691.41 146.71 1686.07 147.233C1683.83 147.451 1681.36 146.359 1680.28 144.187C1679.31 142.231 1679.78 139.388 1681.54 138.096C1683.31 136.803 1686.16 137.041 1687.06 139.336C1687.44 140.312 1687.29 141.641 1686.57 142.414C1685.96 143.05 1684.55 143.298 1683.89 142.555C1683.66 142.283 1683.4 141.775 1683.86 141.582C1684.04 141.508 1684.49 141.83 1684.71 141.83C1685.7 141.815 1686.01 140.505 1685.5 139.735C1684.89 138.804 1683.53 138.873 1682.76 139.505C1681.81 140.277 1681.7 141.557 1682.1 142.674C1682.89 144.831 1685.47 145.319 1687.22 144.085C1688.93 142.885 1689.19 140 1688.32 138.175C1687.15 135.671 1683.89 134.936 1681.54 135.83C1679.19 136.724 1677.83 139.118 1677.77 141.669C1677.75 142.809 1678 143.937 1678.47 144.96C1678.95 145.983 1679.66 146.871 1680.53 147.55C1682.82 149.313 1685.67 148.874 1688.34 148.874Z" fill="black"/>
<path d="M1660.34 106.855C1656.2 109.18 1650.57 108.108 1648.12 103.685C1645.88 99.6467 1647.1 93.9713 1650.85 91.4134C1654.59 88.8555 1660.06 90.0094 1662.65 93.7608C1665.67 98.1338 1663.41 104.691 1658.07 105.213C1655.83 105.431 1653.36 104.339 1652.28 102.167C1651.31 100.211 1651.78 97.3686 1653.54 96.0761C1655.31 94.7835 1658.16 95.0212 1659.06 97.3166C1659.44 98.2922 1659.29 99.6219 1658.57 100.395C1657.96 101.031 1656.55 101.278 1655.89 100.536C1655.66 100.263 1655.4 99.7556 1655.86 99.5625C1656.04 99.4882 1656.49 99.8101 1656.71 99.8101C1657.7 99.7953 1658.01 98.4854 1657.5 97.7153C1656.89 96.7842 1655.53 96.8536 1654.76 97.485C1653.81 98.2576 1653.7 99.5378 1654.1 100.655C1654.89 102.811 1657.47 103.299 1659.22 102.066C1660.93 100.865 1661.19 97.9802 1660.32 96.1553C1659.15 93.6519 1655.89 92.9165 1653.54 93.8104C1651.19 94.7043 1649.83 97.0987 1649.77 99.6492C1649.75 100.789 1650 101.918 1650.47 102.941C1650.95 103.964 1651.66 104.851 1652.53 105.53C1654.82 107.293 1657.67 106.855 1660.34 106.855Z" fill="black"/>
<path d="M1701.63 71.2366C1698.96 72.7866 1695.31 72.0719 1693.73 69.1236C1692.28 66.4311 1693.07 62.6475 1695.49 60.9423C1697.91 59.237 1701.45 60.0063 1703.12 62.5072C1705.08 65.4225 1703.62 69.7938 1700.17 70.1421C1698.72 70.2874 1697.12 69.5594 1696.42 68.1116C1695.79 66.8075 1696.09 64.9124 1697.23 64.0507C1698.38 63.189 1700.22 63.3475 1700.8 64.8777C1701.05 65.5282 1700.95 66.4146 1700.49 66.9297C1700.09 67.3539 1699.18 67.519 1698.75 67.0238C1698.6 66.8422 1698.44 66.5038 1698.73 66.375C1698.85 66.3255 1699.14 66.5401 1699.28 66.5401C1699.92 66.5302 1700.12 65.6569 1699.8 65.1435C1699.4 64.5228 1698.52 64.5691 1698.02 64.99C1697.41 65.505 1697.33 66.3585 1697.6 67.103C1698.11 68.5408 1699.77 68.866 1700.91 68.0439C1702.01 67.2433 1702.18 65.3202 1701.62 64.1035C1700.86 62.4346 1698.75 61.9443 1697.23 62.5402C1695.71 63.1362 1694.83 64.7325 1694.8 66.4328C1694.78 67.1929 1694.94 67.9452 1695.25 68.6271C1695.56 69.309 1696.01 69.9009 1696.58 70.3534C1698.06 71.5288 1699.9 71.2366 1701.63 71.2366Z" fill="black"/>
<path d="M1697.83 24.3518C1691.99 27.5812 1684.04 26.092 1680.58 19.9498C1677.42 14.3405 1679.14 6.45804 1684.43 2.90542C1689.72 -0.647204 1697.43 0.955431 1701.09 6.16571C1705.36 12.2392 1702.16 21.346 1694.64 22.0717C1691.47 22.3743 1687.98 20.8577 1686.45 17.8416C1685.09 15.1246 1685.75 11.1765 1688.24 9.3813C1690.73 7.58608 1694.76 7.91623 1696.02 11.1043C1696.56 12.4593 1696.35 14.3061 1695.34 15.3791C1694.48 16.263 1692.48 16.6069 1691.56 15.5752C1691.22 15.1969 1690.86 14.4919 1691.51 14.2236C1691.76 14.1204 1692.4 14.5675 1692.71 14.5675C1694.1 14.5469 1694.54 12.7276 1693.83 11.658C1692.96 10.3649 1691.04 10.4612 1689.95 11.3382C1688.62 12.4112 1688.45 14.1892 1689.03 15.7403C1690.15 18.7357 1693.78 19.4132 1696.26 17.7006C1698.67 16.0326 1699.03 12.026 1697.81 9.49135C1696.15 6.01439 1691.55 4.99297 1688.24 6.2345C1684.92 7.47602 1683 10.8017 1682.92 14.344C1682.89 15.9274 1683.23 17.4947 1683.9 18.9154C1684.58 20.3361 1685.58 21.5691 1686.81 22.5119C1690.05 24.9606 1694.06 24.3518 1697.83 24.3518Z" fill="black"/>
</g>
</svg>
