<svg width="1728" height="345" viewBox="0 0 1728 345" fill="none" xmlns="http://www.w3.org/2000/svg">
<path opacity="0.1" fill-rule="evenodd" clip-rule="evenodd" d="M0 336.556V205.671C231.601 275.567 527.871 320.211 853.412 327.286L861.876 335.558C863.061 336.717 864.982 336.717 866.167 335.558L874.222 327.686C897.58 328.077 921.084 328.275 944.721 328.275C1233.49 328.275 1502.44 298.752 1728 247.909V336.556H0Z" fill="black"/>
<path opacity="0.2" fill-rule="evenodd" clip-rule="evenodd" d="M0 336.556V219.393C231.841 282.026 528.486 322.007 854.426 328.277L861.876 335.558C863.061 336.717 864.982 336.717 866.167 335.558L873.285 328.602C896.952 328.961 920.768 329.143 944.721 329.143C1233.49 329.143 1502.44 302.715 1728 257.202V336.556H0Z" fill="black"/>
<path fill-rule="evenodd" clip-rule="evenodd" d="M0 345L0.00123596 237.337C232.155 290.449 529.287 324.327 855.745 329.566L861.876 335.558C863.061 336.717 864.982 336.717 866.167 335.558L872.055 329.804C896.127 330.119 920.354 330.278 944.722 330.278C1233.49 330.278 1502.44 307.898 1728 269.356L1728 345H0Z" fill="black"/>
<g opacity="0.2">
<path d="M52.1523 183.631C52.1523 189.613 49.7211 195.349 45.3934 199.579C41.0658 203.808 35.1963 206.184 29.0761 206.184C22.956 206.184 17.0865 203.808 12.7588 199.579C8.43123 195.349 6 189.613 6 183.631C6 171.176 24.6229 143.669 29.0761 143.669C33.5294 143.669 52.1523 171.176 52.1523 183.631ZM31.9101 191.149C28.6889 191.149 25.5997 189.898 23.322 187.672C21.0443 185.446 19.7647 182.427 19.7647 179.279C19.7634 177.74 20.0715 176.215 20.6716 174.792C18.6858 176.076 17.0748 177.841 15.996 179.916C14.9171 181.99 14.4072 184.303 14.5162 186.627C14.6251 188.952 15.3492 191.209 16.6176 193.178C17.886 195.148 19.6554 196.762 21.7529 197.863C23.8505 198.964 26.2044 199.515 28.5847 199.461C30.9651 199.407 33.2904 198.751 35.3336 197.556C37.3768 196.361 39.068 194.669 40.2419 192.644C41.4158 190.62 42.0323 188.332 42.0312 186.005C42.0312 185.95 42.0312 185.902 42.0312 185.847C40.9225 187.478 39.4182 188.816 37.6523 189.741C35.8863 190.666 33.9137 191.15 31.9101 191.149Z" fill="black"/>
<path d="M1674.03 195.359C1674.03 201.341 1676.46 207.077 1680.78 211.307C1685.11 215.536 1690.98 217.912 1697.1 217.912C1703.22 217.912 1709.09 215.536 1713.42 211.307C1717.75 207.077 1720.18 201.341 1720.18 195.359C1720.18 182.904 1701.55 155.397 1697.1 155.397C1692.65 155.397 1674.03 182.904 1674.03 195.359ZM1694.27 202.877C1697.49 202.877 1700.58 201.626 1702.86 199.4C1705.13 197.174 1706.41 194.155 1706.41 191.007C1706.41 189.468 1706.11 187.943 1705.51 186.52C1707.49 187.804 1709.1 189.569 1710.18 191.644C1711.26 193.718 1711.77 196.031 1711.66 198.355C1711.55 200.68 1710.83 202.937 1709.56 204.906C1708.29 206.876 1706.52 208.49 1704.42 209.591C1702.33 210.692 1699.97 211.243 1697.59 211.189C1695.21 211.135 1692.89 210.479 1690.84 209.284C1688.8 208.089 1687.11 206.397 1685.94 204.372C1684.76 202.348 1684.15 200.06 1684.15 197.733C1684.15 197.678 1684.15 197.63 1684.15 197.575C1685.26 199.206 1686.76 200.544 1688.53 201.469C1690.29 202.394 1692.26 202.878 1694.27 202.877Z" fill="black"/>
<path d="M100.178 209.03C100.178 211.645 99.1147 214.153 97.2227 216.002C95.3306 217.851 92.7645 218.89 90.0888 218.89C87.4131 218.89 84.847 217.851 82.9549 216.002C81.0629 214.153 80 211.645 80 209.03C80 203.584 88.1418 191.558 90.0888 191.558C92.0358 191.558 100.178 203.584 100.178 209.03ZM91.3278 212.316C89.9195 212.316 88.5689 211.77 87.5731 210.796C86.5773 209.823 86.0179 208.503 86.0179 207.127C86.0173 206.454 86.152 205.787 86.4144 205.165C85.5462 205.726 84.8419 206.498 84.3702 207.405C83.8985 208.312 83.6756 209.323 83.7232 210.339C83.7709 211.356 84.0874 212.343 84.642 213.204C85.1965 214.065 85.9701 214.77 86.8871 215.252C87.8042 215.733 88.8333 215.974 89.874 215.95C90.9146 215.927 91.9313 215.64 92.8245 215.117C93.7178 214.595 94.4572 213.855 94.9704 212.97C95.4836 212.085 95.7532 211.085 95.7527 210.068C95.7527 210.043 95.7527 210.023 95.7527 209.998C95.268 210.711 94.6103 211.296 93.8382 211.701C93.0662 212.105 92.2037 212.317 91.3278 212.316Z" fill="black"/>
<path d="M1619 235.418C1619 238.033 1620.06 240.541 1621.95 242.39C1623.85 244.239 1626.41 245.278 1629.09 245.278C1631.76 245.278 1634.33 244.239 1636.22 242.39C1638.11 240.541 1639.18 238.033 1639.18 235.418C1639.18 229.972 1631.04 217.946 1629.09 217.946C1627.14 217.946 1619 229.972 1619 235.418ZM1627.85 238.704C1629.26 238.704 1630.61 238.158 1631.6 237.184C1632.6 236.211 1633.16 234.891 1633.16 233.515C1633.16 232.842 1633.03 232.175 1632.76 231.553C1633.63 232.115 1634.34 232.886 1634.81 233.793C1635.28 234.7 1635.5 235.711 1635.45 236.727C1635.41 237.744 1635.09 238.731 1634.54 239.592C1633.98 240.453 1633.21 241.158 1632.29 241.64C1631.37 242.121 1630.34 242.362 1629.3 242.338C1628.26 242.315 1627.25 242.028 1626.35 241.505C1625.46 240.983 1624.72 240.243 1624.21 239.358C1623.69 238.473 1623.42 237.473 1623.42 236.456C1623.42 236.431 1623.42 236.411 1623.42 236.386C1623.91 237.099 1624.57 237.684 1625.34 238.089C1626.11 238.493 1626.97 238.705 1627.85 238.704Z" fill="black"/>
<path d="M1583.18 245.947C1583.18 247.739 1583.91 249.457 1585.2 250.723C1586.5 251.99 1588.26 252.702 1590.09 252.702C1591.92 252.702 1593.68 251.99 1594.98 250.723C1596.27 249.457 1597 247.739 1597 245.947C1597 242.217 1591.42 233.978 1590.09 233.978C1588.75 233.978 1583.18 242.217 1583.18 245.947ZM1589.24 248.199C1590.2 248.199 1591.13 247.824 1591.81 247.157C1592.49 246.491 1592.88 245.586 1592.88 244.644C1592.88 244.183 1592.79 243.726 1592.61 243.3C1593.2 243.684 1593.68 244.213 1594.01 244.834C1594.33 245.456 1594.48 246.148 1594.45 246.844C1594.42 247.541 1594.2 248.217 1593.82 248.806C1593.44 249.396 1592.91 249.88 1592.28 250.209C1591.65 250.539 1590.95 250.704 1590.24 250.688C1589.52 250.672 1588.83 250.475 1588.21 250.118C1587.6 249.76 1587.1 249.253 1586.74 248.646C1586.39 248.04 1586.21 247.355 1586.21 246.658C1586.21 246.642 1586.21 246.627 1586.21 246.611C1586.54 247.099 1586.99 247.5 1587.52 247.777C1588.05 248.054 1588.64 248.199 1589.24 248.199Z" fill="black"/>
<path d="M100 154.986C100 158.074 98.7451 161.035 96.5113 163.218C94.2775 165.401 91.2479 166.627 88.0888 166.627C84.9298 166.627 81.9001 165.401 79.6663 163.218C77.4325 161.035 76.1776 158.074 76.1776 154.986C76.1776 148.557 85.7902 134.359 88.0888 134.359C90.3875 134.359 100 148.557 100 154.986ZM89.5516 158.867C87.8889 158.867 86.2944 158.221 85.1187 157.072C83.943 155.923 83.2825 154.365 83.2825 152.74C83.2819 151.945 83.4409 151.158 83.7506 150.424C82.7257 151.086 81.8941 151.998 81.3372 153.068C80.7803 154.139 80.5172 155.333 80.5734 156.533C80.6296 157.733 81.0034 158.898 81.6581 159.914C82.3128 160.931 83.2261 161.764 84.3088 162.332C85.3915 162.901 86.6065 163.185 87.8352 163.157C89.0638 163.129 90.2641 162.79 91.3187 162.174C92.3734 161.557 93.2463 160.683 93.8522 159.638C94.4582 158.593 94.7764 157.413 94.7758 156.212C94.7758 156.183 94.7758 156.158 94.7758 156.13C94.2035 156.972 93.4271 157.662 92.5155 158.14C91.604 158.617 90.5858 158.867 89.5516 158.867Z" fill="black"/>
<path d="M1615 162.341C1615 165.429 1616.25 168.39 1618.49 170.573C1620.72 172.756 1623.75 173.983 1626.91 173.983C1630.07 173.983 1633.1 172.756 1635.33 170.573C1637.57 168.39 1638.82 165.429 1638.82 162.341C1638.82 155.912 1629.21 141.714 1626.91 141.714C1624.61 141.714 1615 155.912 1615 162.341ZM1625.45 166.222C1627.11 166.222 1628.71 165.576 1629.88 164.427C1631.06 163.278 1631.72 161.72 1631.72 160.095C1631.72 159.3 1631.56 158.513 1631.25 157.779C1632.27 158.442 1633.11 159.353 1633.66 160.424C1634.22 161.494 1634.48 162.688 1634.43 163.888C1634.37 165.088 1634 166.253 1633.34 167.269C1632.69 168.286 1631.77 169.119 1630.69 169.687C1629.61 170.256 1628.39 170.54 1627.16 170.512C1625.94 170.484 1624.74 170.146 1623.68 169.529C1622.63 168.912 1621.75 168.039 1621.15 166.994C1620.54 165.949 1620.22 164.768 1620.22 163.567C1620.22 163.538 1620.22 163.514 1620.22 163.485C1620.8 164.327 1621.57 165.017 1622.48 165.495C1623.4 165.972 1624.41 166.222 1625.45 166.222Z" fill="black"/>
<path d="M52 124.738C52 126.835 51.1478 128.846 49.6308 130.328C48.1139 131.811 46.0565 132.644 43.9112 132.644C41.7659 132.644 39.7085 131.811 38.1915 130.328C36.6746 128.846 35.8224 126.835 35.8224 124.738C35.8224 120.372 42.3502 110.73 43.9112 110.73C45.4722 110.73 52 120.372 52 124.738ZM44.9045 127.373C43.7755 127.373 42.6926 126.935 41.8942 126.155C41.0958 125.374 40.6473 124.316 40.6473 123.212C40.6468 122.673 40.7548 122.139 40.9652 121.64C40.2691 122.09 39.7044 122.709 39.3262 123.436C38.9481 124.163 38.7693 124.973 38.8075 125.788C38.8457 126.603 39.0995 127.394 39.5441 128.085C39.9888 128.775 40.609 129.341 41.3442 129.727C42.0795 130.113 42.9046 130.306 43.7389 130.287C44.5733 130.268 45.3884 130.038 46.1046 129.619C46.8208 129.2 47.4136 128.607 47.8251 127.897C48.2366 127.188 48.4527 126.386 48.4523 125.57C48.4523 125.551 48.4523 125.534 48.4523 125.515C48.0637 126.086 47.5363 126.555 46.9173 126.88C46.2983 127.204 45.6069 127.373 44.9045 127.373Z" fill="black"/>
<path d="M1675 143.994C1675 146.09 1675.85 148.101 1677.37 149.584C1678.89 151.066 1680.94 151.899 1683.09 151.899C1685.23 151.899 1687.29 151.066 1688.81 149.584C1690.33 148.101 1691.18 146.09 1691.18 143.994C1691.18 139.628 1684.65 129.986 1683.09 129.986C1681.53 129.986 1675 139.628 1675 143.994ZM1682.1 146.629C1683.22 146.629 1684.31 146.191 1685.11 145.41C1685.9 144.63 1686.35 143.572 1686.35 142.468C1686.35 141.929 1686.24 141.394 1686.03 140.895C1686.73 141.345 1687.3 141.964 1687.67 142.691C1688.05 143.419 1688.23 144.229 1688.19 145.044C1688.15 145.859 1687.9 146.65 1687.46 147.34C1687.01 148.031 1686.39 148.596 1685.66 148.982C1684.92 149.368 1684.1 149.561 1683.26 149.542C1682.43 149.524 1681.61 149.294 1680.9 148.875C1680.18 148.456 1679.59 147.863 1679.17 147.153C1678.76 146.443 1678.55 145.642 1678.55 144.826C1678.55 144.807 1678.55 144.79 1678.55 144.77C1678.94 145.342 1679.46 145.811 1680.08 146.135C1680.7 146.46 1681.39 146.629 1682.1 146.629Z" fill="black"/>
<path d="M86.1776 103.923C86.1776 106.02 85.3254 108.03 83.8084 109.513C82.2915 110.996 80.2341 111.828 78.0888 111.828C75.9435 111.828 73.8861 110.996 72.3692 109.513C70.8522 108.03 70 106.02 70 103.923C70 99.557 76.5278 89.9151 78.0888 89.9151C79.6498 89.9151 86.1776 99.557 86.1776 103.923ZM79.0822 106.558C77.9531 106.558 76.8702 106.12 76.0718 105.34C75.2734 104.559 74.8249 103.501 74.8249 102.397C74.8244 101.858 74.9324 101.323 75.1428 100.825C74.4467 101.275 73.882 101.894 73.5038 102.621C73.1257 103.348 72.9469 104.158 72.9851 104.973C73.0233 105.788 73.2771 106.579 73.7217 107.27C74.1664 107.96 74.7866 108.526 75.5218 108.912C76.2571 109.298 77.0822 109.491 77.9165 109.472C78.7509 109.453 79.566 109.223 80.2822 108.804C80.9984 108.385 81.5912 107.792 82.0027 107.082C82.4142 106.373 82.6303 105.571 82.6299 104.755C82.6299 104.736 82.6299 104.719 82.6299 104.7C82.2413 105.271 81.714 105.74 81.095 106.065C80.476 106.389 79.7845 106.558 79.0822 106.558Z" fill="black"/>
<path d="M1646 108.81C1646 110.906 1646.85 112.917 1648.37 114.4C1649.89 115.882 1651.94 116.715 1654.09 116.715C1656.23 116.715 1658.29 115.882 1659.81 114.4C1661.33 112.917 1662.18 110.906 1662.18 108.81C1662.18 104.444 1655.65 94.8017 1654.09 94.8017C1652.53 94.8017 1646 104.444 1646 108.81ZM1653.1 111.445C1654.22 111.445 1655.31 111.006 1656.11 110.226C1656.9 109.446 1657.35 108.388 1657.35 107.284C1657.35 106.744 1657.24 106.21 1657.03 105.711C1657.73 106.161 1658.3 106.78 1658.67 107.507C1659.05 108.234 1659.23 109.045 1659.19 109.86C1659.15 110.675 1658.9 111.466 1658.46 112.156C1658.01 112.846 1657.39 113.412 1656.66 113.798C1655.92 114.184 1655.1 114.377 1654.26 114.358C1653.43 114.339 1652.61 114.109 1651.9 113.691C1651.18 113.272 1650.59 112.679 1650.17 111.969C1649.76 111.259 1649.55 110.457 1649.55 109.642C1649.55 109.622 1649.55 109.606 1649.55 109.586C1649.94 110.158 1650.46 110.627 1651.08 110.951C1651.7 111.275 1652.39 111.445 1653.1 111.445Z" fill="black"/>
<path d="M44 74.7588C44 76.291 43.3772 77.7605 42.2687 78.8439C41.1601 79.9274 39.6566 80.536 38.0888 80.536C36.5211 80.536 35.0175 79.9274 33.909 78.8439C32.8004 77.7605 32.1776 76.291 32.1776 74.7588C32.1776 71.5682 36.9481 64.522 38.0888 64.522C39.2296 64.522 44 71.5682 44 74.7588ZM38.8148 76.6846C37.9896 76.6846 37.1983 76.3642 36.6148 75.794C36.0314 75.2237 35.7036 74.4503 35.7036 73.6439C35.7033 73.2496 35.7822 72.8591 35.9359 72.4945C35.4272 72.8234 35.0146 73.2757 34.7382 73.8071C34.4618 74.3384 34.3312 74.9308 34.3591 75.5263C34.387 76.1217 34.5725 76.6999 34.8974 77.2044C35.2223 77.7089 35.6756 78.1223 36.2129 78.4044C36.7502 78.6865 37.3532 78.8275 37.9629 78.8137C38.5727 78.7999 39.1683 78.6318 39.6917 78.3258C40.2151 78.0197 40.6483 77.5862 40.949 77.0676C41.2497 76.549 41.4077 75.963 41.4074 75.3669C41.4074 75.3528 41.4074 75.3406 41.4074 75.3264C41.1234 75.7442 40.738 76.0869 40.2857 76.3239C39.8333 76.5608 39.328 76.6847 38.8148 76.6846Z" fill="black"/>
<path d="M1693 73.7638C1693 75.296 1693.62 76.7654 1694.73 77.8489C1695.84 78.9323 1697.34 79.541 1698.91 79.541C1700.48 79.541 1701.98 78.9323 1703.09 77.8489C1704.2 76.7654 1704.82 75.296 1704.82 73.7638C1704.82 70.5731 1700.05 63.5269 1698.91 63.5269C1697.77 63.5269 1693 70.5731 1693 73.7638ZM1698.19 75.6895C1699.01 75.6895 1699.8 75.3691 1700.39 74.7989C1700.97 74.2287 1701.3 73.4553 1701.3 72.6488C1701.3 72.2546 1701.22 71.864 1701.06 71.4995C1701.57 71.8284 1701.99 72.2806 1702.26 72.812C1702.54 73.3434 1702.67 73.9357 1702.64 74.5312C1702.61 75.1267 1702.43 75.7049 1702.1 76.2093C1701.78 76.7138 1701.32 77.1273 1700.79 77.4093C1700.25 77.6914 1699.65 77.8324 1699.04 77.8187C1698.43 77.8049 1697.83 77.6367 1697.31 77.3307C1696.78 77.0246 1696.35 76.5912 1696.05 76.0725C1695.75 75.5539 1695.59 74.968 1695.59 74.3719C1695.59 74.3577 1695.59 74.3455 1695.59 74.3313C1695.88 74.7492 1696.26 75.0918 1696.71 75.3288C1697.17 75.5658 1697.67 75.6897 1698.19 75.6895Z" fill="black"/>
<path d="M58.6966 23.2277C58.6966 26.558 57.3429 29.752 54.9334 32.1069C52.5239 34.4618 49.2559 35.7848 45.8483 35.7848C42.4407 35.7848 39.1727 34.4618 36.7632 32.1069C34.3537 29.752 33 26.558 33 23.2277C33 16.2926 43.3688 0.977337 45.8483 0.977337C48.3278 0.977337 58.6966 16.2926 58.6966 23.2277ZM47.4262 27.4134C45.6327 27.4134 43.9127 26.7171 42.6445 25.4776C41.3763 24.2382 40.6639 22.5572 40.6639 20.8044C40.6632 19.9473 40.8347 19.0985 41.1688 18.3062C40.0632 19.021 39.1662 20.004 38.5655 21.159C37.9648 22.314 37.6809 23.6015 37.7416 24.8957C37.8023 26.19 38.2054 27.4468 38.9116 28.5433C39.6179 29.6397 40.603 30.5384 41.7709 31.1515C42.9388 31.7646 44.2494 32.0711 45.5747 32.0412C46.9 32.0112 48.1947 31.6458 49.3323 30.9806C50.4699 30.3154 51.4115 29.3731 52.0651 28.2459C52.7187 27.1187 53.062 25.8451 53.0614 24.5495C53.0614 24.5186 53.0614 24.4922 53.0614 24.4613C52.4441 25.3695 51.6065 26.1143 50.6233 26.6294C49.6401 27.1444 48.5417 27.4138 47.4262 27.4134Z" fill="black"/>
<path d="M1678 22.2503C1678 25.5807 1679.35 28.7746 1681.76 31.1295C1684.17 33.4845 1687.44 34.8074 1690.85 34.8074C1694.26 34.8074 1697.52 33.4845 1699.93 31.1295C1702.34 28.7746 1703.7 25.5807 1703.7 22.2503C1703.7 15.3153 1693.33 0 1690.85 0C1688.37 0 1678 15.3153 1678 22.2503ZM1689.27 26.436C1691.06 26.436 1692.78 25.7397 1694.05 24.5003C1695.32 23.2609 1696.03 21.5798 1696.03 19.827C1696.03 18.97 1695.86 18.1212 1695.53 17.3288C1696.63 18.0437 1697.53 19.0266 1698.13 20.1816C1698.73 21.3366 1699.02 22.6241 1698.95 23.9184C1698.89 25.2127 1698.49 26.4694 1697.78 27.5659C1697.08 28.6624 1696.09 29.5611 1694.93 30.1742C1693.76 30.7873 1692.45 31.0938 1691.12 31.0638C1689.8 31.0339 1688.5 30.6685 1687.36 30.0032C1686.23 29.338 1685.28 28.3958 1684.63 27.2686C1683.98 26.1414 1683.63 24.8678 1683.64 23.5721C1683.64 23.5413 1683.64 23.5148 1683.64 23.484C1684.25 24.3922 1685.09 25.137 1686.07 25.652C1687.06 26.1671 1688.15 26.4364 1689.27 26.436Z" fill="black"/>
</g>
</svg>
