<svg width="332" height="120" viewBox="0 0 332 120" fill="none" xmlns="http://www.w3.org/2000/svg">
<path d="M61.633 55.7077C60.5116 49.663 52.6433 46.3312 44.8423 50.6053L46.8531 57.5234L51.4596 72.4032C57.3121 68.6228 63.1947 64.0805 61.633 55.7077ZM53.8844 65.0028C53.0325 62.2097 51.1639 56.1788 51.1639 56.1788C51.1727 56.2064 50.796 54.8882 50.3494 53.3795C52.0034 53.0826 53.5925 53.2029 54.8998 53.8344C55.6307 54.184 56.9155 54.9997 57.1961 56.546C57.8423 60.0219 56.676 62.5029 53.8844 65.0028Z" fill="white"/>
<path d="M179.676 46.1169C175.315 42.0984 168.537 42.4104 164.56 46.7873C160.558 51.1567 160.872 57.9694 165.239 61.9717C165.595 62.3162 165.979 62.5982 166.366 62.8751L180.432 46.8725C180.184 46.6119 179.934 46.3525 179.676 46.1169ZM166.394 57.373C165.019 54.8356 165.297 51.614 167.354 49.356C169.332 47.1908 172.363 46.5743 174.948 47.5755L166.394 57.373Z" fill="white"/>
<path d="M270.703 60.5144C270.822 60.9893 270.883 61.4592 270.868 61.9591C270.738 64.9489 267.94 67.257 264.605 67.1003C261.272 66.9851 258.654 64.4439 258.785 61.4617C258.897 58.6661 261.377 56.4533 264.439 56.3117C263.858 56.1801 263.25 56.1112 262.616 56.0886C257.037 55.8468 252.477 59.8164 252.285 64.7584C252.07 70.0437 256.287 74.353 261.778 74.5923C267.365 74.8166 271.923 70.8332 272.145 65.5729C272.21 63.7497 271.674 62.0017 270.703 60.5144Z" fill="white"/>
<path d="M101.443 66.5503C101.443 69.5526 98.7255 71.9584 95.3963 71.9584C92.0584 71.9584 89.3504 69.5513 89.3504 66.5503C89.3504 63.7522 91.7329 61.4454 94.7864 61.1772C94.2014 61.0707 93.5927 61.0093 92.964 61.0093C87.3858 61.0093 82.9852 65.1657 82.9852 70.1152C82.9852 75.3967 87.3871 79.5393 92.8742 79.5393C98.4573 79.5393 102.854 75.3942 102.854 70.1152C102.854 68.287 102.253 66.5641 101.219 65.1456C101.359 65.5729 101.443 66.0465 101.443 66.5503Z" fill="white"/>
<path d="M305.406 36.2267L302.928 46.4828L300.641 35.1265L270.007 28.3526L270.222 45.4641L274.838 46.5041L274.505 49.5904C274.445 49.5665 274.408 49.5302 274.375 49.5039C268.652 46.4703 261.557 46.1595 254.88 48.6932C252.64 49.554 250.561 50.6855 248.675 52.0614L244.053 22.7552H223.68L223.119 26.1247H201.676L199.227 41.19L197.449 38.9834C192.252 32.5703 184.719 29.038 176.374 28.8626L194.581 19.0324L181.885 0L158.948 26.5507L162.907 31.4C159.321 32.8723 156.187 34.9022 153.592 37.3544L133.925 19.8256L127.048 33.0653L127.312 20.3419L96.5639 30.2096L97.3522 46.8048L102.584 45.4415L103.357 53.852C97.3796 51.1554 90.1949 51.2218 83.5315 54.0499C81.5569 54.9145 79.7158 55.9771 78.0194 57.2126C79.172 52.0889 78.8988 47.0379 76.9555 42.5332C74.6603 37.2103 70.6214 32.8109 65.6694 30.0354C62.198 27.7123 58.0605 26.265 53.731 25.7725C43.0911 23.9043 30.3144 25.8227 17.7399 31.2045C13.1172 33.1855 8.80507 35.4335 4.91582 37.922L0 41.0534L12.1817 61.7311C12.1817 61.7311 15.0007 66.524 15.0194 66.5214L20.0013 64.0617L20.6961 63.7409L43.5888 115.067L45.7966 120L50.9082 118.346L63.2944 114.36L68.7229 112.627L67.291 107.076L60.7124 81.7083C62.6047 80.3011 64.3709 78.8088 66.0012 77.2462C65.6332 80.2773 65.8266 83.346 66.6573 86.2832C68.3774 92.4331 72.3864 97.2911 77.9496 99.9827C83.9581 102.883 91.2888 102.891 98.0706 100.001C101.472 98.5517 104.497 96.4366 107.06 93.9192L107.995 104.022L129.686 100.813L129.652 81.2748L174.977 103.778V81.989C176.796 81.8361 178.652 81.5479 180.518 81.0881C185.51 79.8764 189.782 78.2148 193.578 75.9305L191.675 87.6327L216.113 91.4958L217.454 82.6619L223.836 94.5069L227.738 86.9548L229.164 99.3549L256.871 104.262L255.402 94.8978C259.195 95.3289 263.193 94.8176 267.055 93.3541C267.969 93.0145 268.872 92.601 269.736 92.1574L268.632 102.12L287.073 104.734L287.211 112.331L306.44 118.395L331.475 42.5921L305.406 36.2267ZM197.144 47.4915L198.415 46.1345L196.88 55.6914L192.874 52.0676L197.144 47.4915ZM180.906 8.45176L187.619 17.6127L168.426 27.1709L167.1 25.1473L180.906 8.45176ZM53.8146 79.0945L61.4721 108.61L49.0784 112.587L23.6461 55.531C22.2628 56.2616 19.7082 57.487 17.3619 58.6423L8.1527 43.0144C11.8149 40.6649 15.8314 38.5824 20.1036 36.7692C32.0932 31.6468 43.5326 30.1181 52.682 31.742C55.9188 32.1079 59.3453 33.0665 62.3465 35.0676C66.464 37.397 69.6135 40.7126 71.4297 44.9353C75.859 55.2178 68.4597 70.0149 53.8146 79.0945ZM110.795 73.8417C110.653 78.2361 109.046 82.6393 106.357 86.3646C103.798 89.9671 100.225 92.9406 96.02 94.7587C85.2678 99.3348 74.5156 94.7587 71.643 84.5038C68.8601 74.5885 75.3351 62.7849 85.753 58.2764C92.4064 55.4546 99.0823 56.1237 103.865 59.3879C106.818 61.4003 109.071 64.4264 110.123 68.2181C110.255 68.6203 110.342 69.0426 110.431 69.4561C110.731 70.9008 110.852 72.3819 110.795 73.8417ZM169.297 94.7086L124.324 72.1125L124.404 95.7875L112.769 97.3813L111.959 87.6227C115.551 81.4351 116.865 74.1437 114.99 67.4575C113.961 63.7823 112.06 60.5921 109.476 58.0359L107.807 38.1388L102.584 39.4996L102.353 34.4687L121.036 28.8801L122.181 48.2371L135.944 28.8112L149.399 41.6837L130.583 61.597L148.26 68.6215C150.235 72.3807 153.247 75.5747 157.027 77.9279C160.68 80.1934 164.866 81.5329 169.295 81.9727L169.297 94.7086ZM145.945 61.9717L139.69 59.547L145.521 53.8532C145.272 56.467 145.4 59.1999 145.945 61.9717ZM194.888 67.891C190.572 71.4772 185.652 73.8154 179.152 75.393C177.732 75.72 176.34 75.9581 174.977 76.0784C164.661 77.0971 156.005 72.3381 152.721 64.6193C152.312 63.6846 151.996 62.7385 151.758 61.7286C150.239 55.2278 151.536 49.4174 154.733 44.8651C155.653 43.5369 156.746 42.3265 157.974 41.2363C160.985 38.5373 164.829 36.575 169.2 35.52C179.028 33.1392 187.683 36.1527 192.989 42.6936L174.261 62.7185C175.531 62.9591 177.551 62.6245 179.041 62.2661C183.502 61.1735 185.998 58.7952 188.197 56.2039L195.681 62.9678L197.949 65.0253C196.966 66.0465 195.933 67.0101 194.888 67.891ZM234.62 94.6146L230.546 67.5051L224.784 82.4601L216.158 63.7685H216.06L212.651 85.4148L198.273 82.9012L200.295 70.8219C200.838 70.3094 201.371 69.7956 201.897 69.2531L206.557 64.4326L202.028 60.3577L206.84 31.5917H221.347L224.978 51.505L229.046 28.4277H239.423L243.729 56.5435C238.249 62.8137 235.588 71.2429 237.419 78.9541C238.834 84.9324 242.492 89.7466 247.734 92.5584C248.262 92.8253 248.808 93.0897 249.372 93.3177L249.921 96.9628L234.62 94.6146ZM270.45 85.782C268.865 86.916 267.119 87.8795 265.243 88.575C261.54 89.9922 257.857 90.2866 254.575 89.6313C252.287 89.1777 250.202 88.2818 248.387 86.9849C245.5 84.8873 243.375 81.7898 242.438 77.9003C241.345 73.2277 242.352 68.2381 244.854 63.8675C246.102 61.7311 247.702 59.7237 249.595 57.9933C251.707 56.0911 254.156 54.5336 256.88 53.481C263.22 51.1053 269.473 51.9248 273.875 55.1037C275.494 56.2565 276.838 57.7239 277.897 59.4292C278.7 60.7763 279.324 62.2611 279.701 63.8825C281.05 69.4937 279.445 75.5033 275.921 80.345C274.411 82.4088 272.572 84.2633 270.45 85.782ZM302.825 111.334L292.192 108.152L291.266 68.7744L285.918 99.1519L274.319 97.2924L275.15 88.5462C282.724 82.1168 286.739 71.9747 284.539 62.7836C283.572 58.7137 281.489 55.1702 278.553 52.4761L279.532 42.1611L275.146 40.9882L275.439 35.4811L295.423 39.5159L302.143 71.5261L309.034 42.8277L324.237 46.2021L302.825 111.334Z" fill="white"/>
<path d="M311.562 115.066V112.093H310.457V111.695H313.116V112.093H312.006V115.066H311.562Z" fill="white"/>
<path d="M313.56 115.066V111.695H314.228L315.023 114.082C315.096 114.304 315.149 114.47 315.183 114.581C315.221 114.458 315.28 114.278 315.361 114.041L316.165 111.695H316.762V115.066H316.334V112.245L315.359 115.066H314.959L313.988 112.197V115.066H313.56Z" fill="white"/>
</svg>
