<svg width="1728" height="507" viewBox="0 0 1728 507" fill="none" xmlns="http://www.w3.org/2000/svg">
<path opacity="0.1" fill-rule="evenodd" clip-rule="evenodd" d="M0 0C67.2324 -2.93882e-06 131.711 26.708 179.252 74.2484C226.792 121.789 253.5 186.268 253.5 253.5C253.5 320.732 226.792 385.211 179.252 432.752C131.711 480.292 67.2324 507 6.04391e-05 507L5.19357e-05 463.327C55.6496 463.327 109.02 441.22 148.37 401.87C182.264 367.976 203.365 323.681 208.565 276.487H83.3305C79.3867 290.782 71.7941 303.954 61.1241 314.624C44.913 330.835 22.926 339.943 3.52141e-05 339.943L2.67986e-05 296.721C11.463 296.721 22.4565 292.168 30.5621 284.062C38.6676 275.956 43.2213 264.963 43.2213 253.5C43.2213 242.037 38.6676 231.044 30.5621 222.938C22.4565 214.832 11.463 210.279 1.64939e-05 210.279L1.46046e-05 167.057C22.926 167.057 44.913 176.165 61.1241 192.376C71.6328 202.885 79.1564 215.821 83.1491 229.866H208.492C203.171 182.914 182.109 138.869 148.37 105.13C109.02 65.7797 55.6496 43.673 1.90901e-06 43.673L0 0Z" fill="url(#paint0_linear_121_1036)"/>
<path opacity="0.1" fill-rule="evenodd" clip-rule="evenodd" d="M1727.5 0C1660.27 -2.93882e-06 1595.79 26.708 1548.25 74.2484C1500.71 121.789 1474 186.268 1474 253.5C1474 320.732 1500.71 385.211 1548.25 432.752C1595.79 480.292 1660.27 507 1727.5 507L1727.5 463.327C1671.85 463.327 1618.48 441.22 1579.13 401.87C1545.24 367.976 1524.14 323.681 1518.94 276.487H1644.17C1648.11 290.782 1655.71 303.954 1666.38 314.624C1682.59 330.835 1704.57 339.943 1727.5 339.943L1727.5 296.721C1716.04 296.721 1705.04 292.168 1696.94 284.062C1688.83 275.956 1684.28 264.963 1684.28 253.5C1684.28 242.037 1688.83 231.044 1696.94 222.938C1705.04 214.832 1716.04 210.279 1727.5 210.279L1727.5 167.057C1704.57 167.057 1682.59 176.165 1666.38 192.376C1655.87 202.885 1648.34 215.821 1644.35 229.866H1519.01C1524.33 182.914 1545.39 138.869 1579.13 105.13C1618.48 65.7797 1671.85 43.673 1727.5 43.673L1727.5 0Z" fill="url(#paint1_linear_121_1036)"/>
<defs>
<linearGradient id="paint0_linear_121_1036" x1="126.75" y1="0" x2="126.75" y2="507" gradientUnits="userSpaceOnUse">
<stop stop-color="#002446"/>
<stop offset="1" stop-color="#002241" stop-opacity="0"/>
</linearGradient>
<linearGradient id="paint1_linear_121_1036" x1="1600.75" y1="0" x2="1600.75" y2="507" gradientUnits="userSpaceOnUse">
<stop stop-color="#002446"/>
<stop offset="1" stop-color="#002241" stop-opacity="0"/>
</linearGradient>
</defs>
</svg>
