<svg width="2117" height="507" viewBox="0 0 2117 507" fill="none" xmlns="http://www.w3.org/2000/svg">
<path opacity="0.1" fill-rule="evenodd" clip-rule="evenodd" d="M0 0C67.2324 -2.93882e-06 131.711 26.708 179.252 74.2484C226.792 121.789 253.5 186.268 253.5 253.5C253.5 320.732 226.792 385.211 179.252 432.752C131.711 480.292 67.2324 507 6.04391e-05 507L5.19357e-05 463.327C55.6496 463.327 109.02 441.22 148.37 401.87C182.264 367.976 203.365 323.681 208.565 276.487H83.3305C79.3867 290.782 71.7941 303.954 61.1241 314.624C44.913 330.835 22.926 339.943 3.52141e-05 339.943L2.67986e-05 296.721C11.463 296.721 22.4565 292.168 30.5621 284.062C38.6676 275.956 43.2213 264.963 43.2213 253.5C43.2213 242.037 38.6676 231.044 30.5621 222.938C22.4565 214.832 11.463 210.279 1.64939e-05 210.279L1.46046e-05 167.057C22.926 167.057 44.913 176.165 61.1241 192.376C71.6328 202.885 79.1564 215.821 83.1491 229.866H208.492C203.171 182.914 182.109 138.869 148.37 105.13C109.02 65.7797 55.6496 43.673 1.90901e-06 43.673L0 0Z" fill="url(#paint0_linear_153_1843)"/>
<path opacity="0.1" fill-rule="evenodd" clip-rule="evenodd" d="M2116.5 0C2049.27 -2.93882e-06 1984.79 26.708 1937.25 74.2484C1889.71 121.789 1863 186.268 1863 253.5C1863 320.732 1889.71 385.211 1937.25 432.752C1984.79 480.292 2049.27 507 2116.5 507L2116.5 463.327C2060.85 463.327 2007.48 441.22 1968.13 401.87C1934.24 367.976 1913.14 323.681 1907.94 276.487H2033.17C2037.11 290.782 2044.71 303.954 2055.38 314.624C2071.59 330.835 2093.57 339.943 2116.5 339.943L2116.5 296.721C2105.04 296.721 2094.04 292.168 2085.94 284.062C2077.83 275.956 2073.28 264.963 2073.28 253.5C2073.28 242.037 2077.83 231.044 2085.94 222.938C2094.04 214.832 2105.04 210.279 2116.5 210.279L2116.5 167.057C2093.57 167.057 2071.59 176.165 2055.38 192.376C2044.87 202.885 2037.34 215.821 2033.35 229.866H1908.01C1913.33 182.914 1934.39 138.869 1968.13 105.13C2007.48 65.7797 2060.85 43.673 2116.5 43.673L2116.5 0Z" fill="url(#paint1_linear_153_1843)"/>
<defs>
<linearGradient id="paint0_linear_153_1843" x1="126.75" y1="0" x2="126.75" y2="507" gradientUnits="userSpaceOnUse">
<stop/>
<stop offset="1" stop-opacity="0"/>
</linearGradient>
<linearGradient id="paint1_linear_153_1843" x1="1989.75" y1="0" x2="1989.75" y2="507" gradientUnits="userSpaceOnUse">
<stop/>
<stop offset="1" stop-opacity="0"/>
</linearGradient>
</defs>
</svg>
