<svg width="1601" height="323" viewBox="0 0 1601 323" fill="none" xmlns="http://www.w3.org/2000/svg">
<path opacity="0.1" fill-rule="evenodd" clip-rule="evenodd" d="M0 315V191C214.445 257.22 488.77 299.515 790.197 306.217L797.899 313.92C799.071 315.092 800.971 315.092 802.142 313.92L809.466 306.597C831.094 306.967 852.856 307.155 874.742 307.155C1142.12 307.155 1391.15 279.185 1600 231.016V315H0Z" fill="black"/>
<path opacity="0.2" fill-rule="evenodd" clip-rule="evenodd" d="M0 315V204C214.668 263.339 489.34 301.217 791.136 307.157L797.899 313.92C799.071 315.092 800.971 315.092 802.142 313.92L808.598 307.464C830.512 307.805 852.564 307.977 874.742 307.977C1142.12 307.977 1391.15 282.94 1600 239.821V315H0Z" fill="black"/>
<path fill-rule="evenodd" clip-rule="evenodd" d="M0 323L0.00114441 221C214.959 271.319 490.081 303.414 792.357 308.378L797.899 313.92C799.071 315.092 800.971 315.092 802.142 313.92L807.459 308.603C829.748 308.902 852.18 309.053 874.743 309.053C1142.12 309.053 1391.15 287.85 1600 251.335L1600 323H0Z" fill="black"/>
<path opacity="0.2" d="M97.9991 125.337C97.031 124.526 93.1623 125.416 92.062 125.542C88.4149 125.923 84.8217 126.679 81.3453 127.797C77.7552 129.007 74.8259 130.752 73.1291 134.135C72.0958 136.248 71.6954 138.592 71.9722 140.908C72.249 143.225 73.1921 145.423 74.6973 147.26C75.4796 146.466 76.6013 145.665 77.2193 144.752C78.0445 143.536 77.5944 141.106 77.6551 139.58C77.673 139.13 77.848 132.905 78.166 132.885C78.5518 132.861 79.5484 138.97 79.9056 141.246C79.919 141.318 79.9526 141.386 80.003 141.442C80.0533 141.498 80.1185 141.54 80.1917 141.563C80.2648 141.586 80.3433 141.59 80.4187 141.575C80.4941 141.559 80.5637 141.524 80.6201 141.474C81.4703 140.672 82.3241 139.877 83.1814 139.089C83.7673 138.547 84.0602 138.336 84.2174 137.631C84.3745 136.926 84.2566 135.965 84.3067 135.219C84.3352 134.776 84.6639 129.167 85.0854 129.14C85.5069 129.113 86.3893 133.511 86.7179 135.157C86.7338 135.212 86.7639 135.263 86.8056 135.304C86.8473 135.345 86.8992 135.376 86.9566 135.393C87.0139 135.41 87.0747 135.413 87.1335 135.401C87.1924 135.39 87.2472 135.365 87.2931 135.328C89.0292 133.723 94.4376 128.707 94.6912 128.932C94.9448 129.157 90.4545 134.915 89.0149 136.769C88.9825 136.817 88.9634 136.872 88.9594 136.93C88.9554 136.987 88.9665 137.044 88.9918 137.096C89.0171 137.148 89.0557 137.193 89.104 137.227C89.1524 137.261 89.209 137.283 89.2685 137.29C91.0225 137.382 95.6986 137.672 95.7379 138.04C95.7772 138.408 89.9437 139.498 89.5221 139.576C88.8077 139.716 88.0111 139.764 87.2966 139.941C86.3821 140.169 86.225 140.384 85.6498 141.147C84.9354 142.056 84.2209 142.964 83.5065 143.873C83.4584 143.934 83.4288 144.006 83.421 144.081C83.4131 144.157 83.4274 144.233 83.4621 144.302C83.4969 144.37 83.5508 144.428 83.6179 144.469C83.6849 144.51 83.7626 144.532 83.8423 144.534C86.2571 144.572 92.7336 144.711 92.7729 145.079C92.7908 145.386 86.3428 146.367 85.8785 146.442C84.4031 146.684 81.9097 146.589 80.7273 147.331C79.8163 147.904 78.9769 149.437 78.2838 150.248C80.3215 151.395 82.6443 152 85.0104 152C87.3765 152 89.6992 151.395 91.7369 150.248C95.1663 148.296 96.7381 145.328 97.574 141.73C98.3264 138.242 98.6619 134.683 98.5742 131.123C98.5742 129.828 98.5242 128.53 98.3885 127.242C98.3349 126.809 98.3813 125.658 97.9991 125.337Z" fill="black"/>
<path opacity="0.2" d="M86.2457 178.215C85.3746 178.036 83.3515 179.856 82.7314 180.296C80.6627 181.731 78.7591 183.378 77.0539 185.21C75.3123 187.135 74.1586 189.171 74.3281 191.807C74.4498 193.445 75.0355 195.016 76.0205 196.347C77.0054 197.679 78.3512 198.718 79.9089 199.35C80.1012 198.605 80.4961 197.744 80.5471 196.979C80.6161 195.961 79.4866 194.617 78.9844 193.66C78.8364 193.378 76.7445 189.498 76.9293 189.381C77.1539 189.239 79.9128 192.662 80.9321 193.942C80.9657 193.982 81.01 194.013 81.0601 194.03C81.1102 194.048 81.1643 194.052 81.2167 194.042C81.2692 194.033 81.318 194.009 81.358 193.975C81.3981 193.941 81.4279 193.896 81.4443 193.847C81.6748 193.075 81.9098 192.305 82.1495 191.539C82.3121 191.013 82.4145 190.787 82.2604 190.302C82.1064 189.817 81.696 189.266 81.4627 188.792C81.3236 188.51 79.5422 184.958 79.7872 184.803C80.0322 184.647 82.1182 187.058 82.8977 187.96C82.9267 187.989 82.9628 188.01 83.0025 188.021C83.0422 188.033 83.0844 188.034 83.125 188.026C83.1656 188.017 83.2034 187.999 83.2349 187.973C83.2664 187.947 83.2906 187.913 83.3053 187.875C83.7874 186.318 85.2839 181.457 85.5165 181.512C85.7491 181.566 85.0695 186.581 84.8542 188.193C84.8517 188.233 84.8597 188.274 84.8774 188.31C84.8951 188.346 84.9221 188.378 84.9557 188.401C84.9893 188.425 85.0285 188.44 85.0697 188.445C85.1109 188.45 85.1528 188.445 85.1914 188.43C86.2835 187.908 89.2104 186.546 89.3641 186.759C89.5177 186.972 86.3788 189.563 86.1518 189.75C85.7695 190.071 85.3052 190.363 84.9361 190.707C84.4643 191.148 84.4451 191.332 84.3671 191.99C84.2563 192.783 84.1455 193.576 84.0347 194.369C84.027 194.422 84.0346 194.476 84.0566 194.525C84.0786 194.574 84.1141 194.616 84.1592 194.647C84.2044 194.678 84.2573 194.695 84.3124 194.698C84.3674 194.702 84.4222 194.69 84.4709 194.665C85.9429 193.892 89.9045 191.845 90.0582 192.058C90.1772 192.241 86.6286 194.967 86.3745 195.166C85.5687 195.8 84.0288 196.563 83.5768 197.408C83.2286 198.059 83.2628 199.277 83.1304 200.004C84.7663 200.037 86.383 199.643 87.8123 198.864C89.2416 198.085 90.4311 196.948 91.2571 195.573C92.6395 193.245 92.5413 190.905 91.776 188.421C90.999 186.031 89.9455 183.735 88.6356 181.578C88.1785 180.783 87.69 180.003 87.1533 179.256C86.9682 179.008 86.5897 178.286 86.2457 178.215Z" fill="black"/>
<path opacity="0.2" d="M1495.84 133.336C1496.81 132.525 1500.68 133.415 1501.78 133.541C1505.42 133.922 1509.02 134.678 1512.49 135.796C1516.08 137.006 1519.01 138.75 1520.71 142.134C1521.74 144.247 1522.14 146.591 1521.87 148.907C1521.59 151.224 1520.65 153.422 1519.14 155.259C1518.36 154.465 1517.24 153.664 1516.62 152.751C1515.79 151.535 1516.24 149.105 1516.18 147.579C1516.17 147.129 1515.99 140.904 1515.67 140.883C1515.29 140.86 1514.29 146.969 1513.93 149.245C1513.92 149.317 1513.89 149.385 1513.84 149.441C1513.78 149.497 1513.72 149.538 1513.65 149.562C1513.57 149.585 1513.49 149.589 1513.42 149.574C1513.34 149.558 1513.27 149.523 1513.22 149.473C1512.37 148.671 1511.51 147.876 1510.66 147.088C1510.07 146.546 1509.78 146.335 1509.62 145.63C1509.46 144.924 1509.58 143.964 1509.53 143.217C1509.5 142.774 1509.17 137.166 1508.75 137.139C1508.33 137.112 1507.45 141.51 1507.12 143.156C1507.1 143.211 1507.07 143.262 1507.03 143.303C1506.99 143.344 1506.94 143.375 1506.88 143.392C1506.82 143.409 1506.76 143.412 1506.7 143.4C1506.65 143.389 1506.59 143.363 1506.55 143.326C1504.81 141.722 1499.4 136.706 1499.15 136.931C1498.89 137.156 1503.38 142.914 1504.82 144.768C1504.86 144.816 1504.87 144.871 1504.88 144.928C1504.88 144.986 1504.87 145.043 1504.85 145.095C1504.82 145.147 1504.78 145.192 1504.73 145.226C1504.69 145.26 1504.63 145.281 1504.57 145.289C1502.82 145.381 1498.14 145.671 1498.1 146.039C1498.06 146.407 1503.89 147.497 1504.32 147.575C1505.03 147.715 1505.83 147.763 1506.54 147.94C1507.46 148.168 1507.61 148.383 1508.19 149.146C1508.9 150.055 1509.62 150.963 1510.33 151.872C1510.38 151.933 1510.41 152.005 1510.42 152.08C1510.42 152.156 1510.41 152.232 1510.38 152.301C1510.34 152.369 1510.29 152.427 1510.22 152.468C1510.15 152.509 1510.08 152.531 1510 152.533C1507.58 152.57 1501.1 152.71 1501.07 153.078C1501.05 153.385 1507.5 154.366 1507.96 154.441C1509.44 154.683 1511.93 154.588 1513.11 155.33C1514.02 155.903 1514.86 157.436 1515.55 158.247C1513.52 159.394 1511.19 159.999 1508.83 159.999C1506.46 159.999 1504.14 159.394 1502.1 158.247C1498.67 156.295 1497.1 153.327 1496.26 149.729C1495.51 146.241 1495.18 142.682 1495.26 139.122C1495.26 137.827 1495.31 136.529 1495.45 135.241C1495.5 134.808 1495.46 133.657 1495.84 133.336Z" fill="black"/>
<path opacity="0.2" d="M1521.36 204.337C1520.39 203.526 1516.53 204.416 1515.43 204.542C1511.78 204.923 1508.19 205.679 1504.71 206.797C1501.12 208.007 1498.19 209.752 1496.49 213.135C1495.46 215.248 1495.06 217.592 1495.34 219.908C1495.61 222.225 1496.56 224.423 1498.06 226.26C1498.84 225.466 1499.96 224.665 1500.58 223.752C1501.41 222.536 1500.96 220.106 1501.02 218.58C1501.04 218.13 1501.21 211.905 1501.53 211.885C1501.92 211.861 1502.91 217.97 1503.27 220.246C1503.28 220.318 1503.32 220.386 1503.37 220.442C1503.42 220.498 1503.48 220.54 1503.56 220.563C1503.63 220.586 1503.71 220.59 1503.78 220.575C1503.86 220.559 1503.93 220.524 1503.98 220.474C1504.83 219.672 1505.69 218.877 1506.54 218.089C1507.13 217.547 1507.42 217.336 1507.58 216.631C1507.74 215.926 1507.62 214.965 1507.67 214.219C1507.7 213.776 1508.03 208.167 1508.45 208.14C1508.87 208.113 1509.75 212.511 1510.08 214.157C1510.1 214.212 1510.13 214.263 1510.17 214.304C1510.21 214.345 1510.26 214.376 1510.32 214.393C1510.38 214.41 1510.44 214.413 1510.5 214.401C1510.56 214.39 1510.61 214.365 1510.66 214.328C1512.39 212.723 1517.8 207.707 1518.05 207.932C1518.31 208.157 1513.82 213.915 1512.38 215.769C1512.35 215.817 1512.33 215.872 1512.32 215.93C1512.32 215.987 1512.33 216.044 1512.36 216.096C1512.38 216.148 1512.42 216.193 1512.47 216.227C1512.52 216.261 1512.57 216.283 1512.63 216.29C1514.39 216.382 1519.06 216.672 1519.1 217.04C1519.14 217.408 1513.31 218.498 1512.89 218.576C1512.17 218.716 1511.37 218.764 1510.66 218.941C1509.75 219.169 1509.59 219.384 1509.01 220.147C1508.3 221.056 1507.58 221.964 1506.87 222.873C1506.82 222.934 1506.79 223.006 1506.78 223.081C1506.78 223.157 1506.79 223.233 1506.83 223.302C1506.86 223.37 1506.91 223.428 1506.98 223.469C1507.05 223.51 1507.13 223.532 1507.21 223.534C1509.62 223.572 1516.1 223.711 1516.14 224.079C1516.15 224.386 1509.71 225.367 1509.24 225.442C1507.77 225.684 1505.27 225.589 1504.09 226.331C1503.18 226.904 1502.34 228.437 1501.65 229.248C1503.68 230.395 1506.01 231 1508.37 231C1510.74 231 1513.06 230.395 1515.1 229.248C1518.53 227.296 1520.1 224.328 1520.94 220.73C1521.69 217.242 1522.03 213.683 1521.94 210.123C1521.94 208.828 1521.89 207.53 1521.75 206.242C1521.7 205.809 1521.74 204.658 1521.36 204.337Z" fill="black"/>
<path opacity="0.2" d="M53.8399 0.337413C52.8718 -0.47352 49.0031 0.41578 47.9028 0.541849C44.2557 0.92261 40.6625 1.67889 37.1861 2.79747C33.596 4.00705 30.6667 5.75158 28.9699 9.13501C27.9366 11.2478 27.5362 13.5921 27.813 15.9084C28.0898 18.2248 29.0329 20.423 30.5381 22.2599C31.3205 21.466 32.4421 20.6653 33.0601 19.7521C33.8853 18.5357 33.4352 16.1063 33.496 14.5798C33.5138 14.1301 33.6889 7.90498 34.0068 7.88454C34.3926 7.86069 35.3892 13.9699 35.7465 16.246C35.7598 16.3185 35.7935 16.3862 35.8438 16.442C35.8941 16.4977 35.9593 16.5395 36.0325 16.5629C36.1057 16.5863 36.1841 16.5904 36.2595 16.5748C36.3349 16.5592 36.4045 16.5245 36.4609 16.4743C37.3111 15.6725 38.1649 14.8774 39.0222 14.0892C39.6081 13.5474 39.901 13.3362 40.0582 12.6309C40.2154 11.9256 40.0975 10.9647 40.1475 10.2185C40.1761 9.77558 40.5047 4.1672 40.9262 4.13994C41.3478 4.11268 42.2301 8.51148 42.5588 10.1572C42.5746 10.2124 42.6047 10.2629 42.6464 10.3041C42.6882 10.3453 42.7401 10.3757 42.7974 10.3927C42.8547 10.4097 42.9156 10.4126 42.9744 10.4012C43.0332 10.3898 43.088 10.3645 43.1339 10.3276C44.87 8.72273 50.2784 3.70721 50.532 3.93209C50.7856 4.15697 46.2953 9.91528 44.8557 11.7688C44.8233 11.8171 44.8043 11.8724 44.8002 11.9295C44.7962 11.9867 44.8073 12.0439 44.8326 12.0959C44.8579 12.1478 44.8965 12.1929 44.9449 12.2268C44.9932 12.2608 45.0498 12.2826 45.1093 12.2902C46.8633 12.3822 51.5394 12.6718 51.5787 13.0398C51.618 13.4077 45.7845 14.4981 45.363 14.5764C44.6485 14.7161 43.8519 14.7638 43.1375 14.941C42.223 15.1693 42.0658 15.384 41.4906 16.1472C40.7762 17.0558 40.0617 17.9644 39.3473 18.873C39.2992 18.9336 39.2696 19.0057 39.2618 19.0814C39.254 19.157 39.2682 19.2332 39.303 19.3016C39.3377 19.37 39.3916 19.4279 39.4587 19.4689C39.5258 19.5099 39.6034 19.5325 39.6831 19.534C42.0979 19.5715 48.5744 19.7112 48.6137 20.0792C48.6316 20.3859 42.1837 21.3672 41.7193 21.4421C40.2439 21.684 37.7505 21.5886 36.5681 22.3314C35.6572 22.9038 34.8177 24.4371 34.1247 25.248C36.1624 26.395 38.4852 27 40.8512 27C43.2173 27 45.5401 26.395 47.5778 25.248C51.0071 23.2957 52.5789 20.3279 53.4148 16.7298C54.1672 13.2416 54.5027 9.68328 54.415 6.12298C54.415 4.82821 54.365 3.53004 54.2293 2.24208C54.1757 1.80936 54.2221 0.657697 53.8399 0.337413Z" fill="black"/>
<path opacity="0.2" d="M1552.32 0.337413C1553.29 -0.47352 1557.16 0.41578 1558.26 0.541849C1561.91 0.92261 1565.5 1.67889 1568.98 2.79747C1572.57 4.00705 1575.49 5.75158 1577.19 9.13501C1578.22 11.2478 1578.63 13.5921 1578.35 15.9084C1578.07 18.2248 1577.13 20.423 1575.62 22.2599C1574.84 21.466 1573.72 20.6653 1573.1 19.7521C1572.28 18.5357 1572.73 16.1063 1572.67 14.5798C1572.65 14.1301 1572.47 7.90498 1572.15 7.88454C1571.77 7.86069 1570.77 13.9699 1570.42 16.246C1570.4 16.3185 1570.37 16.3862 1570.32 16.442C1570.27 16.4977 1570.2 16.5395 1570.13 16.5629C1570.06 16.5863 1569.98 16.5904 1569.9 16.5748C1569.83 16.5592 1569.76 16.5245 1569.7 16.4743C1568.85 15.6725 1568 14.8774 1567.14 14.0892C1566.55 13.5474 1566.26 13.3362 1566.1 12.6309C1565.95 11.9256 1566.06 10.9647 1566.01 10.2185C1565.99 9.77558 1565.66 4.1672 1565.24 4.13994C1564.81 4.11268 1563.93 8.51148 1563.6 10.1572C1563.59 10.2124 1563.56 10.2629 1563.52 10.3041C1563.47 10.3453 1563.42 10.3757 1563.36 10.3927C1563.31 10.4097 1563.25 10.4126 1563.19 10.4012C1563.13 10.3898 1563.07 10.3645 1563.03 10.3276C1561.29 8.72273 1555.88 3.70721 1555.63 3.93209C1555.38 4.15697 1559.87 9.91528 1561.31 11.7688C1561.34 11.8171 1561.36 11.8724 1561.36 11.9295C1561.37 11.9867 1561.35 12.0439 1561.33 12.0959C1561.3 12.1478 1561.27 12.1929 1561.22 12.2268C1561.17 12.2608 1561.11 12.2826 1561.05 12.2902C1559.3 12.3822 1554.62 12.6718 1554.58 13.0398C1554.54 13.4077 1560.38 14.4981 1560.8 14.5764C1561.51 14.7161 1562.31 14.7638 1563.02 14.941C1563.94 15.1693 1564.1 15.384 1564.67 16.1472C1565.39 17.0558 1566.1 17.9644 1566.81 18.873C1566.86 18.9336 1566.89 19.0057 1566.9 19.0814C1566.91 19.157 1566.89 19.2332 1566.86 19.3016C1566.82 19.37 1566.77 19.4279 1566.7 19.4689C1566.64 19.5099 1566.56 19.5325 1566.48 19.534C1564.06 19.5715 1557.59 19.7112 1557.55 20.0792C1557.53 20.3859 1563.98 21.3672 1564.44 21.4421C1565.92 21.684 1568.41 21.5886 1569.59 22.3314C1570.5 22.9038 1571.34 24.4371 1572.04 25.248C1570 26.395 1567.68 27 1565.31 27C1562.94 27 1560.62 26.395 1558.58 25.248C1555.15 23.2957 1553.58 20.3279 1552.75 16.7298C1551.99 13.2416 1551.66 9.68328 1551.75 6.12298C1551.75 4.82821 1551.8 3.53004 1551.93 2.24208C1551.99 1.80936 1551.94 0.657697 1552.32 0.337413Z" fill="black"/>
<path opacity="0.2" d="M39.1376 102.476C38.2223 102.618 36.9141 105.121 36.4698 105.774C34.9762 107.92 33.7214 110.212 32.7275 112.612C31.7321 115.116 31.3509 117.514 32.4798 120.016C33.1972 121.564 34.3429 122.879 35.7904 123.816C37.2378 124.753 38.9305 125.275 40.6813 125.324C40.5965 124.53 40.667 123.55 40.4374 122.788C40.1324 121.773 38.5394 120.876 37.6995 120.128C37.452 119.907 33.993 116.893 34.1304 116.712C34.2978 116.493 38.2404 118.82 39.7026 119.695C39.7501 119.722 39.8044 119.735 39.8597 119.734C39.9151 119.733 39.9694 119.718 40.017 119.689C40.0646 119.661 40.1037 119.62 40.1302 119.572C40.1567 119.524 40.1696 119.471 40.1675 119.417C40.1101 118.582 40.0582 117.749 40.0118 116.917C39.9784 116.347 39.9956 116.09 39.6681 115.674C39.3406 115.259 38.7387 114.872 38.3377 114.495C38.0991 114.272 35.0629 111.464 35.2451 111.224C35.4272 110.984 38.3432 112.571 39.4335 113.165C39.4723 113.183 39.5152 113.19 39.5582 113.187C39.6012 113.184 39.6428 113.17 39.6794 113.147C39.7159 113.124 39.7461 113.093 39.7672 113.056C39.7883 113.019 39.7996 112.977 39.8001 112.935C39.7013 111.246 39.3844 105.977 39.6313 105.946C39.8781 105.914 41.0481 111.037 41.4274 112.682C41.4397 112.722 41.4622 112.759 41.4928 112.788C41.5234 112.816 41.5612 112.837 41.6026 112.848C41.644 112.859 41.6877 112.859 41.7297 112.849C41.7717 112.839 41.8106 112.818 41.8429 112.79C42.7177 111.887 45.0752 109.501 45.3029 109.652C45.5307 109.803 43.4154 113.461 43.2624 113.725C43.0068 114.176 42.6604 114.628 42.4261 115.097C42.1272 115.697 42.1756 115.882 42.34 116.55C42.5219 117.362 42.7037 118.173 42.8855 118.985C42.8975 119.039 42.9246 119.089 42.964 119.128C43.0033 119.168 43.0533 119.196 43.1085 119.21C43.1637 119.223 43.222 119.221 43.2767 119.204C43.3315 119.187 43.3808 119.156 43.419 119.114C44.5727 117.829 47.6892 114.401 47.917 114.552C48.0998 114.686 45.6344 118.624 45.4592 118.91C44.905 119.819 43.6815 121.119 43.5496 122.105C43.448 122.865 43.9266 124.037 44.0629 124.791C45.6709 124.23 47.1043 123.261 48.2138 121.984C49.3233 120.708 50.0684 119.172 50.3715 117.535C50.869 114.77 49.9178 112.53 48.2631 110.392C46.6316 108.35 44.7648 106.501 42.6984 104.879C41.9619 104.271 41.2 103.69 40.4037 103.159C40.1324 102.985 39.499 102.42 39.1376 102.476Z" fill="black"/>
<path opacity="0.2" d="M1559.84 119.475C1560.75 119.617 1562.06 122.121 1562.5 122.773C1564 124.919 1565.25 127.212 1566.25 129.611C1567.24 132.115 1567.62 134.513 1566.49 137.015C1565.78 138.563 1564.63 139.878 1563.18 140.815C1561.74 141.752 1560.04 142.274 1558.29 142.324C1558.38 141.529 1558.31 140.549 1558.54 139.787C1558.84 138.772 1560.43 137.875 1561.27 137.127C1561.52 136.906 1564.98 133.893 1564.84 133.712C1564.68 133.492 1560.73 135.82 1559.27 136.694C1559.22 136.721 1559.17 136.735 1559.11 136.734C1559.06 136.733 1559 136.717 1558.96 136.689C1558.91 136.66 1558.87 136.62 1558.84 136.572C1558.82 136.524 1558.8 136.47 1558.81 136.416C1558.86 135.581 1558.91 134.748 1558.96 133.916C1558.99 133.346 1558.98 133.089 1559.3 132.673C1559.63 132.258 1560.23 131.871 1560.64 131.494C1560.87 131.271 1563.91 128.464 1563.73 128.224C1563.55 127.983 1560.63 129.57 1559.54 130.165C1559.5 130.182 1559.46 130.189 1559.41 130.186C1559.37 130.183 1559.33 130.169 1559.29 130.146C1559.26 130.123 1559.23 130.092 1559.21 130.055C1559.18 130.018 1559.17 129.976 1559.17 129.934C1559.27 128.245 1559.59 122.976 1559.34 122.945C1559.09 122.914 1557.92 128.036 1557.55 129.681C1557.53 129.722 1557.51 129.758 1557.48 129.787C1557.45 129.816 1557.41 129.837 1557.37 129.847C1557.33 129.858 1557.29 129.858 1557.24 129.848C1557.2 129.838 1557.16 129.818 1557.13 129.789C1556.26 128.886 1553.9 126.5 1553.67 126.651C1553.44 126.803 1555.56 130.46 1555.71 130.724C1555.97 131.175 1556.31 131.627 1556.55 132.096C1556.85 132.696 1556.8 132.882 1556.63 133.55C1556.45 134.361 1556.27 135.173 1556.09 135.984C1556.08 136.038 1556.05 136.088 1556.01 136.128C1555.97 136.167 1555.92 136.196 1555.86 136.209C1555.81 136.222 1555.75 136.22 1555.7 136.203C1555.64 136.186 1555.59 136.155 1555.55 136.113C1554.4 134.828 1551.28 131.4 1551.06 131.551C1550.87 131.686 1553.34 135.624 1553.51 135.909C1554.07 136.818 1555.29 138.119 1555.42 139.105C1555.52 139.864 1555.05 141.036 1554.91 141.79C1553.3 141.229 1551.87 140.26 1550.76 138.984C1549.65 137.708 1548.9 136.171 1548.6 134.534C1548.1 131.769 1549.06 129.529 1550.71 127.391C1552.34 125.35 1554.21 123.5 1556.27 121.878C1557.01 121.271 1557.77 120.689 1558.57 120.158C1558.84 119.984 1559.47 119.419 1559.84 119.475Z" fill="black"/>
<path opacity="0.2" d="M83.5247 105.762C84.1768 105.12 83.712 102.348 83.6741 101.566C83.5762 98.9753 83.1964 96.4038 82.5412 93.8963C81.8242 91.3039 80.6759 89.1503 78.2465 87.7824C76.7281 86.9467 75.0055 86.5454 73.2692 86.6229C71.533 86.7004 69.8507 87.2537 68.4086 88.2215C68.9592 88.8134 69.4975 89.6448 70.1451 90.1268C71.0076 90.7703 72.8366 90.5763 73.9685 90.6966C74.302 90.7321 78.9214 91.1715 78.9204 91.3967C78.9186 91.6699 74.3258 92.0623 72.6154 92.1986C72.5609 92.2043 72.5088 92.2246 72.4648 92.2573C72.4208 92.2899 72.3864 92.3337 72.3653 92.3841C72.3442 92.4345 72.3372 92.4896 72.345 92.5436C72.3527 92.5975 72.375 92.6483 72.4094 92.6907C72.9624 93.3307 73.5102 93.973 74.0527 94.6174C74.4257 95.0579 74.5679 95.2751 75.0843 95.4218C75.6007 95.5684 76.3211 95.5341 76.8734 95.6072C77.2012 95.6498 81.3543 96.1663 81.3532 96.4648C81.3521 96.7634 78.0368 97.1621 76.7965 97.3102C76.7547 97.3185 76.7156 97.3372 76.6829 97.3645C76.6502 97.3919 76.6249 97.4269 76.6093 97.4664C76.5938 97.506 76.5885 97.5488 76.594 97.5908C76.5995 97.6328 76.6155 97.6728 76.6407 97.707C77.7457 99.0124 81.2001 103.08 81.02 103.247C80.84 103.415 76.7867 99.9566 75.4817 98.8476C75.4474 98.8224 75.4073 98.8061 75.365 98.8004C75.3227 98.7946 75.2796 98.7996 75.2397 98.8148C75.1998 98.8299 75.1644 98.8549 75.1366 98.8872C75.1089 98.9196 75.0899 98.9584 75.0812 99C74.9238 100.232 74.471 103.514 74.1954 103.523C73.9198 103.532 73.4054 99.3638 73.3685 99.0627C73.3009 98.5519 73.3059 97.9879 73.2104 97.4753C73.0871 96.819 72.9355 96.6973 72.3973 96.2531C71.758 95.7033 71.1187 95.1535 70.4795 94.6037C70.4368 94.5667 70.3847 94.5422 70.3289 94.5328C70.2731 94.5235 70.2157 94.5297 70.1631 94.5507C70.1104 94.5717 70.0646 94.6067 70.0307 94.652C69.9968 94.6972 69.9762 94.7508 69.9709 94.8069C69.8205 96.5073 69.3878 101.066 69.1122 101.075C68.8833 101.072 68.4811 96.4766 68.4489 96.1454C68.344 95.0931 68.5415 93.3401 68.0493 92.4688C67.6699 91.7976 66.5726 91.1279 66.0048 90.5982C65.0486 91.9765 64.4809 93.5833 64.3608 95.2513C64.2406 96.9193 64.5725 98.5875 65.3218 100.082C66.5993 102.599 68.726 103.858 71.3587 104.63C73.9139 105.337 76.5425 105.754 79.194 105.873C80.1566 105.939 81.1244 105.97 82.0888 105.939C82.4133 105.924 83.2672 106.015 83.5247 105.762Z" fill="black"/>
<path opacity="0.2" d="M1522.64 105.762C1521.98 105.12 1522.45 102.348 1522.49 101.566C1522.59 98.9753 1522.97 96.4038 1523.62 93.8963C1524.34 91.3039 1525.49 89.1503 1527.92 87.7824C1529.43 86.9467 1531.16 86.5454 1532.89 86.6229C1534.63 86.7004 1536.31 87.2537 1537.75 88.2215C1537.2 88.8134 1536.66 89.6448 1536.02 90.1268C1535.15 90.7703 1533.33 90.5763 1532.19 90.6966C1531.86 90.7321 1527.24 91.1715 1527.24 91.3967C1527.24 91.6699 1531.84 92.0623 1533.55 92.1986C1533.6 92.2043 1533.65 92.2246 1533.7 92.2573C1533.74 92.2899 1533.78 92.3337 1533.8 92.3841C1533.82 92.4345 1533.82 92.4896 1533.82 92.5436C1533.81 92.5975 1533.79 92.6483 1533.75 92.6907C1533.2 93.3307 1532.65 93.973 1532.11 94.6174C1531.74 95.0579 1531.59 95.2751 1531.08 95.4218C1530.56 95.5684 1529.84 95.5341 1529.29 95.6072C1528.96 95.6498 1524.81 96.1663 1524.81 96.4648C1524.81 96.7634 1528.12 97.1621 1529.37 97.3102C1529.41 97.3185 1529.45 97.3372 1529.48 97.3645C1529.51 97.3919 1529.54 97.4269 1529.55 97.4664C1529.57 97.506 1529.57 97.5488 1529.57 97.5908C1529.56 97.6328 1529.55 97.6728 1529.52 97.707C1528.42 99.0124 1524.96 103.08 1525.14 103.247C1525.32 103.415 1529.38 99.9566 1530.68 98.8476C1530.71 98.8224 1530.75 98.8061 1530.8 98.8004C1530.84 98.7946 1530.88 98.7996 1530.92 98.8148C1530.96 98.8299 1531 98.8549 1531.03 98.8872C1531.05 98.9196 1531.07 98.9584 1531.08 99C1531.24 100.232 1531.69 103.514 1531.97 103.523C1532.24 103.532 1532.76 99.3638 1532.79 99.0627C1532.86 98.5519 1532.86 97.9879 1532.95 97.4753C1533.07 96.819 1533.23 96.6973 1533.76 96.2531C1534.4 95.7033 1535.04 95.1535 1535.68 94.6037C1535.72 94.5667 1535.78 94.5422 1535.83 94.5328C1535.89 94.5235 1535.95 94.5297 1536 94.5507C1536.05 94.5717 1536.1 94.6067 1536.13 94.652C1536.16 94.6972 1536.19 94.7508 1536.19 94.8069C1536.34 96.5073 1536.77 101.066 1537.05 101.075C1537.28 101.072 1537.68 96.4766 1537.71 96.1454C1537.82 95.0931 1537.62 93.3401 1538.11 92.4688C1538.49 91.7976 1539.59 91.1279 1540.16 90.5982C1541.11 91.9765 1541.68 93.5833 1541.8 95.2513C1541.92 96.9193 1541.59 98.5875 1540.84 100.082C1539.56 102.599 1537.44 103.858 1534.8 104.63C1532.25 105.337 1529.62 105.754 1526.97 105.873C1526.01 105.939 1525.04 105.97 1524.07 105.939C1523.75 105.924 1522.89 106.015 1522.64 105.762Z" fill="black"/>
<path opacity="0.2" d="M39.834 69.9128C40.2264 69.5269 39.9467 67.8586 39.9239 67.388C39.865 65.8293 39.6364 64.2819 39.2422 62.773C38.8107 61.2131 38.1198 59.9172 36.6579 59.094C35.7442 58.5912 34.7077 58.3497 33.6629 58.3963C32.6181 58.443 31.6059 58.7759 30.7381 59.3583C31.0694 59.7144 31.3934 60.2147 31.783 60.5048C32.302 60.892 33.4026 60.7753 34.0837 60.8477C34.2843 60.869 37.064 61.1334 37.0635 61.2689C37.0623 61.4333 34.2987 61.6694 33.2695 61.7514C33.2367 61.7549 33.2054 61.7671 33.1789 61.7867C33.1524 61.8064 33.1317 61.8328 33.119 61.8631C33.1063 61.8934 33.1021 61.9265 33.1067 61.959C33.1114 61.9915 33.1248 62.0221 33.1455 62.0475C33.4783 62.4327 33.8079 62.8192 34.1344 63.2069C34.3588 63.472 34.4444 63.6027 34.7551 63.6909C35.0659 63.7792 35.4994 63.7585 35.8317 63.8025C36.029 63.8282 38.528 64.1389 38.5273 64.3186C38.5267 64.4982 36.5317 64.7381 35.7854 64.8273C35.7602 64.8323 35.7367 64.8435 35.717 64.86C35.6973 64.8764 35.6821 64.8975 35.6728 64.9213C35.6634 64.9451 35.6603 64.9708 35.6636 64.9961C35.6669 65.0214 35.6765 65.0455 35.6916 65.066C36.3566 65.8515 38.4352 68.299 38.3269 68.3998C38.2185 68.5005 35.7795 66.4197 34.9942 65.7524C34.9736 65.7372 34.9495 65.7274 34.924 65.724C34.8986 65.7205 34.8727 65.7235 34.8486 65.7326C34.8246 65.7418 34.8033 65.7568 34.7866 65.7762C34.7699 65.7957 34.7585 65.8191 34.7533 65.8441C34.6585 66.5853 34.3861 68.5601 34.2202 68.5655C34.0544 68.5709 33.7448 66.063 33.7227 65.8818C33.682 65.5745 33.685 65.2351 33.6275 64.9266C33.5533 64.5317 33.4621 64.4585 33.1382 64.1912C32.7536 63.8603 32.3689 63.5295 31.9842 63.1987C31.9586 63.1764 31.9272 63.1617 31.8936 63.156C31.86 63.1504 31.8255 63.1541 31.7938 63.1668C31.7622 63.1794 31.7346 63.2005 31.7142 63.2277C31.6938 63.2549 31.6814 63.2872 31.6782 63.3209C31.5877 64.3442 31.3273 67.0873 31.1615 67.0927C31.0237 67.0909 30.7817 64.3257 30.7624 64.1264C30.6992 63.4932 30.8181 62.4383 30.5219 61.9141C30.2936 61.5101 29.6333 61.1072 29.2917 60.7884C28.7163 61.6178 28.3747 62.5847 28.3024 63.5884C28.2301 64.5921 28.4298 65.5959 28.8807 66.4953C29.6494 68.0097 30.9291 68.7672 32.5133 69.2317C34.0509 69.6574 35.6326 69.9085 37.2281 69.98C37.8073 70.0196 38.3896 70.038 38.97 70.0198C39.1652 70.0103 39.679 70.0652 39.834 69.9128Z" fill="black"/>
<path opacity="0.2" d="M1566.33 69.9128C1565.94 69.5269 1566.22 67.8586 1566.24 67.388C1566.3 65.8293 1566.53 64.2819 1566.92 62.773C1567.35 61.2131 1568.04 59.9172 1569.5 59.094C1570.42 58.5912 1571.45 58.3497 1572.5 58.3963C1573.54 58.443 1574.56 58.7759 1575.42 59.3583C1575.09 59.7144 1574.77 60.2147 1574.38 60.5048C1573.86 60.892 1572.76 60.7753 1572.08 60.8477C1571.88 60.869 1569.1 61.1334 1569.1 61.2689C1569.1 61.4333 1571.86 61.6694 1572.89 61.7514C1572.93 61.7549 1572.96 61.7671 1572.98 61.7867C1573.01 61.8064 1573.03 61.8328 1573.04 61.8631C1573.06 61.8934 1573.06 61.9265 1573.05 61.959C1573.05 61.9915 1573.04 62.0221 1573.02 62.0475C1572.68 62.4327 1572.35 62.8192 1572.03 63.2069C1571.8 63.472 1571.72 63.6027 1571.41 63.6909C1571.1 63.7792 1570.66 63.7585 1570.33 63.8025C1570.13 63.8282 1567.63 64.1389 1567.63 64.3186C1567.64 64.4982 1569.63 64.7381 1570.38 64.8273C1570.4 64.8323 1570.43 64.8435 1570.44 64.86C1570.46 64.8764 1570.48 64.8975 1570.49 64.9213C1570.5 64.9451 1570.5 64.9708 1570.5 64.9961C1570.49 65.0214 1570.49 65.0455 1570.47 65.066C1569.81 65.8515 1567.73 68.299 1567.83 68.3998C1567.94 68.5005 1570.38 66.4197 1571.17 65.7524C1571.19 65.7372 1571.21 65.7274 1571.24 65.724C1571.26 65.7205 1571.29 65.7235 1571.31 65.7326C1571.34 65.7418 1571.36 65.7568 1571.38 65.7762C1571.39 65.7957 1571.4 65.8191 1571.41 65.8441C1571.5 66.5853 1571.78 68.5601 1571.94 68.5655C1572.11 68.5709 1572.42 66.063 1572.44 65.8818C1572.48 65.5745 1572.48 65.2351 1572.53 64.9266C1572.61 64.5317 1572.7 64.4585 1573.02 64.1912C1573.41 63.8603 1573.79 63.5295 1574.18 63.1987C1574.2 63.1764 1574.23 63.1617 1574.27 63.156C1574.3 63.1504 1574.34 63.1541 1574.37 63.1668C1574.4 63.1794 1574.43 63.2005 1574.45 63.2277C1574.47 63.2549 1574.48 63.2872 1574.48 63.3209C1574.57 64.3442 1574.83 67.0873 1575 67.0927C1575.14 67.0909 1575.38 64.3257 1575.4 64.1264C1575.46 63.4932 1575.34 62.4383 1575.64 61.9141C1575.87 61.5101 1576.53 61.1072 1576.87 60.7884C1577.45 61.6178 1577.79 62.5847 1577.86 63.5884C1577.93 64.5921 1577.73 65.5959 1577.28 66.4953C1576.51 68.0097 1575.23 68.7672 1573.65 69.2317C1572.11 69.6574 1570.53 69.9085 1568.93 69.98C1568.35 70.0196 1567.77 70.038 1567.19 70.0198C1567 70.0103 1566.48 70.0652 1566.33 69.9128Z" fill="black"/>
<path opacity="0.2" d="M1466.42 232.892C1466.02 232.506 1466.3 230.837 1466.33 230.367C1466.39 228.808 1466.61 227.261 1467.01 225.752C1467.44 224.192 1468.13 222.896 1469.59 222.073C1470.51 221.57 1471.54 221.328 1472.59 221.375C1473.63 221.422 1474.65 221.755 1475.51 222.337C1475.18 222.693 1474.86 223.193 1474.47 223.484C1473.95 223.871 1472.85 223.754 1472.17 223.826C1471.97 223.848 1469.19 224.112 1469.19 224.248C1469.19 224.412 1471.95 224.648 1472.98 224.73C1473.01 224.734 1473.05 224.746 1473.07 224.765C1473.1 224.785 1473.12 224.812 1473.13 224.842C1473.14 224.872 1473.15 224.905 1473.14 224.938C1473.14 224.97 1473.13 225.001 1473.11 225.026C1472.77 225.411 1472.44 225.798 1472.12 226.186C1471.89 226.451 1471.81 226.581 1471.5 226.67C1471.19 226.758 1470.75 226.737 1470.42 226.781C1470.22 226.807 1467.72 227.118 1467.72 227.297C1467.72 227.477 1469.72 227.717 1470.47 227.806C1470.49 227.811 1470.51 227.822 1470.53 227.839C1470.55 227.855 1470.57 227.876 1470.58 227.9C1470.59 227.924 1470.59 227.95 1470.59 227.975C1470.58 228 1470.57 228.024 1470.56 228.045C1469.89 228.83 1467.82 231.278 1467.92 231.379C1468.03 231.479 1470.47 229.398 1471.26 228.731C1471.28 228.716 1471.3 228.706 1471.33 228.703C1471.35 228.699 1471.38 228.702 1471.4 228.711C1471.43 228.721 1471.45 228.736 1471.46 228.755C1471.48 228.774 1471.49 228.798 1471.5 228.823C1471.59 229.564 1471.87 231.539 1472.03 231.544C1472.2 231.55 1472.51 229.042 1472.53 228.861C1472.57 228.553 1472.57 228.214 1472.62 227.905C1472.7 227.51 1472.79 227.437 1473.11 227.17C1473.5 226.839 1473.88 226.508 1474.27 226.177C1474.29 226.155 1474.32 226.14 1474.36 226.135C1474.39 226.129 1474.43 226.133 1474.46 226.146C1474.49 226.158 1474.52 226.179 1474.54 226.206C1474.56 226.234 1474.57 226.266 1474.57 226.3C1474.66 227.323 1474.92 230.066 1475.09 230.071C1475.23 230.07 1475.47 227.304 1475.49 227.105C1475.55 226.472 1475.43 225.417 1475.73 224.893C1475.96 224.489 1476.62 224.086 1476.96 223.767C1477.53 224.597 1477.88 225.563 1477.95 226.567C1478.02 227.571 1477.82 228.575 1477.37 229.474C1476.6 230.988 1475.32 231.746 1473.74 232.21C1472.2 232.636 1470.62 232.887 1469.02 232.959C1468.44 232.998 1467.86 233.017 1467.28 232.999C1467.09 232.989 1466.57 233.044 1466.42 232.892Z" fill="black"/>
<path opacity="0.2" d="M12.0684 140.035C10.3535 141.134 10.0565 147.35 9.7707 149.062C8.76433 154.72 8.37789 160.462 8.61814 166.189C8.95265 172.127 10.4282 177.306 15.0497 181.355C17.9473 183.843 21.4918 185.481 25.291 186.087C29.0903 186.694 32.9964 186.245 36.577 184.791C35.6623 183.263 34.8866 181.221 33.71 179.887C32.1435 178.108 28.0883 177.712 25.692 176.947C24.9859 176.721 15.1813 173.708 15.2893 173.221C15.4218 172.63 25.56 173.828 29.3308 174.295C29.4518 174.307 29.5741 174.286 29.6849 174.235C29.7956 174.184 29.8907 174.105 29.9602 174.005C30.0296 173.905 30.0707 173.789 30.0793 173.668C30.0879 173.548 30.0635 173.428 30.0088 173.321C29.1114 171.687 28.2264 170.051 27.3538 168.412C26.7526 167.291 26.5466 166.757 25.4964 166.209C24.4462 165.661 22.8689 165.414 21.7064 165.009C21.0159 164.77 12.2582 161.799 12.4011 161.152C12.544 160.506 19.9164 161.12 22.674 161.352C22.7687 161.353 22.8622 161.33 22.946 161.285C23.0297 161.241 23.101 161.176 23.1533 161.097C23.2055 161.018 23.2371 160.928 23.245 160.835C23.2529 160.741 23.2369 160.647 23.1985 160.562C21.4177 157.24 15.8447 146.884 16.3137 146.602C16.7827 146.319 23.9403 155.621 26.2469 158.607C26.3092 158.677 26.3885 158.73 26.4774 158.761C26.5664 158.793 26.6621 158.801 26.7558 158.786C26.8494 158.771 26.938 158.733 27.0133 158.675C27.0885 158.617 27.1481 158.542 27.1864 158.455C28.1071 155.856 30.6321 148.946 31.2336 149.049C31.8351 149.152 30.9895 158.414 30.9278 159.083C30.834 160.22 30.5579 161.441 30.5236 162.594C30.4821 164.071 30.7534 164.403 31.711 165.606C32.8378 167.082 33.9646 168.559 35.0914 170.036C35.1663 170.135 35.2677 170.211 35.3843 170.256C35.5009 170.302 35.6282 170.314 35.7521 170.292C35.8761 170.27 35.9918 170.214 36.0865 170.131C36.1812 170.048 36.2513 169.941 36.289 169.822C37.415 166.204 40.4972 156.517 41.0987 156.621C41.5934 156.729 40.3033 166.868 40.2172 167.6C39.9496 169.928 38.6969 173.638 39.3538 175.746C39.8602 177.37 41.9234 179.311 42.9046 180.712C45.6253 178.152 47.6115 174.923 48.6565 171.361C49.7015 167.8 49.7671 164.037 48.8463 160.463C47.2617 154.439 43.2448 150.762 37.9023 147.915C32.6973 145.242 27.1969 143.165 21.5065 141.725C19.4512 141.153 17.3683 140.655 15.2638 140.29C14.5533 140.18 12.7456 139.601 12.0684 140.035Z" fill="black"/>
<path opacity="0.2" d="M1587.93 153.034C1589.65 154.133 1589.94 160.349 1590.23 162.061C1591.24 167.719 1591.62 173.461 1591.38 179.188C1591.05 185.126 1589.57 190.305 1584.95 194.353C1582.05 196.842 1578.51 198.48 1574.71 199.086C1570.91 199.693 1567 199.244 1563.42 197.79C1564.34 196.262 1565.11 194.22 1566.29 192.886C1567.86 191.107 1571.91 190.711 1574.31 189.946C1575.01 189.72 1584.82 186.707 1584.71 186.22C1584.58 185.629 1574.44 186.827 1570.67 187.294C1570.55 187.306 1570.43 187.285 1570.32 187.234C1570.2 187.183 1570.11 187.103 1570.04 187.004C1569.97 186.904 1569.93 186.788 1569.92 186.667C1569.91 186.547 1569.94 186.427 1569.99 186.32C1570.89 184.686 1571.77 183.05 1572.65 181.411C1573.25 180.29 1573.45 179.756 1574.5 179.208C1575.55 178.66 1577.13 178.413 1578.29 178.008C1578.98 177.769 1587.74 174.797 1587.6 174.151C1587.46 173.504 1580.08 174.119 1577.33 174.351C1577.23 174.352 1577.14 174.329 1577.05 174.284C1576.97 174.24 1576.9 174.175 1576.85 174.096C1576.79 174.017 1576.76 173.927 1576.76 173.833C1576.75 173.74 1576.76 173.646 1576.8 173.561C1578.58 170.239 1584.16 159.883 1583.69 159.601C1583.22 159.318 1576.06 168.62 1573.75 171.606C1573.69 171.676 1573.61 171.729 1573.52 171.76C1573.43 171.792 1573.34 171.8 1573.24 171.785C1573.15 171.77 1573.06 171.732 1572.99 171.674C1572.91 171.616 1572.85 171.541 1572.81 171.454C1571.89 168.855 1569.37 161.944 1568.77 162.048C1568.16 162.151 1569.01 171.413 1569.07 172.082C1569.17 173.219 1569.44 174.439 1569.48 175.593C1569.52 177.07 1569.25 177.402 1568.29 178.605C1567.16 180.081 1566.04 181.558 1564.91 183.035C1564.83 183.134 1564.73 183.21 1564.62 183.255C1564.5 183.3 1564.37 183.313 1564.25 183.291C1564.12 183.268 1564.01 183.213 1563.91 183.13C1563.82 183.047 1563.75 182.94 1563.71 182.821C1562.58 179.203 1559.5 169.516 1558.9 169.62C1558.41 169.728 1559.7 179.867 1559.78 180.599C1560.05 182.926 1561.3 186.637 1560.65 188.745C1560.14 190.369 1558.08 192.31 1557.1 193.711C1554.37 191.151 1552.39 187.922 1551.34 184.36C1550.3 180.799 1550.23 177.036 1551.15 173.462C1552.74 167.438 1556.76 163.761 1562.1 160.914C1567.3 158.241 1572.8 156.164 1578.49 154.724C1580.55 154.152 1582.63 153.654 1584.74 153.289C1585.45 153.179 1587.25 152.6 1587.93 153.034Z" fill="black"/>
</svg>
