<svg width="1552" height="284" viewBox="0 0 1552 284" fill="none" xmlns="http://www.w3.org/2000/svg">
<path opacity="0.1" d="M0 203.999L0 283.978H1552V229.809C1349.42 260.877 1107.86 278.918 848.5 278.918C523.967 278.918 227.305 250.672 0 203.999Z" fill="black"/>
<path d="M0 223.225V283.999H1552V242.837C1349.42 266.445 1107.86 280.154 848.5 280.154C523.967 280.154 227.305 258.69 0 223.225Z" fill="black"/>
<path opacity="0.2" d="M0 212.458L0 283.999H1552V235.545C1349.42 263.336 1107.86 279.473 848.5 279.473C523.967 279.473 227.305 254.207 0 212.458Z" fill="black"/>
<path opacity="0.2" d="M101.427 133.336C100.484 132.525 96.7168 133.415 95.6455 133.541C92.0941 133.922 88.5952 134.678 85.21 135.796C81.7142 137.006 78.8618 138.75 77.2095 142.134C76.2034 144.247 75.8135 146.591 76.083 148.907C76.3525 151.224 77.2709 153.422 78.7366 155.259C79.4984 154.465 80.5906 153.664 81.1924 152.751C81.9959 151.535 81.5576 149.105 81.6168 147.579C81.6341 147.129 81.8046 140.904 82.1142 140.883C82.4899 140.86 83.4603 146.969 83.8082 149.245C83.8212 149.317 83.854 149.385 83.903 149.441C83.952 149.497 84.0155 149.538 84.0867 149.562C84.1579 149.585 84.2343 149.589 84.3077 149.574C84.3812 149.558 84.4489 149.523 84.5039 149.473C85.3318 148.671 86.1631 147.876 86.998 147.088C87.5684 146.546 87.8537 146.335 88.0067 145.63C88.1598 144.924 88.045 143.964 88.0937 143.217C88.1215 142.774 88.4415 137.166 88.852 137.139C89.2625 137.112 90.1216 141.51 90.4417 143.156C90.4571 143.211 90.4864 143.262 90.5271 143.303C90.5677 143.344 90.6182 143.375 90.674 143.392C90.7298 143.409 90.7891 143.412 90.8464 143.4C90.9036 143.389 90.9571 143.363 91.0017 143.326C92.6922 141.722 97.9586 136.706 98.2056 136.931C98.4526 137.156 94.0801 142.914 92.6783 144.768C92.6468 144.816 92.6282 144.871 92.6243 144.928C92.6204 144.986 92.6312 145.043 92.6558 145.095C92.6804 145.147 92.718 145.192 92.7651 145.226C92.8122 145.26 92.8673 145.281 92.9253 145.289C94.6332 145.381 99.1865 145.671 99.2248 146.039C99.2631 146.407 93.5827 147.497 93.1723 147.575C92.4766 147.715 91.7009 147.763 91.0052 147.94C90.1147 148.168 89.9616 148.383 89.4016 149.146C88.7059 150.055 88.0102 150.963 87.3145 151.872C87.2677 151.933 87.2389 152.005 87.2312 152.08C87.2236 152.156 87.2375 152.232 87.2713 152.301C87.3052 152.369 87.3576 152.427 87.423 152.468C87.4883 152.509 87.5639 152.531 87.6415 152.533C89.9929 152.57 96.2994 152.71 96.3377 153.078C96.3551 153.385 90.0764 154.366 89.6242 154.441C88.1876 154.683 85.7596 154.588 84.6082 155.33C83.7212 155.903 82.9038 157.436 82.229 158.247C84.2132 159.394 86.475 159.999 88.7789 159.999C91.0829 159.999 93.3447 159.394 95.3289 158.247C98.6683 156.295 100.199 153.327 101.013 149.729C101.745 146.241 102.072 142.682 101.987 139.122C101.987 137.827 101.938 136.529 101.806 135.241C101.754 134.808 101.799 133.657 101.427 133.336Z" fill="black"/>
<path opacity="0.2" d="M1450.57 133.336C1451.52 132.525 1455.28 133.415 1456.35 133.541C1459.91 133.922 1463.4 134.678 1466.79 135.796C1470.29 137.006 1473.14 138.75 1474.79 142.134C1475.8 144.247 1476.19 146.591 1475.92 148.907C1475.65 151.224 1474.73 153.422 1473.26 155.259C1472.5 154.465 1471.41 153.664 1470.81 152.751C1470 151.535 1470.44 149.105 1470.38 147.579C1470.37 147.129 1470.2 140.904 1469.89 140.883C1469.51 140.86 1468.54 146.969 1468.19 149.245C1468.18 149.317 1468.15 149.385 1468.1 149.441C1468.05 149.497 1467.98 149.538 1467.91 149.562C1467.84 149.585 1467.77 149.589 1467.69 149.574C1467.62 149.558 1467.55 149.523 1467.5 149.473C1466.67 148.671 1465.84 147.876 1465 147.088C1464.43 146.546 1464.15 146.335 1463.99 145.63C1463.84 144.924 1463.96 143.964 1463.91 143.217C1463.88 142.774 1463.56 137.166 1463.15 137.139C1462.74 137.112 1461.88 141.51 1461.56 143.156C1461.54 143.211 1461.51 143.262 1461.47 143.303C1461.43 143.344 1461.38 143.375 1461.33 143.392C1461.27 143.409 1461.21 143.412 1461.15 143.4C1461.1 143.389 1461.04 143.363 1461 143.326C1459.31 141.722 1454.04 136.706 1453.79 136.931C1453.55 137.156 1457.92 142.914 1459.32 144.768C1459.35 144.816 1459.37 144.871 1459.38 144.928C1459.38 144.986 1459.37 145.043 1459.34 145.095C1459.32 145.147 1459.28 145.192 1459.23 145.226C1459.19 145.26 1459.13 145.281 1459.07 145.289C1457.37 145.381 1452.81 145.671 1452.78 146.039C1452.74 146.407 1458.42 147.497 1458.83 147.575C1459.52 147.715 1460.3 147.763 1460.99 147.94C1461.89 148.168 1462.04 148.383 1462.6 149.146C1463.29 150.055 1463.99 150.963 1464.69 151.872C1464.73 151.933 1464.76 152.005 1464.77 152.08C1464.78 152.156 1464.76 152.232 1464.73 152.301C1464.69 152.369 1464.64 152.427 1464.58 152.468C1464.51 152.509 1464.44 152.531 1464.36 152.533C1462.01 152.57 1455.7 152.71 1455.66 153.078C1455.64 153.385 1461.92 154.366 1462.38 154.441C1463.81 154.683 1466.24 154.588 1467.39 155.33C1468.28 155.903 1469.1 157.436 1469.77 158.247C1467.79 159.394 1465.53 159.999 1463.22 159.999C1460.92 159.999 1458.66 159.394 1456.67 158.247C1453.33 156.295 1451.8 153.327 1450.99 149.729C1450.25 146.241 1449.93 142.682 1450.01 139.122C1450.01 137.827 1450.06 136.529 1450.19 135.241C1450.25 134.808 1450.2 133.657 1450.57 133.336Z" fill="black"/>
<path opacity="0.2" d="M46.4267 0.337413C45.484 -0.47352 41.7168 0.41578 40.6455 0.541849C37.0941 0.92261 33.5952 1.67889 30.21 2.79747C26.7142 4.00705 23.8618 5.75158 22.2095 9.13501C21.2034 11.2478 20.8135 13.5921 21.083 15.9084C21.3525 18.2248 22.2709 20.423 23.7366 22.2599C24.4984 21.466 25.5906 20.6653 26.1924 19.7521C26.9959 18.5357 26.5576 16.1063 26.6168 14.5798C26.6341 14.1301 26.8046 7.90498 27.1142 7.88454C27.4899 7.86069 28.4603 13.9699 28.8082 16.246C28.8212 16.3185 28.854 16.3862 28.903 16.442C28.952 16.4977 29.0155 16.5395 29.0867 16.5629C29.1579 16.5863 29.2343 16.5904 29.3077 16.5748C29.3812 16.5592 29.4489 16.5245 29.5039 16.4743C30.3318 15.6725 31.1631 14.8774 31.998 14.0892C32.5684 13.5474 32.8537 13.3362 33.0067 12.6309C33.1598 11.9256 33.045 10.9647 33.0937 10.2185C33.1215 9.77558 33.4415 4.1672 33.852 4.13994C34.2625 4.11268 35.1216 8.51148 35.4417 10.1572C35.4571 10.2124 35.4864 10.2629 35.5271 10.3041C35.5677 10.3453 35.6182 10.3757 35.674 10.3927C35.7298 10.4097 35.7891 10.4126 35.8464 10.4012C35.9036 10.3898 35.9571 10.3645 36.0017 10.3276C37.6922 8.72273 42.9586 3.70721 43.2056 3.93209C43.4526 4.15697 39.0801 9.91528 37.6783 11.7688C37.6468 11.8171 37.6282 11.8724 37.6243 11.9295C37.6204 11.9867 37.6312 12.0439 37.6558 12.0959C37.6804 12.1478 37.718 12.1929 37.7651 12.2268C37.8122 12.2608 37.8673 12.2826 37.9253 12.2902C39.6332 12.3822 44.1865 12.6718 44.2248 13.0398C44.2631 13.4077 38.5827 14.4981 38.1723 14.5764C37.4766 14.7161 36.7009 14.7638 36.0052 14.941C35.1147 15.1693 34.9616 15.384 34.4016 16.1472C33.7059 17.0558 33.0102 17.9644 32.3145 18.873C32.2677 18.9336 32.2389 19.0057 32.2312 19.0814C32.2236 19.157 32.2375 19.2332 32.2713 19.3016C32.3052 19.37 32.3576 19.4279 32.423 19.4689C32.4883 19.5099 32.5639 19.5325 32.6415 19.534C34.9929 19.5715 41.2994 19.7112 41.3377 20.0792C41.3551 20.3859 35.0764 21.3672 34.6242 21.4421C33.1876 21.684 30.7596 21.5886 29.6082 22.3314C28.7212 22.9038 27.9038 24.4371 27.229 25.248C29.2132 26.395 31.475 27 33.7789 27C36.0829 27 38.3447 26.395 40.3289 25.248C43.6683 23.2957 45.1988 20.3279 46.0127 16.7298C46.7454 13.2416 47.0721 9.68328 46.9867 6.12298C46.9867 4.82821 46.938 3.53004 46.8058 2.24208C46.7537 1.80936 46.7989 0.657697 46.4267 0.337413Z" fill="black"/>
<path opacity="0.2" d="M1505.57 0.337413C1506.52 -0.47352 1510.28 0.41578 1511.35 0.541849C1514.91 0.92261 1518.4 1.67889 1521.79 2.79747C1525.29 4.00705 1528.14 5.75158 1529.79 9.13501C1530.8 11.2478 1531.19 13.5921 1530.92 15.9084C1530.65 18.2248 1529.73 20.423 1528.26 22.2599C1527.5 21.466 1526.41 20.6653 1525.81 19.7521C1525 18.5357 1525.44 16.1063 1525.38 14.5798C1525.37 14.1301 1525.2 7.90498 1524.89 7.88454C1524.51 7.86069 1523.54 13.9699 1523.19 16.246C1523.18 16.3185 1523.15 16.3862 1523.1 16.442C1523.05 16.4977 1522.98 16.5395 1522.91 16.5629C1522.84 16.5863 1522.77 16.5904 1522.69 16.5748C1522.62 16.5592 1522.55 16.5245 1522.5 16.4743C1521.67 15.6725 1520.84 14.8774 1520 14.0892C1519.43 13.5474 1519.15 13.3362 1518.99 12.6309C1518.84 11.9256 1518.96 10.9647 1518.91 10.2185C1518.88 9.77558 1518.56 4.1672 1518.15 4.13994C1517.74 4.11268 1516.88 8.51148 1516.56 10.1572C1516.54 10.2124 1516.51 10.2629 1516.47 10.3041C1516.43 10.3453 1516.38 10.3757 1516.33 10.3927C1516.27 10.4097 1516.21 10.4126 1516.15 10.4012C1516.1 10.3898 1516.04 10.3645 1516 10.3276C1514.31 8.72273 1509.04 3.70721 1508.79 3.93209C1508.55 4.15697 1512.92 9.91528 1514.32 11.7688C1514.35 11.8171 1514.37 11.8724 1514.38 11.9295C1514.38 11.9867 1514.37 12.0439 1514.34 12.0959C1514.32 12.1478 1514.28 12.1929 1514.23 12.2268C1514.19 12.2608 1514.13 12.2826 1514.07 12.2902C1512.37 12.3822 1507.81 12.6718 1507.78 13.0398C1507.74 13.4077 1513.42 14.4981 1513.83 14.5764C1514.52 14.7161 1515.3 14.7638 1515.99 14.941C1516.89 15.1693 1517.04 15.384 1517.6 16.1472C1518.29 17.0558 1518.99 17.9644 1519.69 18.873C1519.73 18.9336 1519.76 19.0057 1519.77 19.0814C1519.78 19.157 1519.76 19.2332 1519.73 19.3016C1519.69 19.37 1519.64 19.4279 1519.58 19.4689C1519.51 19.5099 1519.44 19.5325 1519.36 19.534C1517.01 19.5715 1510.7 19.7112 1510.66 20.0792C1510.64 20.3859 1516.92 21.3672 1517.38 21.4421C1518.81 21.684 1521.24 21.5886 1522.39 22.3314C1523.28 22.9038 1524.1 24.4371 1524.77 25.248C1522.79 26.395 1520.53 27 1518.22 27C1515.92 27 1513.66 26.395 1511.67 25.248C1508.33 23.2957 1506.8 20.3279 1505.99 16.7298C1505.25 13.2416 1504.93 9.68328 1505.01 6.12298C1505.01 4.82821 1505.06 3.53004 1505.19 2.24208C1505.25 1.80936 1505.2 0.657697 1505.57 0.337413Z" fill="black"/>
<path opacity="0.2" d="M39.1102 119.475C38.219 119.617 36.945 122.121 36.5125 122.773C35.058 124.919 33.8362 127.212 32.8684 129.611C31.8991 132.115 31.5279 134.513 32.6272 137.015C33.3257 138.563 34.4414 139.878 35.8508 140.815C37.2603 141.752 38.9086 142.274 40.6133 142.324C40.5308 141.529 40.5995 140.549 40.3759 139.787C40.0789 138.772 38.5277 137.875 37.7099 137.127C37.4689 136.906 34.1006 133.893 34.2345 133.712C34.3974 133.492 38.2365 135.82 39.6604 136.694C39.7067 136.721 39.7595 136.735 39.8134 136.734C39.8673 136.733 39.9202 136.717 39.9665 136.689C40.0129 136.66 40.051 136.62 40.0768 136.572C40.1026 136.524 40.1151 136.47 40.1131 136.416C40.0572 135.581 40.0066 134.748 39.9615 133.916C39.9289 133.346 39.9457 133.089 39.6267 132.673C39.3078 132.258 38.7218 131.871 38.3313 131.494C38.099 131.271 35.1425 128.464 35.3198 128.224C35.4972 127.983 38.3367 129.57 39.3983 130.165C39.4362 130.182 39.4779 130.189 39.5198 130.186C39.5616 130.183 39.6022 130.169 39.6378 130.146C39.6733 130.123 39.7027 130.092 39.7233 130.055C39.7438 130.018 39.7549 129.976 39.7553 129.934C39.6591 128.245 39.3505 122.976 39.5909 122.945C39.8313 122.914 40.9705 128.036 41.3399 129.681C41.3518 129.722 41.3737 129.758 41.4036 129.787C41.4334 129.816 41.4702 129.837 41.5105 129.847C41.5508 129.858 41.5934 129.858 41.6343 129.848C41.6752 129.838 41.7131 129.818 41.7445 129.789C42.5963 128.886 44.8919 126.5 45.1137 126.651C45.3355 126.803 43.2758 130.46 43.1267 130.724C42.8778 131.175 42.5405 131.627 42.3124 132.096C42.0213 132.696 42.0684 132.882 42.2286 133.55C42.4056 134.361 42.5827 135.173 42.7598 135.984C42.7714 136.038 42.7978 136.088 42.8361 136.128C42.8744 136.167 42.9232 136.196 42.9769 136.209C43.0307 136.222 43.0874 136.22 43.1407 136.203C43.1941 136.186 43.242 136.155 43.2792 136.113C44.4027 134.828 47.4373 131.4 47.6591 131.551C47.8371 131.686 45.4364 135.624 45.2659 135.909C44.7262 136.818 43.5348 138.119 43.4064 139.105C43.3075 139.864 43.7735 141.036 43.9062 141.79C45.472 141.229 46.8678 140.26 47.9481 138.984C49.0285 137.708 49.7541 136.171 50.0492 134.534C50.5336 131.769 49.6075 129.529 47.9961 127.391C46.4075 125.35 44.5897 123.5 42.5775 121.878C41.8604 121.271 41.1184 120.689 40.343 120.158C40.0789 119.984 39.4622 119.419 39.1102 119.475Z" fill="black"/>
<path opacity="0.2" d="M1512.89 119.475C1513.78 119.617 1515.05 122.121 1515.49 122.773C1516.94 124.919 1518.16 127.212 1519.13 129.611C1520.1 132.115 1520.47 134.513 1519.37 137.015C1518.67 138.563 1517.56 139.878 1516.15 140.815C1514.74 141.752 1513.09 142.274 1511.39 142.324C1511.47 141.529 1511.4 140.549 1511.62 139.787C1511.92 138.772 1513.47 137.875 1514.29 137.127C1514.53 136.906 1517.9 133.893 1517.77 133.712C1517.6 133.492 1513.76 135.82 1512.34 136.694C1512.29 136.721 1512.24 136.735 1512.19 136.734C1512.13 136.733 1512.08 136.717 1512.03 136.689C1511.99 136.66 1511.95 136.62 1511.92 136.572C1511.9 136.524 1511.88 136.47 1511.89 136.416C1511.94 135.581 1511.99 134.748 1512.04 133.916C1512.07 133.346 1512.05 133.089 1512.37 132.673C1512.69 132.258 1513.28 131.871 1513.67 131.494C1513.9 131.271 1516.86 128.464 1516.68 128.224C1516.5 127.983 1513.66 129.57 1512.6 130.165C1512.56 130.182 1512.52 130.189 1512.48 130.186C1512.44 130.183 1512.4 130.169 1512.36 130.146C1512.33 130.123 1512.3 130.092 1512.28 130.055C1512.26 130.018 1512.25 129.976 1512.24 129.934C1512.34 128.245 1512.65 122.976 1512.41 122.945C1512.17 122.914 1511.03 128.036 1510.66 129.681C1510.65 129.722 1510.63 129.758 1510.6 129.787C1510.57 129.816 1510.53 129.837 1510.49 129.847C1510.45 129.858 1510.41 129.858 1510.37 129.848C1510.32 129.838 1510.29 129.818 1510.26 129.789C1509.4 128.886 1507.11 126.5 1506.89 126.651C1506.66 126.803 1508.72 130.46 1508.87 130.724C1509.12 131.175 1509.46 131.627 1509.69 132.096C1509.98 132.696 1509.93 132.882 1509.77 133.55C1509.59 134.361 1509.42 135.173 1509.24 135.984C1509.23 136.038 1509.2 136.088 1509.16 136.128C1509.13 136.167 1509.08 136.196 1509.02 136.209C1508.97 136.222 1508.91 136.22 1508.86 136.203C1508.81 136.186 1508.76 136.155 1508.72 136.113C1507.6 134.828 1504.56 131.4 1504.34 131.551C1504.16 131.686 1506.56 135.624 1506.73 135.909C1507.27 136.818 1508.47 138.119 1508.59 139.105C1508.69 139.864 1508.23 141.036 1508.09 141.79C1506.53 141.229 1505.13 140.26 1504.05 138.984C1502.97 137.708 1502.25 136.171 1501.95 134.534C1501.47 131.769 1502.39 129.529 1504 127.391C1505.59 125.35 1507.41 123.5 1509.42 121.878C1510.14 121.271 1510.88 120.689 1511.66 120.158C1511.92 119.984 1512.54 119.419 1512.89 119.475Z" fill="black"/>
<path opacity="0.2" d="M75.3322 105.762C75.9672 105.12 75.5146 102.348 75.4777 101.566C75.3824 98.9753 75.0125 96.4038 74.3745 93.8963C73.6763 91.3039 72.5581 89.1503 70.1925 87.7824C68.714 86.9467 67.0366 86.5454 65.3459 86.6229C63.6552 86.7004 62.0172 87.2537 60.6129 88.2215C61.149 88.8134 61.6732 89.6448 62.3038 90.1268C63.1436 90.7703 64.9247 90.5763 66.0268 90.6966C66.3516 90.7321 70.8497 91.1715 70.8488 91.3967C70.847 91.6699 66.3748 92.0623 64.7093 92.1986C64.6562 92.2043 64.6055 92.2246 64.5626 92.2573C64.5198 92.2899 64.4863 92.3337 64.4658 92.3841C64.4452 92.4345 64.4384 92.4896 64.4459 92.5436C64.4535 92.5975 64.4752 92.6483 64.5087 92.6907C65.0472 93.3307 65.5806 93.973 66.1088 94.6174C66.4721 95.0579 66.6105 95.2751 67.1134 95.4218C67.6162 95.5684 68.3177 95.5341 68.8555 95.6072C69.1747 95.6498 73.2188 96.1663 73.2177 96.4648C73.2166 96.7634 69.9884 97.162 68.7807 97.3102C68.7399 97.3185 68.7018 97.3372 68.67 97.3645C68.6381 97.3919 68.6135 97.4269 68.5984 97.4664C68.5832 97.506 68.5781 97.5488 68.5834 97.5908C68.5888 97.6328 68.6044 97.6728 68.6289 97.707C69.7049 99.0124 73.0686 103.08 72.8933 103.247C72.7179 103.415 68.7711 99.9566 67.5003 98.8476C67.467 98.8224 67.4279 98.8061 67.3867 98.8004C67.3455 98.7946 67.3036 98.7996 67.2647 98.8148C67.2258 98.8299 67.1913 98.8549 67.1643 98.8872C67.1374 98.9196 67.1188 98.9584 67.1104 99C66.957 100.232 66.5162 103.514 66.2478 103.523C65.9795 103.532 65.4785 99.3638 65.4426 99.0627C65.3768 98.5519 65.3816 97.9879 65.2887 97.4753C65.1686 96.819 65.021 96.6973 64.4969 96.2531C63.8744 95.7033 63.2519 95.1535 62.6294 94.6037C62.5879 94.5667 62.5372 94.5422 62.4828 94.5328C62.4284 94.5235 62.3725 94.5297 62.3213 94.5507C62.2701 94.5717 62.2255 94.6067 62.1925 94.652C62.1594 94.6972 62.1393 94.7508 62.1342 94.8069C61.9877 96.5073 61.5664 101.066 61.298 101.075C61.0751 101.072 60.6835 96.4766 60.6522 96.1454C60.55 95.0931 60.7423 93.3401 60.263 92.4688C59.8936 91.7976 58.8251 91.1279 58.2722 90.5982C57.3411 91.9765 56.7883 93.5833 56.6713 95.2513C56.5543 96.9193 56.8775 98.5875 57.6071 100.082C58.8511 102.599 60.9219 103.858 63.4855 104.63C65.9737 105.337 68.5333 105.754 71.1152 105.873C72.0526 105.939 72.9949 105.97 73.934 105.939C74.25 105.924 75.0814 106.015 75.3322 105.762Z" fill="black"/>
<path opacity="0.2" d="M1476.67 105.762C1476.03 105.12 1476.49 102.348 1476.52 101.566C1476.62 98.9753 1476.99 96.4038 1477.63 93.8963C1478.32 91.3039 1479.44 89.1503 1481.81 87.7824C1483.29 86.9467 1484.96 86.5454 1486.65 86.6229C1488.34 86.7004 1489.98 87.2537 1491.39 88.2215C1490.85 88.8134 1490.33 89.6448 1489.7 90.1268C1488.86 90.7703 1487.08 90.5763 1485.97 90.6966C1485.65 90.7321 1481.15 91.1715 1481.15 91.3967C1481.15 91.6699 1485.63 92.0623 1487.29 92.1986C1487.34 92.2043 1487.39 92.2246 1487.44 92.2573C1487.48 92.2899 1487.51 92.3337 1487.53 92.3841C1487.55 92.4345 1487.56 92.4896 1487.55 92.5436C1487.55 92.5975 1487.52 92.6483 1487.49 92.6907C1486.95 93.3307 1486.42 93.973 1485.89 94.6174C1485.53 95.0579 1485.39 95.2751 1484.89 95.4218C1484.38 95.5684 1483.68 95.5341 1483.14 95.6072C1482.83 95.6498 1478.78 96.1663 1478.78 96.4648C1478.78 96.7634 1482.01 97.162 1483.22 97.3102C1483.26 97.3185 1483.3 97.3372 1483.33 97.3645C1483.36 97.3919 1483.39 97.4269 1483.4 97.4664C1483.42 97.506 1483.42 97.5488 1483.42 97.5908C1483.41 97.6328 1483.4 97.6728 1483.37 97.707C1482.3 99.0124 1478.93 103.08 1479.11 103.247C1479.28 103.415 1483.23 99.9566 1484.5 98.8476C1484.53 98.8224 1484.57 98.8061 1484.61 98.8004C1484.65 98.7946 1484.7 98.7996 1484.74 98.8148C1484.77 98.8299 1484.81 98.8549 1484.84 98.8872C1484.86 98.9196 1484.88 98.9584 1484.89 99C1485.04 100.232 1485.48 103.514 1485.75 103.523C1486.02 103.532 1486.52 99.3638 1486.56 99.0627C1486.62 98.5519 1486.62 97.9879 1486.71 97.4753C1486.83 96.819 1486.98 96.6973 1487.5 96.2531C1488.13 95.7033 1488.75 95.1535 1489.37 94.6037C1489.41 94.5667 1489.46 94.5422 1489.52 94.5328C1489.57 94.5235 1489.63 94.5297 1489.68 94.5507C1489.73 94.5717 1489.77 94.6067 1489.81 94.652C1489.84 94.6972 1489.86 94.7508 1489.87 94.8069C1490.01 96.5073 1490.43 101.066 1490.7 101.075C1490.92 101.072 1491.32 96.4766 1491.35 96.1454C1491.45 95.0931 1491.26 93.3401 1491.74 92.4688C1492.11 91.7976 1493.17 91.1279 1493.73 90.5982C1494.66 91.9765 1495.21 93.5833 1495.33 95.2513C1495.45 96.9193 1495.12 98.5875 1494.39 100.082C1493.15 102.599 1491.08 103.858 1488.51 104.63C1486.03 105.337 1483.47 105.754 1480.88 105.873C1479.95 105.939 1479.01 105.97 1478.07 105.939C1477.75 105.924 1476.92 106.015 1476.67 105.762Z" fill="black"/>
<path opacity="0.2" d="M32.7884 69.9128C33.1704 69.5269 32.8981 67.8586 32.8759 67.388C32.8185 65.8293 32.596 64.2819 32.2121 62.773C31.7919 61.2131 31.1191 59.9172 29.6956 59.094C28.8059 58.5912 27.7966 58.3497 26.7792 58.3963C25.7619 58.443 24.7762 58.7759 23.9312 59.3583C24.2538 59.7144 24.5693 60.2147 24.9487 60.5048C25.4541 60.892 26.5258 60.7753 27.189 60.8477C27.3844 60.869 30.0911 61.1334 30.0905 61.2689C30.0894 61.4333 27.3983 61.6694 26.3962 61.7514C26.3642 61.7549 26.3337 61.7671 26.3079 61.7867C26.2821 61.8064 26.262 61.8328 26.2496 61.8631C26.2373 61.8934 26.2331 61.9265 26.2377 61.959C26.2422 61.9915 26.2553 62.0221 26.2755 62.0475C26.5995 62.4327 26.9204 62.8192 27.2383 63.2069C27.4569 63.472 27.5402 63.6027 27.8428 63.6909C28.1454 63.7792 28.5675 63.7585 28.8911 63.8025C29.0832 63.8282 31.5167 64.1389 31.516 64.3186C31.5153 64.4982 29.5728 64.7381 28.8461 64.8273C28.8215 64.8323 28.7986 64.8435 28.7795 64.86C28.7603 64.8764 28.7455 64.8975 28.7364 64.9213C28.7273 64.9451 28.7242 64.9708 28.7274 64.9961C28.7306 65.0214 28.74 65.0455 28.7547 65.066C29.4022 65.8515 31.4263 68.299 31.3208 68.3998C31.2153 68.5005 28.8403 66.4197 28.0756 65.7524C28.0556 65.7372 28.0321 65.7274 28.0073 65.724C27.9825 65.7205 27.9572 65.7235 27.9338 65.7326C27.9105 65.7418 27.8897 65.7568 27.8735 65.7762C27.8572 65.7957 27.846 65.8191 27.841 65.8441C27.7487 66.5853 27.4834 68.5601 27.322 68.5655C27.1605 68.5709 26.859 66.063 26.8374 65.8818C26.7978 65.5745 26.8007 65.2351 26.7448 64.9266C26.6726 64.5317 26.5837 64.4585 26.2683 64.1912C25.8938 63.8603 25.5192 63.5295 25.1446 63.1987C25.1196 63.1764 25.0891 63.1617 25.0564 63.156C25.0237 63.1504 24.9901 63.1541 24.9592 63.1668C24.9284 63.1794 24.9016 63.2005 24.8817 63.2277C24.8618 63.2549 24.8497 63.2872 24.8467 63.3209C24.7585 64.3442 24.505 67.0873 24.3435 67.0927C24.2094 67.0909 23.9737 64.3257 23.9548 64.1264C23.8933 63.4932 24.0091 62.4383 23.7207 61.9141C23.4984 61.5101 22.8554 61.1072 22.5228 60.7884C21.9625 61.6178 21.6298 62.5847 21.5594 63.5884C21.489 64.5921 21.6835 65.5959 22.1225 66.4953C22.8711 68.0097 24.1172 68.7672 25.6598 69.2317C27.157 69.6574 28.6972 69.9085 30.2508 69.98C30.8149 70.0196 31.3819 70.038 31.947 70.0198C32.1371 70.0103 32.6375 70.0652 32.7884 69.9128Z" fill="black"/>
<path opacity="0.2" d="M1519.21 69.9128C1518.83 69.5269 1519.1 67.8586 1519.12 67.388C1519.18 65.8293 1519.4 64.2819 1519.79 62.773C1520.21 61.2131 1520.88 59.9172 1522.3 59.094C1523.19 58.5912 1524.2 58.3497 1525.22 58.3963C1526.24 58.443 1527.22 58.7759 1528.07 59.3583C1527.75 59.7144 1527.43 60.2147 1527.05 60.5048C1526.55 60.892 1525.47 60.7753 1524.81 60.8477C1524.62 60.869 1521.91 61.1334 1521.91 61.2689C1521.91 61.4333 1524.6 61.6694 1525.6 61.7514C1525.64 61.7549 1525.67 61.7671 1525.69 61.7867C1525.72 61.8064 1525.74 61.8328 1525.75 61.8631C1525.76 61.8934 1525.77 61.9265 1525.76 61.959C1525.76 61.9915 1525.74 62.0221 1525.72 62.0475C1525.4 62.4327 1525.08 62.8192 1524.76 63.2069C1524.54 63.472 1524.46 63.6027 1524.16 63.6909C1523.85 63.7792 1523.43 63.7585 1523.11 63.8025C1522.92 63.8282 1520.48 64.1389 1520.48 64.3186C1520.48 64.4982 1522.43 64.7381 1523.15 64.8273C1523.18 64.8323 1523.2 64.8435 1523.22 64.86C1523.24 64.8764 1523.25 64.8975 1523.26 64.9213C1523.27 64.9451 1523.28 64.9708 1523.27 64.9961C1523.27 65.0214 1523.26 65.0455 1523.25 65.066C1522.6 65.8515 1520.57 68.299 1520.68 68.3998C1520.78 68.5005 1523.16 66.4197 1523.92 65.7524C1523.94 65.7372 1523.97 65.7274 1523.99 65.724C1524.02 65.7205 1524.04 65.7235 1524.07 65.7326C1524.09 65.7418 1524.11 65.7568 1524.13 65.7762C1524.14 65.7957 1524.15 65.8191 1524.16 65.8441C1524.25 66.5853 1524.52 68.5601 1524.68 68.5655C1524.84 68.5709 1525.14 66.063 1525.16 65.8818C1525.2 65.5745 1525.2 65.2351 1525.26 64.9266C1525.33 64.5317 1525.42 64.4585 1525.73 64.1912C1526.11 63.8603 1526.48 63.5295 1526.86 63.1987C1526.88 63.1764 1526.91 63.1617 1526.94 63.156C1526.98 63.1504 1527.01 63.1541 1527.04 63.1668C1527.07 63.1794 1527.1 63.2005 1527.12 63.2277C1527.14 63.2549 1527.15 63.2872 1527.15 63.3209C1527.24 64.3442 1527.5 67.0873 1527.66 67.0927C1527.79 67.0909 1528.03 64.3257 1528.05 64.1264C1528.11 63.4932 1527.99 62.4383 1528.28 61.9141C1528.5 61.5101 1529.14 61.1072 1529.48 60.7884C1530.04 61.6178 1530.37 62.5847 1530.44 63.5884C1530.51 64.5921 1530.32 65.5959 1529.88 66.4953C1529.13 68.0097 1527.88 68.7672 1526.34 69.2317C1524.84 69.6574 1523.3 69.9085 1521.75 69.98C1521.19 70.0196 1520.62 70.038 1520.05 70.0198C1519.86 70.0103 1519.36 70.0652 1519.21 69.9128Z" fill="black"/>
<path opacity="0.2" d="M11.7516 153.034C10.0817 154.133 9.79253 160.349 9.51422 162.061C8.53426 167.719 8.15797 173.461 8.39191 179.188C8.71764 185.126 10.1545 190.305 14.6547 194.353C17.4762 196.842 20.9276 198.48 24.6272 199.086C28.3267 199.693 32.1302 199.244 35.6169 197.79C34.7262 196.262 33.9709 194.22 32.8251 192.886C31.2998 191.107 27.351 190.711 25.0175 189.946C24.33 189.72 14.7828 186.707 14.888 186.22C15.017 185.629 24.889 186.827 28.5609 187.294C28.6787 187.306 28.7978 187.285 28.9056 187.234C29.0135 187.183 29.1061 187.103 29.1737 187.004C29.2413 186.904 29.2814 186.788 29.2897 186.667C29.298 186.547 29.2743 186.427 29.221 186.32C28.3472 184.686 27.4855 183.05 26.6358 181.411C26.0503 180.29 25.8498 179.756 24.8271 179.208C23.8045 178.66 22.2686 178.413 21.1366 178.008C20.4642 177.769 11.9364 174.797 12.0756 174.151C12.2147 173.504 19.3936 174.119 22.0788 174.351C22.171 174.352 22.2621 174.329 22.3436 174.284C22.4252 174.24 22.4946 174.175 22.5455 174.096C22.5964 174.017 22.6271 173.927 22.6348 173.833C22.6425 173.74 22.6269 173.646 22.5895 173.561C20.8555 170.239 15.4287 159.883 15.8854 159.601C16.3421 159.318 23.3119 168.62 25.5579 171.606C25.6186 171.676 25.6958 171.729 25.7824 171.76C25.869 171.792 25.9622 171.8 26.0534 171.785C26.1446 171.77 26.2309 171.732 26.3042 171.674C26.3775 171.616 26.4355 171.541 26.4728 171.454C27.3693 168.855 29.828 161.944 30.4138 162.048C30.9995 162.151 30.1761 171.413 30.1159 172.082C30.0246 173.219 29.7557 174.439 29.7223 175.593C29.6819 177.07 29.9461 177.402 30.8785 178.605C31.9758 180.081 33.073 181.558 34.1702 183.035C34.2432 183.134 34.3419 183.21 34.4555 183.255C34.569 183.3 34.693 183.313 34.8136 183.291C34.9343 183.268 35.047 183.213 35.1392 183.13C35.2315 183.047 35.2997 182.94 35.3364 182.821C36.4329 179.203 39.4341 169.516 40.0199 169.62C40.5016 169.728 39.2454 179.867 39.1615 180.599C38.9009 182.926 37.6811 186.637 38.3208 188.745C38.8138 190.369 40.8229 192.31 41.7783 193.711C44.4276 191.151 46.3617 187.922 47.3793 184.36C48.3969 180.799 48.4607 177.036 47.5641 173.462C46.0211 167.438 42.1096 163.761 36.9074 160.914C31.839 158.241 26.483 156.164 20.942 154.724C18.9406 154.152 16.9124 153.654 14.8632 153.289C14.1712 153.179 12.411 152.6 11.7516 153.034Z" fill="black"/>
<path opacity="0.2" d="M1540.25 153.034C1541.92 154.133 1542.21 160.349 1542.49 162.061C1543.47 167.719 1543.84 173.461 1543.61 179.188C1543.28 185.126 1541.85 190.305 1537.35 194.353C1534.52 196.842 1531.07 198.48 1527.37 199.086C1523.67 199.693 1519.87 199.244 1516.38 197.79C1517.27 196.262 1518.03 194.22 1519.17 192.886C1520.7 191.107 1524.65 190.711 1526.98 189.946C1527.67 189.72 1537.22 186.707 1537.11 186.22C1536.98 185.629 1527.11 186.827 1523.44 187.294C1523.32 187.306 1523.2 187.285 1523.09 187.234C1522.99 187.183 1522.89 187.103 1522.83 187.004C1522.76 186.904 1522.72 186.788 1522.71 186.667C1522.7 186.547 1522.73 186.427 1522.78 186.32C1523.65 184.686 1524.51 183.05 1525.36 181.411C1525.95 180.29 1526.15 179.756 1527.17 179.208C1528.2 178.66 1529.73 178.413 1530.86 178.008C1531.54 177.769 1540.06 174.797 1539.92 174.151C1539.79 173.504 1532.61 174.119 1529.92 174.351C1529.83 174.352 1529.74 174.329 1529.66 174.284C1529.57 174.24 1529.51 174.175 1529.45 174.096C1529.4 174.017 1529.37 173.927 1529.37 173.833C1529.36 173.74 1529.37 173.646 1529.41 173.561C1531.14 170.239 1536.57 159.883 1536.11 159.601C1535.66 159.318 1528.69 168.62 1526.44 171.606C1526.38 171.676 1526.3 171.729 1526.22 171.76C1526.13 171.792 1526.04 171.8 1525.95 171.785C1525.86 171.77 1525.77 171.732 1525.7 171.674C1525.62 171.616 1525.56 171.541 1525.53 171.454C1524.63 168.855 1522.17 161.944 1521.59 162.048C1521 162.151 1521.82 171.413 1521.88 172.082C1521.98 173.219 1522.24 174.439 1522.28 175.593C1522.32 177.07 1522.05 177.402 1521.12 178.605C1520.02 180.081 1518.93 181.558 1517.83 183.035C1517.76 183.134 1517.66 183.21 1517.54 183.255C1517.43 183.3 1517.31 183.313 1517.19 183.291C1517.07 183.268 1516.95 183.213 1516.86 183.13C1516.77 183.047 1516.7 182.94 1516.66 182.821C1515.57 179.203 1512.57 169.516 1511.98 169.62C1511.5 169.728 1512.75 179.867 1512.84 180.599C1513.1 182.926 1514.32 186.637 1513.68 188.745C1513.19 190.369 1511.18 192.31 1510.22 193.711C1507.57 191.151 1505.64 187.922 1504.62 184.36C1503.6 180.799 1503.54 177.036 1504.44 173.462C1505.98 167.438 1509.89 163.761 1515.09 160.914C1520.16 158.241 1525.52 156.164 1531.06 154.724C1533.06 154.152 1535.09 153.654 1537.14 153.289C1537.83 153.179 1539.59 152.6 1540.25 153.034Z" fill="black"/>
</svg>
