<svg width="517" height="260" viewBox="0 0 517 260" fill="none" xmlns="http://www.w3.org/2000/svg">
<path d="M494 259.5C507.255 259.5 518.115 248.732 516.891 235.534C514.492 209.673 508.22 184.272 498.247 160.194C485.206 128.71 466.091 100.103 441.994 76.0058C417.897 51.909 389.29 32.7944 357.806 19.7533C326.322 6.71216 292.578 -1.4896e-06 258.5 0C224.422 1.4896e-06 190.678 6.71217 159.194 19.7533C127.71 32.7944 99.1026 51.909 75.0058 76.0058C50.909 100.103 31.7943 128.71 18.7533 160.194C8.77956 184.272 2.50768 209.673 0.109042 235.534C-1.11511 248.732 9.74517 259.5 23 259.5L258.5 259.5H494Z" fill="url(#paint0_radial_41_157)"/>
<defs>
<radialGradient id="paint0_radial_41_157" cx="0" cy="0" r="1" gradientUnits="userSpaceOnUse" gradientTransform="translate(258.5 259.5) rotate(-90) scale(205.81)">
<stop stop-color="#F06601"/>
<stop offset="1" stop-color="#F06601" stop-opacity="0"/>
</radialGradient>
</defs>
</svg>
